%FSLAX24Y24*%
%MOIN*%
%ADD10C,0.0079*%
%ADD11C,0.0199*%
%ADD12C,0.0500*%
%ADD13C,0.0520*%
%ADD14C,0.0550*%
%ADD15C,0.0591*%
%ADD16C,0.0600*%
%ADD17C,0.0700*%
%ADD18C,0.0709*%
%ADD19C,0.0750*%
%ADD20C,0.0787*%
%ADD21C,0.1000*%
%ADD22C,0.1181*%
%ADD23C,0.1500*%
%ADD24C,0.1575*%
%ADD25C,0.2362*%
%ADD26C,0.3150*%
D10*
G01X4500Y21500D02*
X4000Y21000D01*
X4500Y23858D02*
X4500Y22500D01*
X4750Y26250D02*
X4751Y24436D01*
X4058Y23743D01*
X4850Y7810D02*
X7381Y10340D01*
X4879Y22042D02*
X5000Y21921D01*
X5000Y11239D02*
X5000Y11761D01*
X5297Y12058D01*
X5000Y13000D02*
X5500Y12500D01*
X5000Y21921D02*
X5000Y13000D01*
X5000Y37000D02*
X5550Y37550D01*
X5297Y12058D02*
X5937Y12058D01*
X5500Y22500D02*
X5500Y24003D01*
X7251Y25753D01*
X5550Y37550D02*
X9500Y37549D01*
X5728Y11500D02*
X5500Y11500D01*
X5913Y26900D02*
X4354Y26900D01*
X5937Y12058D02*
X6000Y12121D01*
X6000Y15000D01*
X6045Y21222D02*
X6045Y24291D01*
X7751Y25997D01*
X6270Y12042D02*
X5728Y11500D01*
X6335Y25693D02*
X4500Y23858D01*
X6335Y27066D02*
X6335Y25693D01*
X6379Y7630D02*
X8000Y9250D01*
X6500Y12500D02*
X6500Y20766D01*
X6045Y21222D01*
X6500Y32500D02*
X3703Y29703D01*
X6500Y33500D02*
X6500Y32500D01*
X6535Y27266D02*
X6335Y27066D01*
X6921Y12042D02*
X6270Y12042D01*
X6942Y12063D02*
X6921Y12042D01*
X6942Y24613D02*
X6942Y12063D01*
X7251Y25753D02*
X7251Y26648D01*
X7689Y27087D01*
X7381Y10340D02*
X7911Y10340D01*
X7500Y22500D02*
X7500Y24747D01*
X8751Y25997D01*
X7689Y27087D02*
X8277Y27087D01*
X7751Y25997D02*
X7750Y26250D01*
X7911Y10340D02*
X9000Y9250D01*
X8000Y13000D02*
X7500Y12500D01*
X8000Y23500D02*
X8000Y13000D01*
X8201Y27266D02*
X6535Y27266D01*
X8277Y27087D02*
X10092Y28902D01*
X8333Y26004D02*
X6942Y24613D01*
X8333Y26882D02*
X8333Y26004D01*
X8354Y26903D02*
X8333Y26882D01*
X8751Y25997D02*
X8750Y26250D01*
X9018Y30005D02*
X5913Y26900D01*
X9098Y26903D02*
X8354Y26903D01*
X9500Y33500D02*
X6500Y33500D01*
X9750Y26250D02*
X9098Y26903D01*
X10092Y28902D02*
X10881Y28902D01*
X10366Y29432D02*
X8201Y27266D01*
X10750Y26250D02*
X8000Y23500D01*
X10881Y28902D02*
X10902Y28881D01*
X10902Y28490D02*
X12496Y26895D01*
X10902Y28881D02*
X10902Y28490D01*
X11035Y32541D02*
X11035Y35818D01*
X11469Y36250D01*
X12251Y4251D02*
X12250Y4000D01*
X12496Y26895D02*
X13147Y26895D01*
X12750Y30825D02*
X11035Y32541D01*
X12750Y32175D02*
X13283Y32707D01*
X13000Y5000D02*
X12251Y4251D01*
X13000Y5000D02*
X13000Y6000D01*
X13147Y26895D02*
X13168Y26874D01*
X13168Y26282D02*
X24224Y15226D01*
X13168Y26874D02*
X13168Y26282D01*
X13283Y32707D02*
X13283Y35735D01*
X11469Y37549D01*
X14000Y9000D02*
X14000Y10000D01*
X14176Y30005D02*
X9018Y30005D01*
X14324Y29432D02*
X10366Y29432D01*
X1500Y12500D02*
X1500Y14500D01*
X2000Y15000D01*
X17000Y6000D02*
X17000Y7000D01*
X19000Y9000D02*
X19000Y10000D01*
X19000Y11000D01*
X20717Y23465D02*
X14176Y30005D01*
X21969Y7969D02*
X21969Y6959D01*
X23000Y9000D02*
X21969Y7969D01*
X24058Y16949D02*
X24058Y19698D01*
X14324Y29432D01*
X24224Y15226D02*
X25525Y15226D01*
X2425Y7757D02*
X2552Y7630D01*
X2425Y10483D02*
X2425Y7757D01*
X2552Y7630D02*
X6379Y7630D01*
X25525Y15226D02*
X27000Y13750D01*
X2605Y7831D02*
X2626Y7810D01*
X2605Y9110D02*
X2605Y7831D01*
X2626Y7810D02*
X4850Y7810D01*
X26840Y14167D02*
X24058Y16949D01*
X27530Y14167D02*
X26840Y14167D01*
X27551Y10294D02*
X27551Y14146D01*
X27530Y14167D01*
X29402Y8444D02*
X27551Y10294D01*
X29402Y3598D02*
X29402Y8444D01*
X3000Y11058D02*
X2425Y10483D01*
X3000Y21000D02*
X3000Y11058D01*
X30000Y3000D02*
X29402Y3598D01*
X30699Y23465D02*
X20717Y23465D01*
X31657Y19093D02*
X31657Y22507D01*
X30699Y23465D01*
X3250Y8250D02*
X3251Y9490D01*
X5000Y11239D01*
X3336Y30071D02*
X3336Y32664D01*
X2500Y33500D01*
X34000Y5000D02*
X34000Y3000D01*
X34000Y21000D02*
X34000Y19928D01*
X34000Y22250D02*
X34000Y21000D01*
X34000Y19928D02*
X38657Y15270D01*
X3500Y21500D02*
X3000Y21000D01*
X3500Y26046D02*
X3500Y22500D01*
X36500Y14250D02*
X31657Y19093D01*
X3703Y29703D02*
X3336Y30071D01*
X3703Y29703D02*
X3500Y29500D01*
X38657Y7657D02*
X38000Y7000D01*
X38657Y15270D02*
X38657Y7657D01*
X4000Y10505D02*
X2605Y9110D01*
X4000Y21000D02*
X4000Y10505D01*
X4058Y22063D02*
X4079Y22042D01*
X4058Y23743D02*
X4058Y22063D01*
X4079Y22042D02*
X4879Y22042D01*
X4354Y26900D02*
X3500Y26046D01*
X43870Y21500D02*
X43370Y21000D01*
X43870Y23858D02*
X43870Y22500D01*
X44120Y26250D02*
X44121Y24436D01*
X43428Y23743D01*
X44220Y7810D02*
X46751Y10340D01*
X44249Y22042D02*
X44370Y21921D01*
X44370Y11239D02*
X44370Y11761D01*
X44667Y12058D01*
X44370Y13000D02*
X44870Y12500D01*
X44370Y21921D02*
X44370Y13000D01*
X44370Y37000D02*
X44920Y37550D01*
X44667Y12058D02*
X45307Y12058D01*
X44870Y22500D02*
X44870Y24003D01*
X46621Y25753D01*
X44920Y37550D02*
X48870Y37549D01*
X45098Y11500D02*
X44870Y11500D01*
X45283Y26900D02*
X43724Y26900D01*
X45307Y12058D02*
X45370Y12121D01*
X45370Y15000D01*
X45415Y21222D02*
X45415Y24291D01*
X47121Y25997D01*
X45640Y12042D02*
X45098Y11500D01*
X45705Y25693D02*
X43870Y23858D01*
X45705Y27066D02*
X45705Y25693D01*
X45749Y7630D02*
X47370Y9250D01*
X45870Y12500D02*
X45870Y20766D01*
X45415Y21222D01*
X45870Y32500D02*
X43073Y29703D01*
X45870Y33500D02*
X45870Y32500D01*
X45906Y27266D02*
X45705Y27066D01*
X46291Y12042D02*
X45640Y12042D01*
X46312Y12063D02*
X46291Y12042D01*
X46312Y24613D02*
X46312Y12063D01*
X46621Y25753D02*
X46621Y26648D01*
X47059Y27087D01*
X46751Y10340D02*
X47281Y10340D01*
X46870Y22500D02*
X46870Y24747D01*
X48121Y25997D01*
X47059Y27087D02*
X47647Y27087D01*
X47121Y25997D02*
X47120Y26250D01*
X47281Y10340D02*
X48370Y9250D01*
X47370Y13000D02*
X46870Y12500D01*
X47370Y23500D02*
X47370Y13000D01*
X47571Y27266D02*
X45906Y27266D01*
X47647Y27087D02*
X49462Y28902D01*
X47703Y26004D02*
X46312Y24613D01*
X47703Y26882D02*
X47703Y26004D01*
X47724Y26903D02*
X47703Y26882D01*
X48121Y25997D02*
X48120Y26250D01*
X48388Y30005D02*
X45283Y26900D01*
X48469Y26903D02*
X47724Y26903D01*
X48870Y33500D02*
X45870Y33500D01*
X49120Y26250D02*
X48469Y26903D01*
X49462Y28902D02*
X50251Y28902D01*
X49736Y29432D02*
X47571Y27266D01*
X50120Y26250D02*
X47370Y23500D01*
X50251Y28902D02*
X50272Y28881D01*
X50272Y28490D02*
X51866Y26895D01*
X50272Y28881D02*
X50272Y28490D01*
X50406Y32541D02*
X50406Y35818D01*
X50839Y36250D01*
X51621Y4251D02*
X51620Y4000D01*
X51866Y26895D02*
X52517Y26895D01*
X52120Y30825D02*
X50406Y32541D01*
X52120Y32175D02*
X52654Y32707D01*
X52370Y5000D02*
X51621Y4251D01*
X52370Y5000D02*
X52370Y6000D01*
X52517Y26895D02*
X52538Y26874D01*
X52538Y26282D02*
X63594Y15226D01*
X52538Y26874D02*
X52538Y26282D01*
X52654Y32707D02*
X52654Y35735D01*
X50839Y37549D01*
X53370Y9000D02*
X53370Y10000D01*
X53546Y30005D02*
X48388Y30005D01*
X53694Y29432D02*
X49736Y29432D01*
X40870Y12500D02*
X40870Y14500D01*
X41370Y15000D01*
X56370Y6000D02*
X56370Y7000D01*
X58370Y9000D02*
X58370Y10000D01*
X58370Y11000D01*
X60087Y23465D02*
X53546Y30005D01*
X61339Y7969D02*
X61339Y6959D01*
X62370Y9000D02*
X61339Y7969D01*
X63428Y16949D02*
X63428Y19698D01*
X53694Y29432D01*
X63594Y15226D02*
X64895Y15226D01*
X41795Y7757D02*
X41923Y7630D01*
X41795Y10483D02*
X41795Y7757D01*
X41923Y7630D02*
X45749Y7630D01*
X64895Y15226D02*
X66370Y13750D01*
X41975Y7831D02*
X41996Y7810D01*
X41975Y9110D02*
X41975Y7831D01*
X41996Y7810D02*
X44220Y7810D01*
X66210Y14167D02*
X63428Y16949D01*
X66900Y14167D02*
X66210Y14167D01*
X66921Y10294D02*
X66921Y14146D01*
X66900Y14167D01*
X68772Y8444D02*
X66921Y10294D01*
X68772Y3598D02*
X68772Y8444D01*
X42370Y11058D02*
X41795Y10483D01*
X42370Y21000D02*
X42370Y11058D01*
X69370Y3000D02*
X68772Y3598D01*
X70070Y23465D02*
X60087Y23465D01*
X71028Y19093D02*
X71028Y22507D01*
X70070Y23465D01*
X42620Y8250D02*
X42621Y9490D01*
X44370Y11239D01*
X42706Y30071D02*
X42706Y32664D01*
X41870Y33500D01*
X73370Y5000D02*
X73370Y3000D01*
X73370Y21000D02*
X73370Y19928D01*
X73370Y22250D02*
X73370Y21000D01*
X73370Y19928D02*
X78028Y15270D01*
X42870Y21500D02*
X42370Y21000D01*
X42870Y26046D02*
X42870Y22500D01*
X75870Y14250D02*
X71028Y19093D01*
X43073Y29703D02*
X42706Y30071D01*
X43073Y29703D02*
X42870Y29500D01*
X78028Y7657D02*
X77370Y7000D01*
X78028Y15270D02*
X78028Y7657D01*
X43370Y10505D02*
X41975Y9110D01*
X43370Y21000D02*
X43370Y10505D01*
X43428Y22063D02*
X43449Y22042D01*
X43428Y23743D02*
X43428Y22063D01*
X43449Y22042D02*
X44249Y22042D01*
X43724Y26900D02*
X42870Y26046D01*
X4500Y60870D02*
X4000Y60370D01*
X4500Y63228D02*
X4500Y61870D01*
X4750Y65620D02*
X4751Y63806D01*
X4058Y63113D01*
X4850Y47180D02*
X7381Y49710D01*
X4879Y61412D02*
X5000Y61291D01*
X5000Y50609D02*
X5000Y51131D01*
X5297Y51428D01*
X5000Y52370D02*
X5500Y51870D01*
X5000Y61291D02*
X5000Y52370D01*
X5000Y76370D02*
X5550Y76920D01*
X5297Y51428D02*
X5937Y51428D01*
X5500Y61870D02*
X5500Y63373D01*
X7251Y65123D01*
X5550Y76920D02*
X9500Y76919D01*
X5728Y50870D02*
X5500Y50870D01*
X5913Y66270D02*
X4354Y66270D01*
X5937Y51428D02*
X6000Y51491D01*
X6000Y54370D01*
X6045Y60592D02*
X6045Y63661D01*
X7751Y65367D01*
X6270Y51412D02*
X5728Y50870D01*
X6335Y65063D02*
X4500Y63228D01*
X6335Y66436D02*
X6335Y65063D01*
X6379Y47000D02*
X8000Y48620D01*
X6500Y51870D02*
X6500Y60136D01*
X6045Y60592D01*
X6500Y71870D02*
X3703Y69073D01*
X6500Y72870D02*
X6500Y71870D01*
X6535Y66636D02*
X6335Y66436D01*
X6921Y51412D02*
X6270Y51412D01*
X6942Y51433D02*
X6921Y51412D01*
X6942Y63983D02*
X6942Y51433D01*
X7251Y65123D02*
X7251Y66018D01*
X7689Y66457D01*
X7381Y49710D02*
X7911Y49710D01*
X7500Y61870D02*
X7500Y64117D01*
X8751Y65367D01*
X7689Y66457D02*
X8277Y66457D01*
X7751Y65367D02*
X7750Y65620D01*
X7911Y49710D02*
X9000Y48620D01*
X8000Y52370D02*
X7500Y51870D01*
X8000Y62870D02*
X8000Y52370D01*
X8201Y66636D02*
X6535Y66636D01*
X8277Y66457D02*
X10092Y68272D01*
X8333Y65374D02*
X6942Y63983D01*
X8333Y66252D02*
X8333Y65374D01*
X8354Y66273D02*
X8333Y66252D01*
X8751Y65367D02*
X8750Y65620D01*
X9018Y69375D02*
X5913Y66270D01*
X9098Y66273D02*
X8354Y66273D01*
X9500Y72870D02*
X6500Y72870D01*
X9750Y65620D02*
X9098Y66273D01*
X10092Y68272D02*
X10881Y68272D01*
X10366Y68802D02*
X8201Y66636D01*
X10750Y65620D02*
X8000Y62870D01*
X10881Y68272D02*
X10902Y68251D01*
X10902Y67860D02*
X12496Y66265D01*
X10902Y68251D02*
X10902Y67860D01*
X11035Y71911D02*
X11035Y75188D01*
X11469Y75620D01*
X12251Y43621D02*
X12250Y43370D01*
X12496Y66265D02*
X13147Y66265D01*
X12750Y70195D02*
X11035Y71911D01*
X12750Y71545D02*
X13283Y72077D01*
X13000Y44370D02*
X12251Y43621D01*
X13000Y44370D02*
X13000Y45370D01*
X13147Y66265D02*
X13168Y66244D01*
X13168Y65652D02*
X24224Y54596D01*
X13168Y66244D02*
X13168Y65652D01*
X13283Y72077D02*
X13283Y75105D01*
X11469Y76919D01*
X14000Y48370D02*
X14000Y49370D01*
X14176Y69375D02*
X9018Y69375D01*
X14324Y68802D02*
X10366Y68802D01*
X1500Y51870D02*
X1500Y53870D01*
X2000Y54370D01*
X17000Y45370D02*
X17000Y46370D01*
X19000Y48370D02*
X19000Y49370D01*
X19000Y50370D01*
X20717Y62835D02*
X14176Y69375D01*
X21969Y47339D02*
X21969Y46329D01*
X23000Y48370D02*
X21969Y47339D01*
X24058Y56319D02*
X24058Y59068D01*
X14324Y68802D01*
X24224Y54596D02*
X25525Y54596D01*
X2425Y47127D02*
X2552Y47000D01*
X2425Y49853D02*
X2425Y47127D01*
X2552Y47000D02*
X6379Y47000D01*
X25525Y54596D02*
X27000Y53120D01*
X2605Y47201D02*
X2626Y47180D01*
X2605Y48480D02*
X2605Y47201D01*
X2626Y47180D02*
X4850Y47180D01*
X26840Y53537D02*
X24058Y56319D01*
X27530Y53537D02*
X26840Y53537D01*
X27551Y49664D02*
X27551Y53516D01*
X27530Y53537D01*
X29402Y47814D02*
X27551Y49664D01*
X29402Y42969D02*
X29402Y47814D01*
X3000Y50428D02*
X2425Y49853D01*
X3000Y60370D02*
X3000Y50428D01*
X30000Y42370D02*
X29402Y42969D01*
X30699Y62835D02*
X20717Y62835D01*
X31657Y58463D02*
X31657Y61877D01*
X30699Y62835D01*
X3250Y47620D02*
X3251Y48860D01*
X5000Y50609D01*
X3336Y69441D02*
X3336Y72034D01*
X2500Y72870D01*
X34000Y44370D02*
X34000Y42370D01*
X34000Y60370D02*
X34000Y59298D01*
X34000Y61620D02*
X34000Y60370D01*
X34000Y59298D02*
X38657Y54640D01*
X3500Y60870D02*
X3000Y60370D01*
X3500Y65416D02*
X3500Y61870D01*
X36500Y53620D02*
X31657Y58463D01*
X3703Y69073D02*
X3336Y69441D01*
X3703Y69073D02*
X3500Y68870D01*
X38657Y47028D02*
X38000Y46370D01*
X38657Y54640D02*
X38657Y47028D01*
X4000Y49875D02*
X2605Y48480D01*
X4000Y60370D02*
X4000Y49875D01*
X4058Y61433D02*
X4079Y61412D01*
X4058Y63113D02*
X4058Y61433D01*
X4079Y61412D02*
X4879Y61412D01*
X4354Y66270D02*
X3500Y65416D01*
X43870Y60870D02*
X43370Y60370D01*
X43870Y63228D02*
X43870Y61870D01*
X44120Y65620D02*
X44121Y63806D01*
X43428Y63113D01*
X44220Y47180D02*
X46751Y49710D01*
X44249Y61412D02*
X44370Y61291D01*
X44370Y50609D02*
X44370Y51131D01*
X44667Y51428D01*
X44370Y52370D02*
X44870Y51870D01*
X44370Y61291D02*
X44370Y52370D01*
X44370Y76370D02*
X44920Y76920D01*
X44667Y51428D02*
X45307Y51428D01*
X44870Y61870D02*
X44870Y63373D01*
X46621Y65123D01*
X44920Y76920D02*
X48870Y76919D01*
X45098Y50870D02*
X44870Y50870D01*
X45283Y66270D02*
X43724Y66270D01*
X45307Y51428D02*
X45370Y51491D01*
X45370Y54370D01*
X45415Y60592D02*
X45415Y63661D01*
X47121Y65367D01*
X45640Y51412D02*
X45098Y50870D01*
X45705Y65063D02*
X43870Y63228D01*
X45705Y66436D02*
X45705Y65063D01*
X45749Y47000D02*
X47370Y48620D01*
X45870Y51870D02*
X45870Y60136D01*
X45415Y60592D01*
X45870Y71870D02*
X43073Y69073D01*
X45870Y72870D02*
X45870Y71870D01*
X45906Y66636D02*
X45705Y66436D01*
X46291Y51412D02*
X45640Y51412D01*
X46312Y51433D02*
X46291Y51412D01*
X46312Y63983D02*
X46312Y51433D01*
X46621Y65123D02*
X46621Y66018D01*
X47059Y66457D01*
X46751Y49710D02*
X47281Y49710D01*
X46870Y61870D02*
X46870Y64117D01*
X48121Y65367D01*
X47059Y66457D02*
X47647Y66457D01*
X47121Y65367D02*
X47120Y65620D01*
X47281Y49710D02*
X48370Y48620D01*
X47370Y52370D02*
X46870Y51870D01*
X47370Y62870D02*
X47370Y52370D01*
X47571Y66636D02*
X45906Y66636D01*
X47647Y66457D02*
X49462Y68272D01*
X47703Y65374D02*
X46312Y63983D01*
X47703Y66252D02*
X47703Y65374D01*
X47724Y66273D02*
X47703Y66252D01*
X48121Y65367D02*
X48120Y65620D01*
X48388Y69375D02*
X45283Y66270D01*
X48469Y66273D02*
X47724Y66273D01*
X48870Y72870D02*
X45870Y72870D01*
X49120Y65620D02*
X48469Y66273D01*
X49462Y68272D02*
X50251Y68272D01*
X49736Y68802D02*
X47571Y66636D01*
X50120Y65620D02*
X47370Y62870D01*
X50251Y68272D02*
X50272Y68251D01*
X50272Y67860D02*
X51866Y66265D01*
X50272Y68251D02*
X50272Y67860D01*
X50406Y71911D02*
X50406Y75188D01*
X50839Y75620D01*
X51621Y43621D02*
X51620Y43370D01*
X51866Y66265D02*
X52517Y66265D01*
X52120Y70195D02*
X50406Y71911D01*
X52120Y71545D02*
X52654Y72077D01*
X52370Y44370D02*
X51621Y43621D01*
X52370Y44370D02*
X52370Y45370D01*
X52517Y66265D02*
X52538Y66244D01*
X52538Y65652D02*
X63594Y54596D01*
X52538Y66244D02*
X52538Y65652D01*
X52654Y72077D02*
X52654Y75105D01*
X50839Y76919D01*
X53370Y48370D02*
X53370Y49370D01*
X53546Y69375D02*
X48388Y69375D01*
X53694Y68802D02*
X49736Y68802D01*
X40870Y51870D02*
X40870Y53870D01*
X41370Y54370D01*
X56370Y45370D02*
X56370Y46370D01*
X58370Y48370D02*
X58370Y49370D01*
X58370Y50370D01*
X60087Y62835D02*
X53546Y69375D01*
X61339Y47339D02*
X61339Y46329D01*
X62370Y48370D02*
X61339Y47339D01*
X63428Y56319D02*
X63428Y59068D01*
X53694Y68802D01*
X63594Y54596D02*
X64895Y54596D01*
X41795Y47127D02*
X41923Y47000D01*
X41795Y49853D02*
X41795Y47127D01*
X41923Y47000D02*
X45749Y47000D01*
X64895Y54596D02*
X66370Y53120D01*
X41975Y47201D02*
X41996Y47180D01*
X41975Y48480D02*
X41975Y47201D01*
X41996Y47180D02*
X44220Y47180D01*
X66210Y53537D02*
X63428Y56319D01*
X66900Y53537D02*
X66210Y53537D01*
X66921Y49664D02*
X66921Y53516D01*
X66900Y53537D01*
X68772Y47814D02*
X66921Y49664D01*
X68772Y42969D02*
X68772Y47814D01*
X42370Y50428D02*
X41795Y49853D01*
X42370Y60370D02*
X42370Y50428D01*
X69370Y42370D02*
X68772Y42969D01*
X70070Y62835D02*
X60087Y62835D01*
X71028Y58463D02*
X71028Y61877D01*
X70070Y62835D01*
X42620Y47620D02*
X42621Y48860D01*
X44370Y50609D01*
X42706Y69441D02*
X42706Y72034D01*
X41870Y72870D01*
X73370Y44370D02*
X73370Y42370D01*
X73370Y60370D02*
X73370Y59298D01*
X73370Y61620D02*
X73370Y60370D01*
X73370Y59298D02*
X78028Y54640D01*
X42870Y60870D02*
X42370Y60370D01*
X42870Y65416D02*
X42870Y61870D01*
X75870Y53620D02*
X71028Y58463D01*
X43073Y69073D02*
X42706Y69441D01*
X43073Y69073D02*
X42870Y68870D01*
X78028Y47028D02*
X77370Y46370D01*
X78028Y54640D02*
X78028Y47028D01*
X43370Y49875D02*
X41975Y48480D01*
X43370Y60370D02*
X43370Y49875D01*
X43428Y61433D02*
X43449Y61412D01*
X43428Y63113D02*
X43428Y61433D01*
X43449Y61412D02*
X44249Y61412D01*
X43724Y66270D02*
X42870Y65416D01*
D11*
G01X5751Y30249D02*
X5750Y30500D01*
X6500Y28500D02*
X6500Y29500D01*
X5751Y30249D01*
X9029Y20971D02*
X8500Y21500D01*
X9046Y13046D02*
X8500Y12500D01*
X9500Y8500D02*
X9500Y9789D01*
X11049Y11337D01*
X980Y12020D02*
X980Y21980D01*
X1500Y22500D01*
X10270Y24094D02*
X11047Y23318D01*
X10270Y24673D02*
X10270Y24094D01*
X10500Y28500D02*
X11228Y27772D01*
X10709Y13046D02*
X9046Y13046D01*
X10769Y7231D02*
X9500Y8500D01*
X10991Y20971D02*
X9029Y20971D01*
X10991Y20971D02*
X11692Y20270D01*
X11000Y9250D02*
X11251Y9000D01*
X11047Y21028D02*
X10991Y20971D01*
X11047Y23318D02*
X11047Y21028D01*
X11049Y11337D02*
X11049Y12706D01*
X10709Y13046D01*
X11228Y25631D02*
X10270Y24673D01*
X11228Y27772D02*
X11228Y25631D01*
X11251Y9000D02*
X11250Y8000D01*
X11692Y10942D02*
X10000Y9250D01*
X11692Y20270D02*
X11692Y10942D01*
X11750Y26250D02*
X11751Y25500D01*
X10750Y24500D01*
X12750Y24500D02*
X14000Y23251D01*
X12750Y26250D02*
X12750Y24500D01*
X13000Y7231D02*
X10769Y7231D01*
X13000Y7231D02*
X13000Y7000D01*
X13231Y7231D02*
X13000Y7231D01*
X13462Y7462D02*
X13231Y7231D01*
X13462Y10462D02*
X13462Y7462D01*
X14000Y11000D02*
X13462Y10462D01*
X14000Y12000D02*
X14000Y11000D01*
X14000Y12000D02*
X19000Y12000D01*
X14000Y23251D02*
X14000Y12000D01*
X1500Y11500D02*
X980Y12020D01*
X1500Y30627D02*
X1250Y30378D01*
X1500Y32500D02*
X1500Y30627D01*
X15000Y5000D02*
X15000Y8000D01*
X16000Y9000D01*
X18251Y30000D02*
X17250Y29000D01*
X19000Y12000D02*
X20462Y10538D01*
X19250Y30000D02*
X18251Y30000D01*
X19250Y31000D02*
X17250Y31000D01*
X20462Y10538D02*
X25462Y10538D01*
X20984Y5500D02*
X20984Y2235D01*
X20984Y5500D02*
X26000Y5500D01*
X20984Y6959D02*
X20984Y5500D01*
X20984Y2235D02*
X20000Y1250D01*
X2500Y34500D02*
X1500Y35500D01*
X25000Y16750D02*
X26000Y17751D01*
X25462Y10538D02*
X29000Y7000D01*
X26000Y17751D02*
X27000Y17750D01*
X28150Y16601D01*
X31000Y16601D01*
X30000Y5000D02*
X30000Y6000D01*
X30594Y6594D01*
X30594Y14250D01*
X31000Y15451D02*
X31000Y16601D01*
X31000Y21000D01*
X31000Y22250D01*
X37500Y5500D02*
X37500Y8951D01*
X3750Y30500D02*
X3751Y33249D01*
X37500Y8951D02*
X31000Y15451D01*
X3751Y33249D02*
X2500Y34500D01*
X45121Y30249D02*
X45120Y30500D01*
X45870Y28500D02*
X45870Y29500D01*
X45121Y30249D01*
X48399Y20971D02*
X47870Y21500D01*
X48416Y13046D02*
X47870Y12500D01*
X48870Y8500D02*
X48870Y9789D01*
X50419Y11337D01*
X40350Y12020D02*
X40350Y21980D01*
X40870Y22500D01*
X49640Y24094D02*
X50417Y23318D01*
X49640Y24673D02*
X49640Y24094D01*
X49870Y28500D02*
X50598Y27772D01*
X50079Y13046D02*
X48416Y13046D01*
X50139Y7231D02*
X48870Y8500D01*
X50361Y20971D02*
X48399Y20971D01*
X50361Y20971D02*
X51062Y20270D01*
X50370Y9250D02*
X50621Y9000D01*
X50417Y21028D02*
X50361Y20971D01*
X50417Y23318D02*
X50417Y21028D01*
X50419Y11337D02*
X50419Y12706D01*
X50079Y13046D01*
X50598Y25631D02*
X49640Y24673D01*
X50598Y27772D02*
X50598Y25631D01*
X50621Y9000D02*
X50620Y8000D01*
X51062Y10942D02*
X49370Y9250D01*
X51062Y20270D02*
X51062Y10942D01*
X51120Y26250D02*
X51121Y25500D01*
X50120Y24500D01*
X52120Y24500D02*
X53370Y23251D01*
X52120Y26250D02*
X52120Y24500D01*
X52370Y7231D02*
X50139Y7231D01*
X52370Y7231D02*
X52370Y7000D01*
X52601Y7231D02*
X52370Y7231D01*
X52832Y7462D02*
X52601Y7231D01*
X52832Y10462D02*
X52832Y7462D01*
X53370Y11000D02*
X52832Y10462D01*
X53370Y12000D02*
X53370Y11000D01*
X53370Y12000D02*
X58370Y12000D01*
X53370Y23251D02*
X53370Y12000D01*
X40870Y11500D02*
X40350Y12020D01*
X40870Y30627D02*
X40620Y30378D01*
X40870Y32500D02*
X40870Y30627D01*
X54370Y5000D02*
X54370Y8000D01*
X55370Y9000D01*
X57621Y30000D02*
X56620Y29000D01*
X58370Y12000D02*
X59832Y10538D01*
X58620Y30000D02*
X57621Y30000D01*
X58620Y31000D02*
X56620Y31000D01*
X59832Y10538D02*
X64832Y10538D01*
X60354Y5500D02*
X60354Y2235D01*
X60354Y5500D02*
X65370Y5500D01*
X60354Y6959D02*
X60354Y5500D01*
X60354Y2235D02*
X59370Y1250D01*
X41870Y34500D02*
X40870Y35500D01*
X64370Y16750D02*
X65370Y17751D01*
X64832Y10538D02*
X68370Y7000D01*
X65370Y17751D02*
X66370Y17750D01*
X67520Y16601D01*
X70370Y16601D01*
X69370Y5000D02*
X69370Y6000D01*
X69965Y6594D01*
X69965Y14250D01*
X70370Y15451D02*
X70370Y16601D01*
X70370Y21000D01*
X70370Y22250D01*
X76870Y5500D02*
X76870Y8951D01*
X43120Y30500D02*
X43121Y33249D01*
X76870Y8951D02*
X70370Y15451D01*
X43121Y33249D02*
X41870Y34500D01*
X5751Y69619D02*
X5750Y69870D01*
X6500Y67870D02*
X6500Y68870D01*
X5751Y69619D01*
X9029Y60341D02*
X8500Y60870D01*
X9046Y52416D02*
X8500Y51870D01*
X9500Y47870D02*
X9500Y49159D01*
X11049Y50707D01*
X980Y51390D02*
X980Y61350D01*
X1500Y61870D01*
X10270Y63465D02*
X11047Y62688D01*
X10270Y64043D02*
X10270Y63465D01*
X10500Y67870D02*
X11228Y67142D01*
X10709Y52416D02*
X9046Y52416D01*
X10769Y46601D02*
X9500Y47870D01*
X10991Y60341D02*
X9029Y60341D01*
X10991Y60341D02*
X11692Y59640D01*
X11000Y48620D02*
X11251Y48370D01*
X11047Y60398D02*
X10991Y60341D01*
X11047Y62688D02*
X11047Y60398D01*
X11049Y50707D02*
X11049Y52076D01*
X10709Y52416D01*
X11228Y65001D02*
X10270Y64043D01*
X11228Y67142D02*
X11228Y65001D01*
X11251Y48370D02*
X11250Y47370D01*
X11692Y50312D02*
X10000Y48620D01*
X11692Y59640D02*
X11692Y50312D01*
X11750Y65620D02*
X11751Y64870D01*
X10750Y63870D01*
X12750Y63870D02*
X14000Y62621D01*
X12750Y65620D02*
X12750Y63870D01*
X13000Y46601D02*
X10769Y46601D01*
X13000Y46601D02*
X13000Y46370D01*
X13231Y46601D02*
X13000Y46601D01*
X13462Y46832D02*
X13231Y46601D01*
X13462Y49832D02*
X13462Y46832D01*
X14000Y50370D02*
X13462Y49832D01*
X14000Y51370D02*
X14000Y50370D01*
X14000Y51370D02*
X19000Y51370D01*
X14000Y62621D02*
X14000Y51370D01*
X1500Y50870D02*
X980Y51390D01*
X1500Y69997D02*
X1250Y69748D01*
X1500Y71870D02*
X1500Y69997D01*
X15000Y44370D02*
X15000Y47370D01*
X16000Y48370D01*
X18251Y69370D02*
X17250Y68370D01*
X19000Y51370D02*
X20462Y49908D01*
X19250Y69370D02*
X18251Y69370D01*
X19250Y70370D02*
X17250Y70370D01*
X20462Y49908D02*
X25462Y49908D01*
X20984Y44870D02*
X20984Y41605D01*
X20984Y44870D02*
X26000Y44870D01*
X20984Y46329D02*
X20984Y44870D01*
X20984Y41605D02*
X20000Y40620D01*
X2500Y73870D02*
X1500Y74870D01*
X25000Y56120D02*
X26000Y57121D01*
X25462Y49908D02*
X29000Y46370D01*
X26000Y57121D02*
X27000Y57120D01*
X28150Y55971D01*
X31000Y55971D01*
X30000Y44370D02*
X30000Y45370D01*
X30594Y45965D01*
X30594Y53620D01*
X31000Y54822D02*
X31000Y55971D01*
X31000Y60370D01*
X31000Y61620D01*
X37500Y44870D02*
X37500Y48322D01*
X3750Y69870D02*
X3751Y72619D01*
X37500Y48322D02*
X31000Y54822D01*
X3751Y72619D02*
X2500Y73870D01*
X45121Y69619D02*
X45120Y69870D01*
X45870Y67870D02*
X45870Y68870D01*
X45121Y69619D01*
X48399Y60341D02*
X47870Y60870D01*
X48416Y52416D02*
X47870Y51870D01*
X48870Y47870D02*
X48870Y49159D01*
X50419Y50707D01*
X40350Y51390D02*
X40350Y61350D01*
X40870Y61870D01*
X49640Y63465D02*
X50417Y62688D01*
X49640Y64043D02*
X49640Y63465D01*
X49870Y67870D02*
X50598Y67142D01*
X50079Y52416D02*
X48416Y52416D01*
X50139Y46601D02*
X48870Y47870D01*
X50361Y60341D02*
X48399Y60341D01*
X50361Y60341D02*
X51062Y59640D01*
X50370Y48620D02*
X50621Y48370D01*
X50417Y60398D02*
X50361Y60341D01*
X50417Y62688D02*
X50417Y60398D01*
X50419Y50707D02*
X50419Y52076D01*
X50079Y52416D01*
X50598Y65001D02*
X49640Y64043D01*
X50598Y67142D02*
X50598Y65001D01*
X50621Y48370D02*
X50620Y47370D01*
X51062Y50312D02*
X49370Y48620D01*
X51062Y59640D02*
X51062Y50312D01*
X51120Y65620D02*
X51121Y64870D01*
X50120Y63870D01*
X52120Y63870D02*
X53370Y62621D01*
X52120Y65620D02*
X52120Y63870D01*
X52370Y46601D02*
X50139Y46601D01*
X52370Y46601D02*
X52370Y46370D01*
X52601Y46601D02*
X52370Y46601D01*
X52832Y46832D02*
X52601Y46601D01*
X52832Y49832D02*
X52832Y46832D01*
X53370Y50370D02*
X52832Y49832D01*
X53370Y51370D02*
X53370Y50370D01*
X53370Y51370D02*
X58370Y51370D01*
X53370Y62621D02*
X53370Y51370D01*
X40870Y50870D02*
X40350Y51390D01*
X40870Y69997D02*
X40620Y69748D01*
X40870Y71870D02*
X40870Y69997D01*
X54370Y44370D02*
X54370Y47370D01*
X55370Y48370D01*
X57621Y69370D02*
X56620Y68370D01*
X58370Y51370D02*
X59832Y49908D01*
X58620Y69370D02*
X57621Y69370D01*
X58620Y70370D02*
X56620Y70370D01*
X59832Y49908D02*
X64832Y49908D01*
X60354Y44870D02*
X60354Y41605D01*
X60354Y44870D02*
X65370Y44870D01*
X60354Y46329D02*
X60354Y44870D01*
X60354Y41605D02*
X59370Y40620D01*
X41870Y73870D02*
X40870Y74870D01*
X64370Y56120D02*
X65370Y57121D01*
X64832Y49908D02*
X68370Y46370D01*
X65370Y57121D02*
X66370Y57120D01*
X67520Y55971D01*
X70370Y55971D01*
X69370Y44370D02*
X69370Y45370D01*
X69965Y45965D01*
X69965Y53620D01*
X70370Y54822D02*
X70370Y55971D01*
X70370Y60370D01*
X70370Y61620D01*
X76870Y44870D02*
X76870Y48322D01*
X43120Y69870D02*
X43121Y72619D01*
X76870Y48322D02*
X70370Y54822D01*
X43121Y72619D02*
X41870Y73870D01*
D12*
G01X37500Y22250D03*
X36500Y22250D03*
X37000Y22750D03*
X76870Y22250D03*
X75870Y22250D03*
X76370Y22750D03*
X37500Y61620D03*
X36500Y61620D03*
X37000Y62120D03*
X76870Y61620D03*
X75870Y61620D03*
X76370Y62120D03*
D13*
G01X17000Y8000D03*
X2000Y15000D03*
X17250Y31000D03*
X17250Y29000D03*
X5750Y30500D03*
X3750Y30500D03*
X4000Y24500D03*
X26860Y16750D02*
X27140Y16750D01*
X26860Y15750D02*
X27140Y15750D01*
X26860Y11750D02*
X27140Y11750D01*
X26860Y13750D02*
X27140Y13750D01*
X26860Y17750D02*
X27140Y17750D01*
X26860Y14750D02*
X27140Y14750D01*
X26860Y12750D02*
X27140Y12750D01*
X38000Y7000D03*
X23000Y12000D03*
X10750Y24500D03*
X12750Y24500D03*
X9250Y8000D03*
X11250Y8000D03*
X16250Y4000D03*
X34000Y3000D03*
X14000Y10000D03*
X7750Y29500D03*
X9750Y29500D03*
X7000Y9110D02*
X7000Y9390D01*
X8000Y9110D02*
X8000Y9390D01*
X10000Y9110D02*
X10000Y9390D01*
X9000Y9110D02*
X9000Y9390D01*
X25000Y16750D03*
X25000Y14750D03*
X23000Y11000D03*
X29250Y23000D03*
X29000Y7000D03*
X13000Y7000D03*
X36500Y5500D03*
X6500Y28500D03*
X14000Y11000D03*
X13000Y6000D03*
X30000Y6000D03*
X16000Y9000D03*
X14000Y9000D03*
X31000Y3000D03*
X19000Y9000D03*
X21000Y10000D03*
X19000Y10000D03*
X30000Y5000D03*
X12610Y30825D02*
X12890Y30825D01*
X19110Y30000D02*
X19390Y30000D01*
X12610Y32175D02*
X12890Y32175D01*
X19110Y33000D02*
X19390Y33000D01*
X19110Y31000D02*
X19390Y31000D01*
X19110Y34000D02*
X19390Y34000D01*
X19110Y32000D02*
X19390Y32000D01*
X15000Y5000D03*
X13000Y5000D03*
X56370Y8000D03*
X41370Y15000D03*
X56620Y31000D03*
X56620Y29000D03*
X45120Y30500D03*
X43120Y30500D03*
X43370Y24500D03*
X66230Y16750D02*
X66510Y16750D01*
X66230Y15750D02*
X66510Y15750D01*
X66230Y11750D02*
X66510Y11750D01*
X66230Y13750D02*
X66510Y13750D01*
X66230Y17750D02*
X66510Y17750D01*
X66230Y14750D02*
X66510Y14750D01*
X66230Y12750D02*
X66510Y12750D01*
X77370Y7000D03*
X62370Y12000D03*
X50120Y24500D03*
X52120Y24500D03*
X48620Y8000D03*
X50620Y8000D03*
X55620Y4000D03*
X73370Y3000D03*
X53370Y10000D03*
X47120Y29500D03*
X49120Y29500D03*
X46370Y9110D02*
X46370Y9390D01*
X47370Y9110D02*
X47370Y9390D01*
X49370Y9110D02*
X49370Y9390D01*
X48370Y9110D02*
X48370Y9390D01*
X64370Y16750D03*
X64370Y14750D03*
X62370Y11000D03*
X68620Y23000D03*
X68370Y7000D03*
X52370Y7000D03*
X75870Y5500D03*
X45870Y28500D03*
X53370Y11000D03*
X52370Y6000D03*
X69370Y6000D03*
X55370Y9000D03*
X53370Y9000D03*
X70370Y3000D03*
X58370Y9000D03*
X60370Y10000D03*
X58370Y10000D03*
X69370Y5000D03*
X51980Y30825D02*
X52260Y30825D01*
X58480Y30000D02*
X58760Y30000D01*
X51980Y32175D02*
X52260Y32175D01*
X58480Y33000D02*
X58760Y33000D01*
X58480Y31000D02*
X58760Y31000D01*
X58480Y34000D02*
X58760Y34000D01*
X58480Y32000D02*
X58760Y32000D01*
X54370Y5000D03*
X52370Y5000D03*
X17000Y47370D03*
X2000Y54370D03*
X17250Y70370D03*
X17250Y68370D03*
X5750Y69870D03*
X3750Y69870D03*
X4000Y63870D03*
X26860Y56120D02*
X27140Y56120D01*
X26860Y55120D02*
X27140Y55120D01*
X26860Y51120D02*
X27140Y51120D01*
X26860Y53120D02*
X27140Y53120D01*
X26860Y57120D02*
X27140Y57120D01*
X26860Y54120D02*
X27140Y54120D01*
X26860Y52120D02*
X27140Y52120D01*
X38000Y46370D03*
X23000Y51370D03*
X10750Y63870D03*
X12750Y63870D03*
X9250Y47370D03*
X11250Y47370D03*
X16250Y43370D03*
X34000Y42370D03*
X14000Y49370D03*
X7750Y68870D03*
X9750Y68870D03*
X7000Y48480D02*
X7000Y48760D01*
X8000Y48480D02*
X8000Y48760D01*
X10000Y48480D02*
X10000Y48760D01*
X9000Y48480D02*
X9000Y48760D01*
X25000Y56120D03*
X25000Y54120D03*
X23000Y50370D03*
X29250Y62370D03*
X29000Y46370D03*
X13000Y46370D03*
X36500Y44870D03*
X6500Y67870D03*
X14000Y50370D03*
X13000Y45370D03*
X30000Y45370D03*
X16000Y48370D03*
X14000Y48370D03*
X31000Y42370D03*
X19000Y48370D03*
X21000Y49370D03*
X19000Y49370D03*
X30000Y44370D03*
X12610Y70195D02*
X12890Y70195D01*
X19110Y69370D02*
X19390Y69370D01*
X12610Y71545D02*
X12890Y71545D01*
X19110Y72370D02*
X19390Y72370D01*
X19110Y70370D02*
X19390Y70370D01*
X19110Y73370D02*
X19390Y73370D01*
X19110Y71370D02*
X19390Y71370D01*
X15000Y44370D03*
X13000Y44370D03*
X56370Y47370D03*
X41370Y54370D03*
X56620Y70370D03*
X56620Y68370D03*
X45120Y69870D03*
X43120Y69870D03*
X43370Y63870D03*
X66230Y56120D02*
X66510Y56120D01*
X66230Y55120D02*
X66510Y55120D01*
X66230Y51120D02*
X66510Y51120D01*
X66230Y53120D02*
X66510Y53120D01*
X66230Y57120D02*
X66510Y57120D01*
X66230Y54120D02*
X66510Y54120D01*
X66230Y52120D02*
X66510Y52120D01*
X77370Y46370D03*
X62370Y51370D03*
X50120Y63870D03*
X52120Y63870D03*
X48620Y47370D03*
X50620Y47370D03*
X55620Y43370D03*
X73370Y42370D03*
X53370Y49370D03*
X47120Y68870D03*
X49120Y68870D03*
X46370Y48480D02*
X46370Y48760D01*
X47370Y48480D02*
X47370Y48760D01*
X49370Y48480D02*
X49370Y48760D01*
X48370Y48480D02*
X48370Y48760D01*
X64370Y56120D03*
X64370Y54120D03*
X62370Y50370D03*
X68620Y62370D03*
X68370Y46370D03*
X52370Y46370D03*
X75870Y44870D03*
X45870Y67870D03*
X53370Y50370D03*
X52370Y45370D03*
X69370Y45370D03*
X55370Y48370D03*
X53370Y48370D03*
X70370Y42370D03*
X58370Y48370D03*
X60370Y49370D03*
X58370Y49370D03*
X69370Y44370D03*
X51980Y70195D02*
X52260Y70195D01*
X58480Y69370D02*
X58760Y69370D01*
X51980Y71545D02*
X52260Y71545D01*
X58480Y72370D02*
X58760Y72370D01*
X58480Y70370D02*
X58760Y70370D01*
X58480Y73370D02*
X58760Y73370D01*
X58480Y71370D02*
X58760Y71370D01*
X54370Y44370D03*
X52370Y44370D03*
D14*
G01X10750Y26025D02*
X10750Y26475D01*
X11750Y26025D02*
X11750Y26475D01*
X5750Y26025D02*
X5750Y26475D01*
X9750Y26025D02*
X9750Y26475D01*
X7750Y26025D02*
X7750Y26475D01*
X4750Y26025D02*
X4750Y26475D01*
X8750Y26025D02*
X8750Y26475D01*
X6750Y26025D02*
X6750Y26475D01*
X50120Y26025D02*
X50120Y26475D01*
X51120Y26025D02*
X51120Y26475D01*
X45120Y26025D02*
X45120Y26475D01*
X49120Y26025D02*
X49120Y26475D01*
X47120Y26025D02*
X47120Y26475D01*
X44120Y26025D02*
X44120Y26475D01*
X48120Y26025D02*
X48120Y26475D01*
X46120Y26025D02*
X46120Y26475D01*
X10750Y65395D02*
X10750Y65845D01*
X11750Y65395D02*
X11750Y65845D01*
X5750Y65395D02*
X5750Y65845D01*
X9750Y65395D02*
X9750Y65845D01*
X7750Y65395D02*
X7750Y65845D01*
X4750Y65395D02*
X4750Y65845D01*
X8750Y65395D02*
X8750Y65845D01*
X6750Y65395D02*
X6750Y65845D01*
X50120Y65395D02*
X50120Y65845D01*
X51120Y65395D02*
X51120Y65845D01*
X45120Y65395D02*
X45120Y65845D01*
X49120Y65395D02*
X49120Y65845D01*
X47120Y65395D02*
X47120Y65845D01*
X44120Y65395D02*
X44120Y65845D01*
X48120Y65395D02*
X48120Y65845D01*
X46120Y65395D02*
X46120Y65845D01*
D15*
G01X11469Y36250D03*
X11469Y37549D03*
X10484Y36250D03*
X9500Y36250D03*
X9500Y37549D03*
X10484Y37549D03*
X50839Y36250D03*
X50839Y37549D03*
X49854Y36250D03*
X48870Y36250D03*
X48870Y37549D03*
X49854Y37549D03*
X11469Y75620D03*
X11469Y76919D03*
X10484Y75620D03*
X9500Y75620D03*
X9500Y76919D03*
X10484Y76919D03*
X50839Y75620D03*
X50839Y76919D03*
X49854Y75620D03*
X48870Y75620D03*
X48870Y76919D03*
X49854Y76919D03*
D16*
G01X3450Y5250D02*
X3050Y5250D01*
X3450Y8250D02*
X3050Y8250D01*
X1450Y5250D02*
X1050Y5250D01*
X1450Y8250D02*
X1050Y8250D01*
X4500Y21500D03*
X9500Y21500D03*
X9500Y12500D03*
X7500Y12500D03*
X7500Y11500D03*
X8500Y11500D03*
X5500Y22500D03*
X4500Y11500D03*
X8500Y12500D03*
X1500Y21500D03*
X6500Y11500D03*
X10500Y21500D03*
X8500Y22500D03*
X3500Y21500D03*
X2500Y21500D03*
X10500Y11500D03*
X1500Y12500D03*
X5500Y12500D03*
X8500Y21500D03*
X4500Y12500D03*
X7500Y22500D03*
X7500Y21500D03*
X9500Y11500D03*
X2500Y12500D03*
X9500Y22500D03*
X6500Y21500D03*
X4500Y22500D03*
X6500Y22500D03*
X3500Y22500D03*
X3500Y11500D03*
X1500Y11500D03*
X6500Y12500D03*
X5500Y21500D03*
X3500Y12500D03*
X2500Y22500D03*
X5500Y11500D03*
X2500Y11500D03*
X10500Y12500D03*
X1500Y22500D03*
X28200Y2500D02*
X27800Y2500D01*
X28200Y5500D02*
X27800Y5500D01*
X26200Y2500D02*
X25800Y2500D01*
X26200Y5500D02*
X25800Y5500D01*
X42820Y5250D02*
X42420Y5250D01*
X42820Y8250D02*
X42420Y8250D01*
X40820Y5250D02*
X40420Y5250D01*
X40820Y8250D02*
X40420Y8250D01*
X43870Y21500D03*
X48870Y21500D03*
X48870Y12500D03*
X46870Y12500D03*
X46870Y11500D03*
X47870Y11500D03*
X44870Y22500D03*
X43870Y11500D03*
X47870Y12500D03*
X40870Y21500D03*
X45870Y11500D03*
X49870Y21500D03*
X47870Y22500D03*
X42870Y21500D03*
X41870Y21500D03*
X49870Y11500D03*
X40870Y12500D03*
X44870Y12500D03*
X47870Y21500D03*
X43870Y12500D03*
X46870Y22500D03*
X46870Y21500D03*
X48870Y11500D03*
X41870Y12500D03*
X48870Y22500D03*
X45870Y21500D03*
X43870Y22500D03*
X45870Y22500D03*
X42870Y22500D03*
X42870Y11500D03*
X40870Y11500D03*
X45870Y12500D03*
X44870Y21500D03*
X42870Y12500D03*
X41870Y22500D03*
X44870Y11500D03*
X41870Y11500D03*
X49870Y12500D03*
X40870Y22500D03*
X67570Y2500D02*
X67170Y2500D01*
X67570Y5500D02*
X67170Y5500D01*
X65570Y2500D02*
X65170Y2500D01*
X65570Y5500D02*
X65170Y5500D01*
X3450Y44620D02*
X3050Y44620D01*
X3450Y47620D02*
X3050Y47620D01*
X1450Y44620D02*
X1050Y44620D01*
X1450Y47620D02*
X1050Y47620D01*
X4500Y60870D03*
X9500Y60870D03*
X9500Y51870D03*
X7500Y51870D03*
X7500Y50870D03*
X8500Y50870D03*
X5500Y61870D03*
X4500Y50870D03*
X8500Y51870D03*
X1500Y60870D03*
X6500Y50870D03*
X10500Y60870D03*
X8500Y61870D03*
X3500Y60870D03*
X2500Y60870D03*
X10500Y50870D03*
X1500Y51870D03*
X5500Y51870D03*
X8500Y60870D03*
X4500Y51870D03*
X7500Y61870D03*
X7500Y60870D03*
X9500Y50870D03*
X2500Y51870D03*
X9500Y61870D03*
X6500Y60870D03*
X4500Y61870D03*
X6500Y61870D03*
X3500Y61870D03*
X3500Y50870D03*
X1500Y50870D03*
X6500Y51870D03*
X5500Y60870D03*
X3500Y51870D03*
X2500Y61870D03*
X5500Y50870D03*
X2500Y50870D03*
X10500Y51870D03*
X1500Y61870D03*
X28200Y41870D02*
X27800Y41870D01*
X28200Y44870D02*
X27800Y44870D01*
X26200Y41870D02*
X25800Y41870D01*
X26200Y44870D02*
X25800Y44870D01*
X42820Y44620D02*
X42420Y44620D01*
X42820Y47620D02*
X42420Y47620D01*
X40820Y44620D02*
X40420Y44620D01*
X40820Y47620D02*
X40420Y47620D01*
X43870Y60870D03*
X48870Y60870D03*
X48870Y51870D03*
X46870Y51870D03*
X46870Y50870D03*
X47870Y50870D03*
X44870Y61870D03*
X43870Y50870D03*
X47870Y51870D03*
X40870Y60870D03*
X45870Y50870D03*
X49870Y60870D03*
X47870Y61870D03*
X42870Y60870D03*
X41870Y60870D03*
X49870Y50870D03*
X40870Y51870D03*
X44870Y51870D03*
X47870Y60870D03*
X43870Y51870D03*
X46870Y61870D03*
X46870Y60870D03*
X48870Y50870D03*
X41870Y51870D03*
X48870Y61870D03*
X45870Y60870D03*
X43870Y61870D03*
X45870Y61870D03*
X42870Y61870D03*
X42870Y50870D03*
X40870Y50870D03*
X45870Y51870D03*
X44870Y60870D03*
X42870Y51870D03*
X41870Y61870D03*
X44870Y50870D03*
X41870Y50870D03*
X49870Y51870D03*
X40870Y61870D03*
X67570Y41870D02*
X67170Y41870D01*
X67570Y44870D02*
X67170Y44870D01*
X65570Y41870D02*
X65170Y41870D01*
X65570Y44870D02*
X65170Y44870D01*
D17*
G01X20000Y7109D02*
X20000Y6809D01*
X21969Y7109D02*
X21969Y6809D01*
X20000Y1400D02*
X20000Y1100D01*
X21969Y1400D02*
X21969Y1100D01*
X20984Y7109D02*
X20984Y6809D01*
X59370Y7109D02*
X59370Y6809D01*
X61339Y7109D02*
X61339Y6809D01*
X59370Y1400D02*
X59370Y1100D01*
X61339Y1400D02*
X61339Y1100D01*
X60354Y7109D02*
X60354Y6809D01*
X20000Y46479D02*
X20000Y46179D01*
X21969Y46479D02*
X21969Y46179D01*
X20000Y40770D02*
X20000Y40470D01*
X21969Y40770D02*
X21969Y40470D01*
X20984Y46479D02*
X20984Y46179D01*
X59370Y46479D02*
X59370Y46179D01*
X61339Y46479D02*
X61339Y46179D01*
X59370Y40770D02*
X59370Y40470D01*
X61339Y40770D02*
X61339Y40470D01*
X60354Y46479D02*
X60354Y46179D01*
D18*
G01X31000Y21000D03*
X10000Y30500D03*
X6500Y29500D03*
X1500Y35500D03*
X70370Y21000D03*
X49370Y30500D03*
X45870Y29500D03*
X40870Y35500D03*
X31000Y60370D03*
X10000Y69870D03*
X6500Y68870D03*
X1500Y74870D03*
X70370Y60370D03*
X49370Y69870D03*
X45870Y68870D03*
X40870Y74870D03*
D19*
G01X2625Y32500D02*
X2375Y32500D01*
X2625Y33500D02*
X2375Y33500D01*
X41995Y32500D02*
X41745Y32500D01*
X41995Y33500D02*
X41745Y33500D01*
X2625Y71870D02*
X2375Y71870D01*
X2625Y72870D02*
X2375Y72870D01*
X41995Y71870D02*
X41745Y71870D01*
X41995Y72870D02*
X41745Y72870D01*
D20*
G01X1250Y30378D03*
X28969Y37000D03*
X34968Y37000D03*
X6969Y37000D03*
X40620Y30378D03*
X68339Y37000D03*
X74339Y37000D03*
X46339Y37000D03*
X1250Y69748D03*
X28969Y76370D03*
X34968Y76370D03*
X6969Y76370D03*
X40620Y69748D03*
X68339Y76370D03*
X74339Y76370D03*
X46339Y76370D03*
D21*
G01X34000Y22250D03*
X31000Y22250D03*
X31000Y29250D03*
X34000Y29250D03*
X34000Y26250D03*
X73370Y22250D03*
X70370Y22250D03*
X70370Y29250D03*
X73370Y29250D03*
X73370Y26250D03*
X34000Y61620D03*
X31000Y61620D03*
X31000Y68620D03*
X34000Y68620D03*
X34000Y65620D03*
X73370Y61620D03*
X70370Y61620D03*
X70370Y68620D03*
X73370Y68620D03*
X73370Y65620D03*
D22*
G01X36500Y14250D03*
X30594Y14250D03*
X29500Y10250D03*
X37750Y18250D03*
X37750Y10250D03*
X29500Y18250D03*
X11500Y1250D03*
X5000Y9250D03*
X27447Y33980D02*
X27053Y33980D01*
X33085Y31500D02*
X32691Y31500D01*
X30266Y31500D02*
X29872Y31500D01*
X30266Y33980D02*
X29872Y33980D01*
X27447Y31500D02*
X27053Y31500D01*
X33085Y33980D02*
X32691Y33980D01*
X75870Y14250D03*
X69965Y14250D03*
X68870Y10250D03*
X77120Y18250D03*
X77120Y10250D03*
X68870Y18250D03*
X50870Y1250D03*
X44370Y9250D03*
X66817Y33980D02*
X66423Y33980D01*
X72455Y31500D02*
X72061Y31500D01*
X69636Y31500D02*
X69242Y31500D01*
X69636Y33980D02*
X69242Y33980D01*
X66817Y31500D02*
X66423Y31500D01*
X72455Y33980D02*
X72061Y33980D01*
X36500Y53620D03*
X30594Y53620D03*
X29500Y49620D03*
X37750Y57620D03*
X37750Y49620D03*
X29500Y57620D03*
X11500Y40620D03*
X5000Y48620D03*
X27447Y73350D02*
X27053Y73350D01*
X33085Y70870D02*
X32691Y70870D01*
X30266Y70870D02*
X29872Y70870D01*
X30266Y73350D02*
X29872Y73350D01*
X27447Y70870D02*
X27053Y70870D01*
X33085Y73350D02*
X32691Y73350D01*
X75870Y53620D03*
X69965Y53620D03*
X68870Y49620D03*
X77120Y57620D03*
X77120Y49620D03*
X68870Y57620D03*
X50870Y40620D03*
X44370Y48620D03*
X66817Y73350D02*
X66423Y73350D01*
X72455Y70870D02*
X72061Y70870D01*
X69636Y70870D02*
X69242Y70870D01*
X69636Y73350D02*
X69242Y73350D01*
X66817Y70870D02*
X66423Y70870D01*
X72455Y73350D02*
X72061Y73350D01*
D23*
G01X12250Y28500D03*
X12250Y34500D03*
X51620Y28500D03*
X51620Y34500D03*
X12250Y67870D03*
X12250Y73870D03*
X51620Y67870D03*
X51620Y73870D03*
D24*
G01X18425Y4203D03*
X23543Y4203D03*
X57795Y4203D03*
X62913Y4203D03*
X18425Y43573D03*
X23543Y43573D03*
X57795Y43573D03*
X62913Y43573D03*
D25*
G01X23500Y26500D03*
X37500Y26500D03*
X37000Y2000D03*
X23500Y37500D03*
X2037Y25856D03*
X2037Y1762D03*
X15463Y1762D03*
X15463Y25856D03*
X37500Y37500D03*
X5000Y2000D03*
X2000Y37500D03*
X62870Y26500D03*
X76870Y26500D03*
X76370Y2000D03*
X62870Y37500D03*
X41407Y25856D03*
X41407Y1762D03*
X54833Y1762D03*
X54833Y25856D03*
X76870Y37500D03*
X44370Y2000D03*
X41370Y37500D03*
X23500Y65870D03*
X37500Y65870D03*
X37000Y41370D03*
X23500Y76870D03*
X2037Y65226D03*
X2037Y41132D03*
X15463Y41132D03*
X15463Y65226D03*
X37500Y76870D03*
X5000Y41370D03*
X2000Y76870D03*
X62870Y65870D03*
X76870Y65870D03*
X76370Y41370D03*
X62870Y76870D03*
X41407Y65226D03*
X41407Y41132D03*
X54833Y41132D03*
X54833Y65226D03*
X76870Y76870D03*
X44370Y41370D03*
X41370Y76870D03*
D26*
G01X15000Y37000D03*
X19000Y37000D03*
X54370Y37000D03*
X58370Y37000D03*
X15000Y76370D03*
X19000Y76370D03*
X54370Y76370D03*
X58370Y76370D03*
G36*
X33645Y20645D02*
X34354Y20645D01*
X34354Y21354D01*
X33645Y21354D01*
X33645Y20645D01*
G37*
G36*
X13260Y8260D02*
X12740Y8260D01*
X12740Y7740D01*
X13260Y7740D01*
X13260Y8260D01*
G37*
G36*
X5740Y14740D02*
X6260Y14740D01*
X6260Y15260D01*
X5740Y15260D01*
X5740Y14740D01*
G37*
G36*
X856Y29393D02*
X856Y28606D01*
X1643Y28606D01*
X1643Y29393D01*
X856Y29393D01*
G37*
G36*
X7740Y24240D02*
X8260Y24240D01*
X8260Y24760D01*
X7740Y24760D01*
X7740Y24240D01*
G37*
G36*
X26600Y10490D02*
X27400Y10490D01*
X27400Y11010D01*
X26600Y11010D01*
X26600Y10490D01*
G37*
G36*
X34260Y7260D02*
X33740Y7260D01*
X33740Y6740D01*
X34260Y6740D01*
X34260Y7260D01*
G37*
G36*
X27393Y37393D02*
X26606Y37393D01*
X26606Y36606D01*
X27393Y36606D01*
X27393Y37393D01*
G37*
G36*
X19260Y12260D02*
X18740Y12260D01*
X18740Y11740D01*
X19260Y11740D01*
X19260Y12260D01*
G37*
G36*
X7354Y30854D02*
X6645Y30854D01*
X6645Y30145D01*
X7354Y30145D01*
X7354Y30854D01*
G37*
G36*
X12510Y4260D02*
X11990Y4260D01*
X11990Y3740D01*
X12510Y3740D01*
X12510Y4260D01*
G37*
G36*
X33260Y3260D02*
X32740Y3260D01*
X32740Y2740D01*
X33260Y2740D01*
X33260Y3260D01*
G37*
G36*
X17740Y9740D02*
X18260Y9740D01*
X18260Y10260D01*
X17740Y10260D01*
X17740Y9740D01*
G37*
G36*
X11260Y8850D02*
X11260Y9650D01*
X10740Y9650D01*
X10740Y8850D01*
X11260Y8850D01*
G37*
G36*
X10200Y22200D02*
X10800Y22200D01*
X10800Y22800D01*
X10200Y22800D01*
X10200Y22200D01*
G37*
G36*
X19260Y11260D02*
X18740Y11260D01*
X18740Y10740D01*
X19260Y10740D01*
X19260Y11260D01*
G37*
G36*
X33393Y37393D02*
X32606Y37393D01*
X32606Y36606D01*
X33393Y36606D01*
X33393Y37393D01*
G37*
G36*
X25510Y23260D02*
X24990Y23260D01*
X24990Y22740D01*
X25510Y22740D01*
X25510Y23260D01*
G37*
G36*
X25260Y7260D02*
X24740Y7260D01*
X24740Y6740D01*
X25260Y6740D01*
X25260Y7260D01*
G37*
G36*
X16740Y6740D02*
X17260Y6740D01*
X17260Y7260D01*
X16740Y7260D01*
X16740Y6740D01*
G37*
G36*
X3854Y29854D02*
X3145Y29854D01*
X3145Y29145D01*
X3854Y29145D01*
X3854Y29854D01*
G37*
G36*
X37240Y5240D02*
X37760Y5240D01*
X37760Y5760D01*
X37240Y5760D01*
X37240Y5240D01*
G37*
G36*
X10240Y28240D02*
X10760Y28240D01*
X10760Y28760D01*
X10240Y28760D01*
X10240Y28240D01*
G37*
G36*
X13025Y25750D02*
X13025Y26750D01*
X12475Y26750D01*
X12475Y25750D01*
X13025Y25750D01*
G37*
G36*
X17740Y10740D02*
X18260Y10740D01*
X18260Y11260D01*
X17740Y11260D01*
X17740Y10740D01*
G37*
G36*
X16740Y5740D02*
X17260Y5740D01*
X17260Y6260D01*
X16740Y6260D01*
X16740Y5740D01*
G37*
G36*
X1145Y32854D02*
X1145Y32145D01*
X1854Y32145D01*
X1854Y32854D01*
X1145Y32854D01*
G37*
G36*
X33740Y5740D02*
X34260Y5740D01*
X34260Y6260D01*
X33740Y6260D01*
X33740Y5740D01*
G37*
G36*
X30260Y3260D02*
X29740Y3260D01*
X29740Y2740D01*
X30260Y2740D01*
X30260Y3260D01*
G37*
G36*
X8750Y31500D02*
X8750Y35500D01*
X4250Y35500D01*
X4250Y31500D01*
X8750Y31500D01*
G37*
G36*
X10700Y31500D02*
X10700Y35500D01*
X8300Y35500D01*
X8300Y31500D01*
X10700Y31500D01*
G37*
G36*
X3000Y34125D02*
X3000Y34875D01*
X2000Y34875D01*
X2000Y34125D01*
X3000Y34125D01*
G37*
G36*
X22740Y8740D02*
X23260Y8740D01*
X23260Y9260D01*
X22740Y9260D01*
X22740Y8740D01*
G37*
G36*
X33740Y4740D02*
X34260Y4740D01*
X34260Y5260D01*
X33740Y5260D01*
X33740Y4740D01*
G37*
G36*
X5393Y37393D02*
X4606Y37393D01*
X4606Y36606D01*
X5393Y36606D01*
X5393Y37393D01*
G37*
G36*
X18850Y29260D02*
X18850Y28740D01*
X19650Y28740D01*
X19650Y29260D01*
X18850Y29260D01*
G37*
G36*
X73015Y20645D02*
X73724Y20645D01*
X73724Y21354D01*
X73015Y21354D01*
X73015Y20645D01*
G37*
G36*
X52630Y8260D02*
X52110Y8260D01*
X52110Y7740D01*
X52630Y7740D01*
X52630Y8260D01*
G37*
G36*
X45110Y14740D02*
X45630Y14740D01*
X45630Y15260D01*
X45110Y15260D01*
X45110Y14740D01*
G37*
G36*
X40226Y29393D02*
X40226Y28606D01*
X41013Y28606D01*
X41013Y29393D01*
X40226Y29393D01*
G37*
G36*
X47110Y24240D02*
X47630Y24240D01*
X47630Y24760D01*
X47110Y24760D01*
X47110Y24240D01*
G37*
G36*
X65970Y10490D02*
X66770Y10490D01*
X66770Y11010D01*
X65970Y11010D01*
X65970Y10490D01*
G37*
G36*
X73630Y7260D02*
X73110Y7260D01*
X73110Y6740D01*
X73630Y6740D01*
X73630Y7260D01*
G37*
G36*
X66763Y37393D02*
X65976Y37393D01*
X65976Y36606D01*
X66763Y36606D01*
X66763Y37393D01*
G37*
G36*
X58630Y12260D02*
X58110Y12260D01*
X58110Y11740D01*
X58630Y11740D01*
X58630Y12260D01*
G37*
G36*
X46724Y30854D02*
X46015Y30854D01*
X46015Y30145D01*
X46724Y30145D01*
X46724Y30854D01*
G37*
G36*
X51880Y4260D02*
X51360Y4260D01*
X51360Y3740D01*
X51880Y3740D01*
X51880Y4260D01*
G37*
G36*
X72630Y3260D02*
X72110Y3260D01*
X72110Y2740D01*
X72630Y2740D01*
X72630Y3260D01*
G37*
G36*
X57110Y9740D02*
X57630Y9740D01*
X57630Y10260D01*
X57110Y10260D01*
X57110Y9740D01*
G37*
G36*
X50630Y8850D02*
X50630Y9650D01*
X50110Y9650D01*
X50110Y8850D01*
X50630Y8850D01*
G37*
G36*
X49570Y22200D02*
X50170Y22200D01*
X50170Y22800D01*
X49570Y22800D01*
X49570Y22200D01*
G37*
G36*
X58630Y11260D02*
X58110Y11260D01*
X58110Y10740D01*
X58630Y10740D01*
X58630Y11260D01*
G37*
G36*
X72763Y37393D02*
X71976Y37393D01*
X71976Y36606D01*
X72763Y36606D01*
X72763Y37393D01*
G37*
G36*
X64880Y23260D02*
X64360Y23260D01*
X64360Y22740D01*
X64880Y22740D01*
X64880Y23260D01*
G37*
G36*
X64630Y7260D02*
X64110Y7260D01*
X64110Y6740D01*
X64630Y6740D01*
X64630Y7260D01*
G37*
G36*
X56110Y6740D02*
X56630Y6740D01*
X56630Y7260D01*
X56110Y7260D01*
X56110Y6740D01*
G37*
G36*
X43224Y29854D02*
X42515Y29854D01*
X42515Y29145D01*
X43224Y29145D01*
X43224Y29854D01*
G37*
G36*
X76610Y5240D02*
X77130Y5240D01*
X77130Y5760D01*
X76610Y5760D01*
X76610Y5240D01*
G37*
G36*
X49610Y28240D02*
X50130Y28240D01*
X50130Y28760D01*
X49610Y28760D01*
X49610Y28240D01*
G37*
G36*
X52395Y25750D02*
X52395Y26750D01*
X51845Y26750D01*
X51845Y25750D01*
X52395Y25750D01*
G37*
G36*
X57110Y10740D02*
X57630Y10740D01*
X57630Y11260D01*
X57110Y11260D01*
X57110Y10740D01*
G37*
G36*
X56110Y5740D02*
X56630Y5740D01*
X56630Y6260D01*
X56110Y6260D01*
X56110Y5740D01*
G37*
G36*
X40515Y32854D02*
X40515Y32145D01*
X41224Y32145D01*
X41224Y32854D01*
X40515Y32854D01*
G37*
G36*
X73110Y5740D02*
X73630Y5740D01*
X73630Y6260D01*
X73110Y6260D01*
X73110Y5740D01*
G37*
G36*
X69630Y3260D02*
X69110Y3260D01*
X69110Y2740D01*
X69630Y2740D01*
X69630Y3260D01*
G37*
G36*
X48120Y31500D02*
X48120Y35500D01*
X43620Y35500D01*
X43620Y31500D01*
X48120Y31500D01*
G37*
G36*
X50070Y31500D02*
X50070Y35500D01*
X47670Y35500D01*
X47670Y31500D01*
X50070Y31500D01*
G37*
G36*
X42370Y34125D02*
X42370Y34875D01*
X41370Y34875D01*
X41370Y34125D01*
X42370Y34125D01*
G37*
G36*
X62110Y8740D02*
X62630Y8740D01*
X62630Y9260D01*
X62110Y9260D01*
X62110Y8740D01*
G37*
G36*
X73110Y4740D02*
X73630Y4740D01*
X73630Y5260D01*
X73110Y5260D01*
X73110Y4740D01*
G37*
G36*
X44763Y37393D02*
X43976Y37393D01*
X43976Y36606D01*
X44763Y36606D01*
X44763Y37393D01*
G37*
G36*
X58220Y29260D02*
X58220Y28740D01*
X59020Y28740D01*
X59020Y29260D01*
X58220Y29260D01*
G37*
G36*
X33645Y60015D02*
X34354Y60015D01*
X34354Y60724D01*
X33645Y60724D01*
X33645Y60015D01*
G37*
G36*
X13260Y47630D02*
X12740Y47630D01*
X12740Y47110D01*
X13260Y47110D01*
X13260Y47630D01*
G37*
G36*
X5740Y54110D02*
X6260Y54110D01*
X6260Y54630D01*
X5740Y54630D01*
X5740Y54110D01*
G37*
G36*
X856Y68763D02*
X856Y67976D01*
X1643Y67976D01*
X1643Y68763D01*
X856Y68763D01*
G37*
G36*
X7740Y63610D02*
X8260Y63610D01*
X8260Y64130D01*
X7740Y64130D01*
X7740Y63610D01*
G37*
G36*
X26600Y49860D02*
X27400Y49860D01*
X27400Y50380D01*
X26600Y50380D01*
X26600Y49860D01*
G37*
G36*
X34260Y46630D02*
X33740Y46630D01*
X33740Y46110D01*
X34260Y46110D01*
X34260Y46630D01*
G37*
G36*
X27393Y76763D02*
X26606Y76763D01*
X26606Y75976D01*
X27393Y75976D01*
X27393Y76763D01*
G37*
G36*
X19260Y51630D02*
X18740Y51630D01*
X18740Y51110D01*
X19260Y51110D01*
X19260Y51630D01*
G37*
G36*
X7354Y70224D02*
X6645Y70224D01*
X6645Y69515D01*
X7354Y69515D01*
X7354Y70224D01*
G37*
G36*
X12510Y43630D02*
X11990Y43630D01*
X11990Y43110D01*
X12510Y43110D01*
X12510Y43630D01*
G37*
G36*
X33260Y42630D02*
X32740Y42630D01*
X32740Y42110D01*
X33260Y42110D01*
X33260Y42630D01*
G37*
G36*
X17740Y49110D02*
X18260Y49110D01*
X18260Y49630D01*
X17740Y49630D01*
X17740Y49110D01*
G37*
G36*
X11260Y48220D02*
X11260Y49020D01*
X10740Y49020D01*
X10740Y48220D01*
X11260Y48220D01*
G37*
G36*
X10200Y61570D02*
X10800Y61570D01*
X10800Y62170D01*
X10200Y62170D01*
X10200Y61570D01*
G37*
G36*
X19260Y50630D02*
X18740Y50630D01*
X18740Y50110D01*
X19260Y50110D01*
X19260Y50630D01*
G37*
G36*
X33393Y76763D02*
X32606Y76763D01*
X32606Y75976D01*
X33393Y75976D01*
X33393Y76763D01*
G37*
G36*
X25510Y62630D02*
X24990Y62630D01*
X24990Y62110D01*
X25510Y62110D01*
X25510Y62630D01*
G37*
G36*
X25260Y46630D02*
X24740Y46630D01*
X24740Y46110D01*
X25260Y46110D01*
X25260Y46630D01*
G37*
G36*
X16740Y46110D02*
X17260Y46110D01*
X17260Y46630D01*
X16740Y46630D01*
X16740Y46110D01*
G37*
G36*
X3854Y69224D02*
X3145Y69224D01*
X3145Y68515D01*
X3854Y68515D01*
X3854Y69224D01*
G37*
G36*
X37240Y44610D02*
X37760Y44610D01*
X37760Y45130D01*
X37240Y45130D01*
X37240Y44610D01*
G37*
G36*
X10240Y67610D02*
X10760Y67610D01*
X10760Y68130D01*
X10240Y68130D01*
X10240Y67610D01*
G37*
G36*
X13025Y65120D02*
X13025Y66120D01*
X12475Y66120D01*
X12475Y65120D01*
X13025Y65120D01*
G37*
G36*
X17740Y50110D02*
X18260Y50110D01*
X18260Y50630D01*
X17740Y50630D01*
X17740Y50110D01*
G37*
G36*
X16740Y45110D02*
X17260Y45110D01*
X17260Y45630D01*
X16740Y45630D01*
X16740Y45110D01*
G37*
G36*
X1145Y72224D02*
X1145Y71515D01*
X1854Y71515D01*
X1854Y72224D01*
X1145Y72224D01*
G37*
G36*
X33740Y45110D02*
X34260Y45110D01*
X34260Y45630D01*
X33740Y45630D01*
X33740Y45110D01*
G37*
G36*
X30260Y42630D02*
X29740Y42630D01*
X29740Y42110D01*
X30260Y42110D01*
X30260Y42630D01*
G37*
G36*
X8750Y70870D02*
X8750Y74870D01*
X4250Y74870D01*
X4250Y70870D01*
X8750Y70870D01*
G37*
G36*
X10700Y70870D02*
X10700Y74870D01*
X8300Y74870D01*
X8300Y70870D01*
X10700Y70870D01*
G37*
G36*
X3000Y73495D02*
X3000Y74245D01*
X2000Y74245D01*
X2000Y73495D01*
X3000Y73495D01*
G37*
G36*
X22740Y48110D02*
X23260Y48110D01*
X23260Y48630D01*
X22740Y48630D01*
X22740Y48110D01*
G37*
G36*
X33740Y44110D02*
X34260Y44110D01*
X34260Y44630D01*
X33740Y44630D01*
X33740Y44110D01*
G37*
G36*
X5393Y76763D02*
X4606Y76763D01*
X4606Y75976D01*
X5393Y75976D01*
X5393Y76763D01*
G37*
G36*
X18850Y68630D02*
X18850Y68110D01*
X19650Y68110D01*
X19650Y68630D01*
X18850Y68630D01*
G37*
G36*
X73015Y60015D02*
X73724Y60015D01*
X73724Y60724D01*
X73015Y60724D01*
X73015Y60015D01*
G37*
G36*
X52630Y47630D02*
X52110Y47630D01*
X52110Y47110D01*
X52630Y47110D01*
X52630Y47630D01*
G37*
G36*
X45110Y54110D02*
X45630Y54110D01*
X45630Y54630D01*
X45110Y54630D01*
X45110Y54110D01*
G37*
G36*
X40226Y68763D02*
X40226Y67976D01*
X41013Y67976D01*
X41013Y68763D01*
X40226Y68763D01*
G37*
G36*
X47110Y63610D02*
X47630Y63610D01*
X47630Y64130D01*
X47110Y64130D01*
X47110Y63610D01*
G37*
G36*
X65970Y49860D02*
X66770Y49860D01*
X66770Y50380D01*
X65970Y50380D01*
X65970Y49860D01*
G37*
G36*
X73630Y46630D02*
X73110Y46630D01*
X73110Y46110D01*
X73630Y46110D01*
X73630Y46630D01*
G37*
G36*
X66763Y76763D02*
X65976Y76763D01*
X65976Y75976D01*
X66763Y75976D01*
X66763Y76763D01*
G37*
G36*
X58630Y51630D02*
X58110Y51630D01*
X58110Y51110D01*
X58630Y51110D01*
X58630Y51630D01*
G37*
G36*
X46724Y70224D02*
X46015Y70224D01*
X46015Y69515D01*
X46724Y69515D01*
X46724Y70224D01*
G37*
G36*
X51880Y43630D02*
X51360Y43630D01*
X51360Y43110D01*
X51880Y43110D01*
X51880Y43630D01*
G37*
G36*
X72630Y42630D02*
X72110Y42630D01*
X72110Y42110D01*
X72630Y42110D01*
X72630Y42630D01*
G37*
G36*
X57110Y49110D02*
X57630Y49110D01*
X57630Y49630D01*
X57110Y49630D01*
X57110Y49110D01*
G37*
G36*
X50630Y48220D02*
X50630Y49020D01*
X50110Y49020D01*
X50110Y48220D01*
X50630Y48220D01*
G37*
G36*
X49570Y61570D02*
X50170Y61570D01*
X50170Y62170D01*
X49570Y62170D01*
X49570Y61570D01*
G37*
G36*
X58630Y50630D02*
X58110Y50630D01*
X58110Y50110D01*
X58630Y50110D01*
X58630Y50630D01*
G37*
G36*
X72763Y76763D02*
X71976Y76763D01*
X71976Y75976D01*
X72763Y75976D01*
X72763Y76763D01*
G37*
G36*
X64880Y62630D02*
X64360Y62630D01*
X64360Y62110D01*
X64880Y62110D01*
X64880Y62630D01*
G37*
G36*
X64630Y46630D02*
X64110Y46630D01*
X64110Y46110D01*
X64630Y46110D01*
X64630Y46630D01*
G37*
G36*
X56110Y46110D02*
X56630Y46110D01*
X56630Y46630D01*
X56110Y46630D01*
X56110Y46110D01*
G37*
G36*
X43224Y69224D02*
X42515Y69224D01*
X42515Y68515D01*
X43224Y68515D01*
X43224Y69224D01*
G37*
G36*
X76610Y44610D02*
X77130Y44610D01*
X77130Y45130D01*
X76610Y45130D01*
X76610Y44610D01*
G37*
G36*
X49610Y67610D02*
X50130Y67610D01*
X50130Y68130D01*
X49610Y68130D01*
X49610Y67610D01*
G37*
G36*
X52395Y65120D02*
X52395Y66120D01*
X51845Y66120D01*
X51845Y65120D01*
X52395Y65120D01*
G37*
G36*
X57110Y50110D02*
X57630Y50110D01*
X57630Y50630D01*
X57110Y50630D01*
X57110Y50110D01*
G37*
G36*
X56110Y45110D02*
X56630Y45110D01*
X56630Y45630D01*
X56110Y45630D01*
X56110Y45110D01*
G37*
G36*
X40515Y72224D02*
X40515Y71515D01*
X41224Y71515D01*
X41224Y72224D01*
X40515Y72224D01*
G37*
G36*
X73110Y45110D02*
X73630Y45110D01*
X73630Y45630D01*
X73110Y45630D01*
X73110Y45110D01*
G37*
G36*
X69630Y42630D02*
X69110Y42630D01*
X69110Y42110D01*
X69630Y42110D01*
X69630Y42630D01*
G37*
G36*
X48120Y70870D02*
X48120Y74870D01*
X43620Y74870D01*
X43620Y70870D01*
X48120Y70870D01*
G37*
G36*
X50070Y70870D02*
X50070Y74870D01*
X47670Y74870D01*
X47670Y70870D01*
X50070Y70870D01*
G37*
G36*
X42370Y73495D02*
X42370Y74245D01*
X41370Y74245D01*
X41370Y73495D01*
X42370Y73495D01*
G37*
G36*
X62110Y48110D02*
X62630Y48110D01*
X62630Y48630D01*
X62110Y48630D01*
X62110Y48110D01*
G37*
G36*
X73110Y44110D02*
X73630Y44110D01*
X73630Y44630D01*
X73110Y44630D01*
X73110Y44110D01*
G37*
G36*
X44763Y76763D02*
X43976Y76763D01*
X43976Y75976D01*
X44763Y75976D01*
X44763Y76763D01*
G37*
G36*
X58220Y68630D02*
X58220Y68110D01*
X59020Y68110D01*
X59020Y68630D01*
X58220Y68630D01*
G37*
M02*
