%FSLAX24Y24*%
%MOIN*%
%ADD10C,0.0060*%
%ADD11C,0.0069*%
%ADD12C,0.0320*%
%ADD13C,0.0394*%
D10*
G01X32893Y12821D02*
X32893Y13179D01*
X33012Y13060D01*
X33131Y13179D02*
X33369Y12821D01*
X33131Y12821D01*
X33369Y13179D02*
X33131Y13179D01*
X33488Y12881D02*
X33488Y12940D01*
X33548Y13000D01*
X33488Y13060D02*
X33548Y13000D01*
X33488Y13119D02*
X33488Y13060D01*
X33548Y12821D02*
X33488Y12881D01*
X33548Y13000D02*
X33726Y13000D01*
X33548Y13179D02*
X33488Y13119D01*
X33726Y12821D02*
X33548Y12821D01*
X33726Y12821D02*
X33726Y13179D01*
X33548Y13179D01*
X72263Y12821D02*
X72263Y13179D01*
X72382Y13060D01*
X72501Y13179D02*
X72739Y12821D01*
X72501Y12821D01*
X72739Y13179D02*
X72501Y13179D01*
X72858Y12881D02*
X72858Y12940D01*
X72918Y13000D01*
X72858Y13060D02*
X72918Y13000D01*
X72858Y13119D02*
X72858Y13060D01*
X72918Y12821D02*
X72858Y12881D01*
X72918Y13000D02*
X73096Y13000D01*
X72918Y13179D02*
X72858Y13119D01*
X73096Y12821D02*
X72918Y12821D01*
X73096Y12821D02*
X73096Y13179D01*
X72918Y13179D01*
X32893Y52192D02*
X32893Y52549D01*
X33012Y52430D01*
X33131Y52549D02*
X33369Y52192D01*
X33131Y52192D01*
X33369Y52549D02*
X33131Y52549D01*
X33488Y52251D02*
X33488Y52311D01*
X33548Y52370D01*
X33488Y52430D02*
X33548Y52370D01*
X33488Y52489D02*
X33488Y52430D01*
X33548Y52192D02*
X33488Y52251D01*
X33548Y52370D02*
X33726Y52370D01*
X33548Y52549D02*
X33488Y52489D01*
X33726Y52192D02*
X33548Y52192D01*
X33726Y52192D02*
X33726Y52549D01*
X33548Y52549D01*
X72263Y52192D02*
X72263Y52549D01*
X72382Y52430D01*
X72501Y52549D02*
X72739Y52192D01*
X72501Y52192D01*
X72739Y52549D02*
X72501Y52549D01*
X72858Y52251D02*
X72858Y52311D01*
X72918Y52370D01*
X72858Y52430D02*
X72918Y52370D01*
X72858Y52489D02*
X72858Y52430D01*
X72918Y52192D02*
X72858Y52251D01*
X72918Y52370D02*
X73096Y52370D01*
X72918Y52549D02*
X72858Y52489D01*
X73096Y52192D02*
X72918Y52192D01*
X73096Y52192D02*
X73096Y52549D01*
X72918Y52549D01*
X35238Y13087D02*
X35298Y13028D01*
X35238Y13147D02*
X35238Y13087D01*
X35298Y13028D02*
X35476Y13028D01*
X35298Y13206D02*
X35238Y13147D01*
X35476Y12849D02*
X35476Y13206D01*
X35476Y13028D02*
X35238Y12849D01*
X35476Y13206D02*
X35298Y13206D01*
X35655Y13028D02*
X35833Y13028D01*
X35833Y12849D02*
X35595Y12849D01*
X35833Y12849D02*
X35833Y13206D01*
X35595Y13206D01*
X35952Y13206D02*
X36190Y12849D01*
X35952Y12849D01*
X36190Y13206D02*
X35952Y13206D01*
X36310Y13206D02*
X36548Y12849D01*
X36310Y12849D01*
X36548Y13206D02*
X36310Y13206D01*
X36667Y12909D02*
X36667Y13206D01*
X36726Y12849D02*
X36667Y12909D01*
X36845Y12849D02*
X36726Y12849D01*
X36905Y12909D02*
X36845Y12849D01*
X36905Y13206D02*
X36905Y12909D01*
X37024Y12909D02*
X37024Y12968D01*
X37083Y13028D01*
X37024Y13087D02*
X37083Y13028D01*
X37024Y13147D02*
X37024Y13087D01*
X37083Y12849D02*
X37024Y12909D01*
X37083Y13028D02*
X37262Y13028D01*
X37083Y13206D02*
X37024Y13147D01*
X37262Y12849D02*
X37083Y12849D01*
X37262Y12849D02*
X37262Y13206D01*
X37083Y13206D01*
X74608Y13087D02*
X74668Y13028D01*
X74608Y13147D02*
X74608Y13087D01*
X74668Y13028D02*
X74846Y13028D01*
X74668Y13206D02*
X74608Y13147D01*
X74846Y12849D02*
X74846Y13206D01*
X74846Y13028D02*
X74608Y12849D01*
X74846Y13206D02*
X74668Y13206D01*
X75025Y13028D02*
X75203Y13028D01*
X75203Y12849D02*
X74965Y12849D01*
X75203Y12849D02*
X75203Y13206D01*
X74965Y13206D01*
X75322Y13206D02*
X75561Y12849D01*
X75322Y12849D01*
X75561Y13206D02*
X75322Y13206D01*
X75680Y13206D02*
X75918Y12849D01*
X75680Y12849D01*
X75918Y13206D02*
X75680Y13206D01*
X76037Y12909D02*
X76037Y13206D01*
X76096Y12849D02*
X76037Y12909D01*
X76215Y12849D02*
X76096Y12849D01*
X76275Y12909D02*
X76215Y12849D01*
X76275Y13206D02*
X76275Y12909D01*
X76394Y12909D02*
X76394Y12968D01*
X76453Y13028D01*
X76394Y13087D02*
X76453Y13028D01*
X76394Y13147D02*
X76394Y13087D01*
X76453Y12849D02*
X76394Y12909D01*
X76453Y13028D02*
X76632Y13028D01*
X76453Y13206D02*
X76394Y13147D01*
X76632Y12849D02*
X76453Y12849D01*
X76632Y12849D02*
X76632Y13206D01*
X76453Y13206D01*
X35238Y52457D02*
X35298Y52398D01*
X35238Y52517D02*
X35238Y52457D01*
X35298Y52398D02*
X35476Y52398D01*
X35298Y52576D02*
X35238Y52517D01*
X35476Y52219D02*
X35476Y52576D01*
X35476Y52398D02*
X35238Y52219D01*
X35476Y52576D02*
X35298Y52576D01*
X35655Y52398D02*
X35833Y52398D01*
X35833Y52219D02*
X35595Y52219D01*
X35833Y52219D02*
X35833Y52576D01*
X35595Y52576D01*
X35952Y52576D02*
X36190Y52219D01*
X35952Y52219D01*
X36190Y52576D02*
X35952Y52576D01*
X36310Y52576D02*
X36548Y52219D01*
X36310Y52219D01*
X36548Y52576D02*
X36310Y52576D01*
X36667Y52279D02*
X36667Y52576D01*
X36726Y52219D02*
X36667Y52279D01*
X36845Y52219D02*
X36726Y52219D01*
X36905Y52279D02*
X36845Y52219D01*
X36905Y52576D02*
X36905Y52279D01*
X37024Y52279D02*
X37024Y52338D01*
X37083Y52398D01*
X37024Y52457D02*
X37083Y52398D01*
X37024Y52517D02*
X37024Y52457D01*
X37083Y52219D02*
X37024Y52279D01*
X37083Y52398D02*
X37262Y52398D01*
X37083Y52576D02*
X37024Y52517D01*
X37262Y52219D02*
X37083Y52219D01*
X37262Y52219D02*
X37262Y52576D01*
X37083Y52576D01*
X74608Y52457D02*
X74668Y52398D01*
X74608Y52517D02*
X74608Y52457D01*
X74668Y52398D02*
X74846Y52398D01*
X74668Y52576D02*
X74608Y52517D01*
X74846Y52219D02*
X74846Y52576D01*
X74846Y52398D02*
X74608Y52219D01*
X74846Y52576D02*
X74668Y52576D01*
X75025Y52398D02*
X75203Y52398D01*
X75203Y52219D02*
X74965Y52219D01*
X75203Y52219D02*
X75203Y52576D01*
X74965Y52576D01*
X75322Y52576D02*
X75561Y52219D01*
X75322Y52219D01*
X75561Y52576D02*
X75322Y52576D01*
X75680Y52576D02*
X75918Y52219D01*
X75680Y52219D01*
X75918Y52576D02*
X75680Y52576D01*
X76037Y52279D02*
X76037Y52576D01*
X76096Y52219D02*
X76037Y52279D01*
X76215Y52219D02*
X76096Y52219D01*
X76275Y52279D02*
X76215Y52219D01*
X76275Y52576D02*
X76275Y52279D01*
X76394Y52279D02*
X76394Y52338D01*
X76453Y52398D01*
X76394Y52457D02*
X76453Y52398D01*
X76394Y52517D02*
X76394Y52457D01*
X76453Y52219D02*
X76394Y52279D01*
X76453Y52398D02*
X76632Y52398D01*
X76453Y52576D02*
X76394Y52517D01*
X76632Y52219D02*
X76453Y52219D01*
X76632Y52219D02*
X76632Y52576D01*
X76453Y52576D01*
D11*
G01X28823Y14250D02*
X28844Y14703D01*
X28844Y13797D02*
X28823Y14250D01*
X28844Y14703D02*
X28909Y15152D01*
X28909Y13348D02*
X28844Y13797D01*
X28909Y15152D02*
X29017Y15595D01*
X29017Y12905D02*
X28909Y13348D01*
X29017Y15595D02*
X29169Y16028D01*
X29169Y12472D02*
X29017Y12905D01*
X29169Y16028D02*
X29363Y16447D01*
X29363Y12053D02*
X29169Y12472D01*
X29363Y16447D02*
X29601Y16850D01*
X29601Y11650D02*
X29363Y12053D01*
X29601Y16850D02*
X29882Y17232D01*
X29882Y11268D02*
X29601Y11650D01*
X29882Y17232D02*
X30207Y17591D01*
X30207Y10909D02*
X29882Y11268D01*
X30207Y17591D02*
X30565Y17915D01*
X30565Y10585D02*
X30207Y10909D01*
X30565Y17915D02*
X30948Y18196D01*
X30948Y10304D02*
X30565Y10585D01*
X30948Y18196D02*
X31350Y18434D01*
X31350Y10066D02*
X30948Y10304D01*
X31350Y18434D02*
X31769Y18628D01*
X31769Y9872D02*
X31350Y10066D01*
X31769Y18628D02*
X32202Y18780D01*
X32202Y9720D02*
X31769Y9872D01*
X32202Y18780D02*
X32645Y18888D01*
X32645Y9612D02*
X32202Y9720D01*
X32645Y18888D02*
X33094Y18953D01*
X33094Y9547D02*
X32645Y9612D01*
X33094Y18953D02*
X33547Y18974D01*
X33547Y9526D02*
X33094Y9547D01*
X33547Y18974D02*
X34000Y18953D01*
X34000Y9547D02*
X33547Y9526D01*
X34000Y18953D02*
X34450Y18888D01*
X34450Y9612D02*
X34000Y9547D01*
X34450Y18888D02*
X34892Y18780D01*
X34892Y9720D02*
X34450Y9612D01*
X34892Y18780D02*
X35325Y18628D01*
X35325Y9872D02*
X34892Y9720D01*
X35325Y18628D02*
X35744Y18434D01*
X35744Y10066D02*
X35325Y9872D01*
X35744Y18434D02*
X36147Y18196D01*
X36147Y10304D02*
X35744Y10066D01*
X36147Y18196D02*
X36529Y17915D01*
X36529Y10585D02*
X36147Y10304D01*
X36529Y17915D02*
X36888Y17591D01*
X36888Y10909D02*
X36529Y10585D01*
X36888Y17591D02*
X37212Y17232D01*
X37212Y11268D02*
X36888Y10909D01*
X37212Y17232D02*
X37493Y16850D01*
X37493Y11650D02*
X37212Y11268D01*
X37493Y16850D02*
X37731Y16447D01*
X37731Y12053D02*
X37493Y11650D01*
X37731Y16447D02*
X37926Y16028D01*
X37926Y12472D02*
X37731Y12053D01*
X37926Y16028D02*
X38077Y15595D01*
X38077Y12905D02*
X37926Y12472D01*
X38077Y15595D02*
X38185Y15152D01*
X38185Y13348D02*
X38077Y12905D01*
X38185Y15152D02*
X38250Y14703D01*
X38250Y13797D02*
X38185Y13348D01*
X38250Y14703D02*
X38272Y14250D01*
X38250Y13797D01*
X68193Y14250D02*
X68215Y14703D01*
X68215Y13797D02*
X68193Y14250D01*
X68215Y14703D02*
X68279Y15152D01*
X68279Y13348D02*
X68215Y13797D01*
X68279Y15152D02*
X68388Y15595D01*
X68388Y12905D02*
X68279Y13348D01*
X68388Y15595D02*
X68539Y16028D01*
X68539Y12472D02*
X68388Y12905D01*
X68539Y16028D02*
X68733Y16447D01*
X68733Y12053D02*
X68539Y12472D01*
X68733Y16447D02*
X68971Y16850D01*
X68971Y11650D02*
X68733Y12053D01*
X68971Y16850D02*
X69252Y17232D01*
X69252Y11268D02*
X68971Y11650D01*
X69252Y17232D02*
X69577Y17591D01*
X69577Y10909D02*
X69252Y11268D01*
X69577Y17591D02*
X69935Y17915D01*
X69935Y10585D02*
X69577Y10909D01*
X69935Y17915D02*
X70318Y18196D01*
X70318Y10304D02*
X69935Y10585D01*
X70318Y18196D02*
X70720Y18434D01*
X70720Y10066D02*
X70318Y10304D01*
X70720Y18434D02*
X71140Y18628D01*
X71140Y9872D02*
X70720Y10066D01*
X71140Y18628D02*
X71572Y18780D01*
X71572Y9720D02*
X71140Y9872D01*
X71572Y18780D02*
X72015Y18888D01*
X72015Y9612D02*
X71572Y9720D01*
X72015Y18888D02*
X72464Y18953D01*
X72464Y9547D02*
X72015Y9612D01*
X72464Y18953D02*
X72917Y18974D01*
X72917Y9526D02*
X72464Y9547D01*
X72917Y18974D02*
X73370Y18953D01*
X73370Y9547D02*
X72917Y9526D01*
X73370Y18953D02*
X73820Y18888D01*
X73820Y9612D02*
X73370Y9547D01*
X73820Y18888D02*
X74262Y18780D01*
X74262Y9720D02*
X73820Y9612D01*
X74262Y18780D02*
X74695Y18628D01*
X74695Y9872D02*
X74262Y9720D01*
X74695Y18628D02*
X75114Y18434D01*
X75114Y10066D02*
X74695Y9872D01*
X75114Y18434D02*
X75517Y18196D01*
X75517Y10304D02*
X75114Y10066D01*
X75517Y18196D02*
X75899Y17915D01*
X75899Y10585D02*
X75517Y10304D01*
X75899Y17915D02*
X76258Y17591D01*
X76258Y10909D02*
X75899Y10585D01*
X76258Y17591D02*
X76582Y17232D01*
X76582Y11268D02*
X76258Y10909D01*
X76582Y17232D02*
X76863Y16850D01*
X76863Y11650D02*
X76582Y11268D01*
X76863Y16850D02*
X77101Y16447D01*
X77101Y12053D02*
X76863Y11650D01*
X77101Y16447D02*
X77296Y16028D01*
X77296Y12472D02*
X77101Y12053D01*
X77296Y16028D02*
X77447Y15595D01*
X77447Y12905D02*
X77296Y12472D01*
X77447Y15595D02*
X77555Y15152D01*
X77555Y13348D02*
X77447Y12905D01*
X77555Y15152D02*
X77620Y14703D01*
X77620Y13797D02*
X77555Y13348D01*
X77620Y14703D02*
X77642Y14250D01*
X77620Y13797D01*
X28823Y53620D02*
X28844Y54073D01*
X28844Y53167D02*
X28823Y53620D01*
X28844Y54073D02*
X28909Y54522D01*
X28909Y52718D02*
X28844Y53167D01*
X28909Y54522D02*
X29017Y54965D01*
X29017Y52275D02*
X28909Y52718D01*
X29017Y54965D02*
X29169Y55398D01*
X29169Y51842D02*
X29017Y52275D01*
X29169Y55398D02*
X29363Y55817D01*
X29363Y51423D02*
X29169Y51842D01*
X29363Y55817D02*
X29601Y56220D01*
X29601Y51021D02*
X29363Y51423D01*
X29601Y56220D02*
X29882Y56602D01*
X29882Y50638D02*
X29601Y51021D01*
X29882Y56602D02*
X30207Y56961D01*
X30207Y50279D02*
X29882Y50638D01*
X30207Y56961D02*
X30565Y57285D01*
X30565Y49955D02*
X30207Y50279D01*
X30565Y57285D02*
X30948Y57566D01*
X30948Y49674D02*
X30565Y49955D01*
X30948Y57566D02*
X31350Y57804D01*
X31350Y49436D02*
X30948Y49674D01*
X31350Y57804D02*
X31769Y57999D01*
X31769Y49242D02*
X31350Y49436D01*
X31769Y57999D02*
X32202Y58150D01*
X32202Y49090D02*
X31769Y49242D01*
X32202Y58150D02*
X32645Y58258D01*
X32645Y48982D02*
X32202Y49090D01*
X32645Y58258D02*
X33094Y58323D01*
X33094Y48917D02*
X32645Y48982D01*
X33094Y58323D02*
X33547Y58344D01*
X33547Y48896D02*
X33094Y48917D01*
X33547Y58344D02*
X34000Y58323D01*
X34000Y48917D02*
X33547Y48896D01*
X34000Y58323D02*
X34450Y58258D01*
X34450Y48982D02*
X34000Y48917D01*
X34450Y58258D02*
X34892Y58150D01*
X34892Y49090D02*
X34450Y48982D01*
X34892Y58150D02*
X35325Y57999D01*
X35325Y49242D02*
X34892Y49090D01*
X35325Y57999D02*
X35744Y57804D01*
X35744Y49436D02*
X35325Y49242D01*
X35744Y57804D02*
X36147Y57566D01*
X36147Y49674D02*
X35744Y49436D01*
X36147Y57566D02*
X36529Y57285D01*
X36529Y49955D02*
X36147Y49674D01*
X36529Y57285D02*
X36888Y56961D01*
X36888Y50279D02*
X36529Y49955D01*
X36888Y56961D02*
X37212Y56602D01*
X37212Y50638D02*
X36888Y50279D01*
X37212Y56602D02*
X37493Y56220D01*
X37493Y51021D02*
X37212Y50638D01*
X37493Y56220D02*
X37731Y55817D01*
X37731Y51423D02*
X37493Y51021D01*
X37731Y55817D02*
X37926Y55398D01*
X37926Y51842D02*
X37731Y51423D01*
X37926Y55398D02*
X38077Y54965D01*
X38077Y52275D02*
X37926Y51842D01*
X38077Y54965D02*
X38185Y54522D01*
X38185Y52718D02*
X38077Y52275D01*
X38185Y54522D02*
X38250Y54073D01*
X38250Y53167D02*
X38185Y52718D01*
X38250Y54073D02*
X38272Y53620D01*
X38250Y53167D01*
X68193Y53620D02*
X68215Y54073D01*
X68215Y53167D02*
X68193Y53620D01*
X68215Y54073D02*
X68279Y54522D01*
X68279Y52718D02*
X68215Y53167D01*
X68279Y54522D02*
X68388Y54965D01*
X68388Y52275D02*
X68279Y52718D01*
X68388Y54965D02*
X68539Y55398D01*
X68539Y51842D02*
X68388Y52275D01*
X68539Y55398D02*
X68733Y55817D01*
X68733Y51423D02*
X68539Y51842D01*
X68733Y55817D02*
X68971Y56220D01*
X68971Y51021D02*
X68733Y51423D01*
X68971Y56220D02*
X69252Y56602D01*
X69252Y50638D02*
X68971Y51021D01*
X69252Y56602D02*
X69577Y56961D01*
X69577Y50279D02*
X69252Y50638D01*
X69577Y56961D02*
X69935Y57285D01*
X69935Y49955D02*
X69577Y50279D01*
X69935Y57285D02*
X70318Y57566D01*
X70318Y49674D02*
X69935Y49955D01*
X70318Y57566D02*
X70720Y57804D01*
X70720Y49436D02*
X70318Y49674D01*
X70720Y57804D02*
X71140Y57999D01*
X71140Y49242D02*
X70720Y49436D01*
X71140Y57999D02*
X71572Y58150D01*
X71572Y49090D02*
X71140Y49242D01*
X71572Y58150D02*
X72015Y58258D01*
X72015Y48982D02*
X71572Y49090D01*
X72015Y58258D02*
X72464Y58323D01*
X72464Y48917D02*
X72015Y48982D01*
X72464Y58323D02*
X72917Y58344D01*
X72917Y48896D02*
X72464Y48917D01*
X72917Y58344D02*
X73370Y58323D01*
X73370Y48917D02*
X72917Y48896D01*
X73370Y58323D02*
X73820Y58258D01*
X73820Y48982D02*
X73370Y48917D01*
X73820Y58258D02*
X74262Y58150D01*
X74262Y49090D02*
X73820Y48982D01*
X74262Y58150D02*
X74695Y57999D01*
X74695Y49242D02*
X74262Y49090D01*
X74695Y57999D02*
X75114Y57804D01*
X75114Y49436D02*
X74695Y49242D01*
X75114Y57804D02*
X75517Y57566D01*
X75517Y49674D02*
X75114Y49436D01*
X75517Y57566D02*
X75899Y57285D01*
X75899Y49955D02*
X75517Y49674D01*
X75899Y57285D02*
X76258Y56961D01*
X76258Y50279D02*
X75899Y49955D01*
X76258Y56961D02*
X76582Y56602D01*
X76582Y50638D02*
X76258Y50279D01*
X76582Y56602D02*
X76863Y56220D01*
X76863Y51021D02*
X76582Y50638D01*
X76863Y56220D02*
X77101Y55817D01*
X77101Y51423D02*
X76863Y51021D01*
X77101Y55817D02*
X77296Y55398D01*
X77296Y51842D02*
X77101Y51423D01*
X77296Y55398D02*
X77447Y54965D01*
X77447Y52275D02*
X77296Y51842D01*
X77447Y54965D02*
X77555Y54522D01*
X77555Y52718D02*
X77447Y52275D01*
X77555Y54522D02*
X77620Y54073D01*
X77620Y53167D02*
X77555Y52718D01*
X77620Y54073D02*
X77642Y53620D01*
X77620Y53167D01*
D12*
G01X21250Y24500D02*
X39000Y24500D01*
X21250Y39210D02*
X21250Y24500D01*
X60620Y24500D02*
X78370Y24500D01*
X60620Y39210D02*
X60620Y24500D01*
X21250Y63870D02*
X39000Y63870D01*
X21250Y78580D02*
X21250Y63870D01*
X60620Y63870D02*
X78370Y63870D01*
X60620Y78580D02*
X60620Y63870D01*
D13*
G01X197Y197D02*
X197Y78937D01*
X78937Y78937D01*
X78937Y197D01*
X197Y197D01*
M02*
