M48
INCH
T1C0.0250
T2C0.0320
T3C0.0340
T4C0.0354
T5C0.0400
T6C0.0433
T7C0.0512
T8C0.0550
T9C0.0551
T10C0.0748
T11C0.0787
T12C0.1000
T13C0.1102
T14C0.1181
T15C0.1260
T16C0.1500
T17C0.1575
%
G05
M72
T1
X3.6500Y2.2250
X3.7000Y2.2750
X3.7500Y2.2250
X7.5870Y2.2250
X7.6370Y2.2750
X7.6870Y2.2250
X3.6500Y6.1620
X3.7000Y6.2120
X3.7500Y6.1620
X7.5870Y6.1620
X7.6370Y6.2120
X7.6870Y6.1620
T2
X0.4500Y1.1500
X0.4500Y1.2500
X0.4500Y2.1500
X0.4500Y2.2500
X0.5500Y1.1500
X0.5500Y1.2500
X0.5500Y2.1500
X0.5500Y2.2500
X0.5750Y3.0500
X0.6000Y1.5000
X0.6500Y1.1500
X0.6500Y1.2500
X0.6500Y2.1500
X0.6500Y2.2500
X0.6500Y2.8500
X0.7000Y0.9250
X0.7500Y1.1500
X0.7500Y1.2500
X0.7500Y2.1500
X0.7500Y2.2500
X0.7750Y2.9500
X0.8000Y2.4500
X0.8000Y0.9250
X0.8500Y1.1500
X0.8500Y1.2500
X0.8500Y2.1500
X0.8500Y2.2500
X0.9000Y0.9250
X0.9250Y0.8000
X0.9500Y1.1500
X0.9500Y1.2500
X0.9500Y2.1500
X0.9500Y2.2500
X0.9750Y2.9500
X1.0000Y0.9250
X1.0500Y1.1500
X1.0500Y1.2500
X1.0500Y2.1500
X1.0500Y2.2500
X1.0500Y2.8500
X1.0750Y2.4500
X1.1000Y0.9250
X1.1250Y0.8000
X1.2250Y0.4000
X1.2750Y2.4500
X1.2750Y3.0825
X1.2750Y3.2175
X1.3000Y0.5000
X1.3000Y0.6000
X1.3000Y0.7000
X1.3000Y0.8000
X1.4000Y1.0000
X1.4000Y1.1000
X1.4000Y0.9000
X0.1500Y1.1500
X0.1500Y1.2500
X0.1500Y2.1500
X0.1500Y2.2500
X1.5000Y0.5000
X1.6000Y0.9000
X1.6250Y0.4000
X1.7000Y0.6000
X1.7000Y0.7000
X1.7000Y0.8000
X1.7250Y2.9000
X1.7250Y3.1000
X1.8000Y1.0000
X1.8000Y1.1000
X1.9000Y0.9000
X1.9000Y1.1000
X1.9000Y1.2000
X1.9000Y1.0000
X1.9250Y2.9000
X1.9250Y3.0000
X1.9250Y3.1000
X1.9250Y3.2000
X1.9250Y3.3000
X1.9250Y3.4000
X0.2000Y1.5000
X2.1000Y1.0000
X2.3000Y0.9000
X2.3000Y1.1000
X2.3000Y1.2000
X0.2500Y1.1500
X0.2500Y1.2500
X0.2500Y2.1500
X0.2500Y2.2500
X2.5000Y0.7000
X2.5000Y1.4750
X2.5000Y1.6750
X2.5250Y2.3000
X2.7000Y1.0750
X2.7000Y1.1750
X2.7000Y1.2750
X2.7000Y1.3750
X2.7000Y1.4750
X2.7000Y1.5750
X2.7000Y1.6750
X2.7000Y1.7750
X2.9000Y0.7000
X2.9250Y2.3000
X3.0000Y0.5000
X3.0000Y0.6000
X3.0000Y0.3000
X3.1000Y0.3000
X3.3000Y0.3000
X3.4000Y0.5000
X3.4000Y0.6000
X3.4000Y0.7000
X3.4000Y0.3000
X0.3500Y1.1500
X0.3500Y1.2500
X0.3500Y2.1500
X0.3500Y2.2500
X3.6500Y0.5500
X3.7500Y0.5500
X0.3750Y3.0500
X3.8000Y0.7000
X0.4000Y2.4500
X4.3870Y1.1500
X4.3870Y1.2500
X4.3870Y2.1500
X4.3870Y2.2500
X4.4870Y1.1500
X4.4870Y1.2500
X4.4870Y2.1500
X4.4870Y2.2500
X4.5120Y3.0500
X4.5370Y1.5000
X4.5870Y1.1500
X4.5870Y1.2500
X4.5870Y2.1500
X4.5870Y2.2500
X4.5870Y2.8500
X4.6370Y0.9250
X4.6870Y1.1500
X4.6870Y1.2500
X4.6870Y2.1500
X4.6870Y2.2500
X4.7120Y2.9500
X4.7370Y2.4500
X4.7370Y0.9250
X4.7870Y1.1500
X4.7870Y1.2500
X4.7870Y2.1500
X4.7870Y2.2500
X4.8370Y0.9250
X4.8620Y0.8000
X4.8870Y1.1500
X4.8870Y1.2500
X4.8870Y2.1500
X4.8870Y2.2500
X4.9120Y2.9500
X4.9370Y0.9250
X4.9870Y1.1500
X4.9870Y1.2500
X4.9870Y2.1500
X4.9870Y2.2500
X4.9870Y2.8500
X5.0120Y2.4500
X5.0370Y0.9250
X5.0620Y0.8000
X5.1620Y0.4000
X5.2120Y2.4500
X5.2120Y3.0825
X5.2120Y3.2175
X5.2370Y0.5000
X5.2370Y0.6000
X5.2370Y0.7000
X5.2370Y0.8000
X5.3370Y1.0000
X5.3370Y1.1000
X5.3370Y0.9000
X4.0870Y1.1500
X4.0870Y1.2500
X4.0870Y2.1500
X4.0870Y2.2500
X5.4370Y0.5000
X5.5370Y0.9000
X5.5620Y0.4000
X5.6370Y0.6000
X5.6370Y0.7000
X5.6370Y0.8000
X5.6620Y2.9000
X5.6620Y3.1000
X5.7370Y1.0000
X5.7370Y1.1000
X5.8370Y0.9000
X5.8370Y1.1000
X5.8370Y1.2000
X5.8370Y1.0000
X5.8620Y2.9000
X5.8620Y3.0000
X5.8620Y3.1000
X5.8620Y3.2000
X5.8620Y3.3000
X5.8620Y3.4000
X4.1370Y1.5000
X6.0370Y1.0000
X6.2370Y0.9000
X6.2370Y1.1000
X6.2370Y1.2000
X4.1870Y1.1500
X4.1870Y1.2500
X4.1870Y2.1500
X4.1870Y2.2500
X6.4370Y0.7000
X6.4370Y1.4750
X6.4370Y1.6750
X6.4620Y2.3000
X6.6370Y1.0750
X6.6370Y1.1750
X6.6370Y1.2750
X6.6370Y1.3750
X6.6370Y1.4750
X6.6370Y1.5750
X6.6370Y1.6750
X6.6370Y1.7750
X6.8370Y0.7000
X6.8620Y2.3000
X6.9370Y0.5000
X6.9370Y0.6000
X6.9370Y0.3000
X7.0370Y0.3000
X7.2370Y0.3000
X7.3370Y0.5000
X7.3370Y0.6000
X7.3370Y0.7000
X7.3370Y0.3000
X4.2870Y1.1500
X4.2870Y1.2500
X4.2870Y2.1500
X4.2870Y2.2500
X7.5870Y0.5500
X7.6870Y0.5500
X4.3120Y3.0500
X7.7370Y0.7000
X4.3370Y2.4500
X0.4500Y5.0870
X0.4500Y5.1870
X0.4500Y6.0870
X0.4500Y6.1870
X0.5500Y5.0870
X0.5500Y5.1870
X0.5500Y6.0870
X0.5500Y6.1870
X0.5750Y6.9870
X0.6000Y5.4370
X0.6500Y5.0870
X0.6500Y5.1870
X0.6500Y6.0870
X0.6500Y6.1870
X0.6500Y6.7870
X0.7000Y4.8620
X0.7500Y5.0870
X0.7500Y5.1870
X0.7500Y6.0870
X0.7500Y6.1870
X0.7750Y6.8870
X0.8000Y6.3870
X0.8000Y4.8620
X0.8500Y5.0870
X0.8500Y5.1870
X0.8500Y6.0870
X0.8500Y6.1870
X0.9000Y4.8620
X0.9250Y4.7370
X0.9500Y5.0870
X0.9500Y5.1870
X0.9500Y6.0870
X0.9500Y6.1870
X0.9750Y6.8870
X1.0000Y4.8620
X1.0500Y5.0870
X1.0500Y5.1870
X1.0500Y6.0870
X1.0500Y6.1870
X1.0500Y6.7870
X1.0750Y6.3870
X1.1000Y4.8620
X1.1250Y4.7370
X1.2250Y4.3370
X1.2750Y6.3870
X1.2750Y7.0195
X1.2750Y7.1545
X1.3000Y4.4370
X1.3000Y4.5370
X1.3000Y4.6370
X1.3000Y4.7370
X1.4000Y4.9370
X1.4000Y5.0370
X1.4000Y4.8370
X0.1500Y5.0870
X0.1500Y5.1870
X0.1500Y6.0870
X0.1500Y6.1870
X1.5000Y4.4370
X1.6000Y4.8370
X1.6250Y4.3370
X1.7000Y4.5370
X1.7000Y4.6370
X1.7000Y4.7370
X1.7250Y6.8370
X1.7250Y7.0370
X1.8000Y4.9370
X1.8000Y5.0370
X1.9000Y4.8370
X1.9000Y5.0370
X1.9000Y5.1370
X1.9000Y4.9370
X1.9250Y6.8370
X1.9250Y6.9370
X1.9250Y7.0370
X1.9250Y7.1370
X1.9250Y7.2370
X1.9250Y7.3370
X0.2000Y5.4370
X2.1000Y4.9370
X2.3000Y4.8370
X2.3000Y5.0370
X2.3000Y5.1370
X0.2500Y5.0870
X0.2500Y5.1870
X0.2500Y6.0870
X0.2500Y6.1870
X2.5000Y4.6370
X2.5000Y5.4120
X2.5000Y5.6120
X2.5250Y6.2370
X2.7000Y5.0120
X2.7000Y5.1120
X2.7000Y5.2120
X2.7000Y5.3120
X2.7000Y5.4120
X2.7000Y5.5120
X2.7000Y5.6120
X2.7000Y5.7120
X2.9000Y4.6370
X2.9250Y6.2370
X3.0000Y4.4370
X3.0000Y4.5370
X3.0000Y4.2370
X3.1000Y4.2370
X3.3000Y4.2370
X3.4000Y4.4370
X3.4000Y4.5370
X3.4000Y4.6370
X3.4000Y4.2370
X0.3500Y5.0870
X0.3500Y5.1870
X0.3500Y6.0870
X0.3500Y6.1870
X3.6500Y4.4870
X3.7500Y4.4870
X0.3750Y6.9870
X3.8000Y4.6370
X0.4000Y6.3870
X4.3870Y5.0870
X4.3870Y5.1870
X4.3870Y6.0870
X4.3870Y6.1870
X4.4870Y5.0870
X4.4870Y5.1870
X4.4870Y6.0870
X4.4870Y6.1870
X4.5120Y6.9870
X4.5370Y5.4370
X4.5870Y5.0870
X4.5870Y5.1870
X4.5870Y6.0870
X4.5870Y6.1870
X4.5870Y6.7870
X4.6370Y4.8620
X4.6870Y5.0870
X4.6870Y5.1870
X4.6870Y6.0870
X4.6870Y6.1870
X4.7120Y6.8870
X4.7370Y6.3870
X4.7370Y4.8620
X4.7870Y5.0870
X4.7870Y5.1870
X4.7870Y6.0870
X4.7870Y6.1870
X4.8370Y4.8620
X4.8620Y4.7370
X4.8870Y5.0870
X4.8870Y5.1870
X4.8870Y6.0870
X4.8870Y6.1870
X4.9120Y6.8870
X4.9370Y4.8620
X4.9870Y5.0870
X4.9870Y5.1870
X4.9870Y6.0870
X4.9870Y6.1870
X4.9870Y6.7870
X5.0120Y6.3870
X5.0370Y4.8620
X5.0620Y4.7370
X5.1620Y4.3370
X5.2120Y6.3870
X5.2120Y7.0195
X5.2120Y7.1545
X5.2370Y4.4370
X5.2370Y4.5370
X5.2370Y4.6370
X5.2370Y4.7370
X5.3370Y4.9370
X5.3370Y5.0370
X5.3370Y4.8370
X4.0870Y5.0870
X4.0870Y5.1870
X4.0870Y6.0870
X4.0870Y6.1870
X5.4370Y4.4370
X5.5370Y4.8370
X5.5620Y4.3370
X5.6370Y4.5370
X5.6370Y4.6370
X5.6370Y4.7370
X5.6620Y6.8370
X5.6620Y7.0370
X5.7370Y4.9370
X5.7370Y5.0370
X5.8370Y4.8370
X5.8370Y5.0370
X5.8370Y5.1370
X5.8370Y4.9370
X5.8620Y6.8370
X5.8620Y6.9370
X5.8620Y7.0370
X5.8620Y7.1370
X5.8620Y7.2370
X5.8620Y7.3370
X4.1370Y5.4370
X6.0370Y4.9370
X6.2370Y4.8370
X6.2370Y5.0370
X6.2370Y5.1370
X4.1870Y5.0870
X4.1870Y5.1870
X4.1870Y6.0870
X4.1870Y6.1870
X6.4370Y4.6370
X6.4370Y5.4120
X6.4370Y5.6120
X6.4620Y6.2370
X6.6370Y5.0120
X6.6370Y5.1120
X6.6370Y5.2120
X6.6370Y5.3120
X6.6370Y5.4120
X6.6370Y5.5120
X6.6370Y5.6120
X6.6370Y5.7120
X6.8370Y4.6370
X6.8620Y6.2370
X6.9370Y4.4370
X6.9370Y4.5370
X6.9370Y4.2370
X7.0370Y4.2370
X7.2370Y4.2370
X7.3370Y4.4370
X7.3370Y4.5370
X7.3370Y4.6370
X7.3370Y4.2370
X4.2870Y5.0870
X4.2870Y5.1870
X4.2870Y6.0870
X4.2870Y6.1870
X7.5870Y4.4870
X7.6870Y4.4870
X4.3120Y6.9870
X7.7370Y4.6370
X4.3370Y6.3870
T3
X0.4750Y2.6250
X0.5750Y2.6250
X0.6750Y2.6250
X0.7750Y2.6250
X0.8750Y2.6250
X0.9750Y2.6250
X1.0750Y2.6250
X1.1750Y2.6250
X1.2750Y2.6250
X4.4120Y2.6250
X4.5120Y2.6250
X4.6120Y2.6250
X4.7120Y2.6250
X4.8120Y2.6250
X4.9120Y2.6250
X5.0120Y2.6250
X5.1120Y2.6250
X5.2120Y2.6250
X0.4750Y6.5620
X0.5750Y6.5620
X0.6750Y6.5620
X0.7750Y6.5620
X0.8750Y6.5620
X0.9750Y6.5620
X1.0750Y6.5620
X1.1750Y6.5620
X1.2750Y6.5620
X4.4120Y6.5620
X4.5120Y6.5620
X4.6120Y6.5620
X4.7120Y6.5620
X4.8120Y6.5620
X4.9120Y6.5620
X5.0120Y6.5620
X5.1120Y6.5620
X5.2120Y6.5620
T4
X0.9500Y3.6250
X0.9500Y3.7549
X1.0484Y3.6250
X1.0484Y3.7549
X1.1469Y3.6250
X1.1469Y3.7549
X4.8870Y3.6250
X4.8870Y3.7549
X4.9854Y3.6250
X4.9854Y3.7549
X5.0839Y3.6250
X5.0839Y3.7549
X0.9500Y7.5620
X0.9500Y7.6919
X1.0484Y7.5620
X1.0484Y7.6919
X1.1469Y7.5620
X1.1469Y7.6919
X4.8870Y7.5620
X4.8870Y7.6919
X4.9854Y7.5620
X4.9854Y7.6919
X5.0839Y7.5620
X5.0839Y7.6919
T5
X0.1250Y0.5250
X0.1250Y0.8250
X2.6000Y0.5500
X2.6000Y0.2500
X2.8000Y0.5500
X2.8000Y0.2500
X0.3250Y0.5250
X0.3250Y0.8250
X4.0620Y0.5250
X4.0620Y0.8250
X6.5370Y0.5500
X6.5370Y0.2500
X6.7370Y0.5500
X6.7370Y0.2500
X4.2620Y0.5250
X4.2620Y0.8250
X0.1250Y4.4620
X0.1250Y4.7620
X2.6000Y4.4870
X2.6000Y4.1870
X2.8000Y4.4870
X2.8000Y4.1870
X0.3250Y4.4620
X0.3250Y4.7620
X4.0620Y4.4620
X4.0620Y4.7620
X6.5370Y4.4870
X6.5370Y4.1870
X6.7370Y4.4870
X6.7370Y4.1870
X4.2620Y4.4620
X4.2620Y4.7620
T6
X0.6500Y2.9500
X0.7000Y3.0500
X1.0000Y3.0500
X0.1500Y3.2500
X0.1500Y3.5500
X2.0000Y0.6959
X2.0000Y0.1250
X2.0984Y0.6959
X2.1969Y0.6959
X2.1969Y0.1250
X3.1000Y2.1000
X3.4000Y2.1000
X0.3500Y2.9500
X4.5870Y2.9500
X4.6370Y3.0500
X4.9370Y3.0500
X4.0870Y3.2500
X4.0870Y3.5500
X5.9370Y0.6959
X5.9370Y0.1250
X6.0354Y0.6959
X6.1339Y0.6959
X6.1339Y0.1250
X7.0370Y2.1000
X7.3370Y2.1000
X4.2870Y2.9500
X0.6500Y6.8870
X0.7000Y6.9870
X1.0000Y6.9870
X0.1500Y7.1870
X0.1500Y7.4870
X2.0000Y4.6329
X2.0000Y4.0620
X2.0984Y4.6329
X2.1969Y4.6329
X2.1969Y4.0620
X3.1000Y6.0370
X3.4000Y6.0370
X0.3500Y6.8870
X4.5870Y6.8870
X4.6370Y6.9870
X4.9370Y6.9870
X4.0870Y7.1870
X4.0870Y7.4870
X5.9370Y4.6329
X5.9370Y4.0620
X6.0354Y4.6329
X6.1339Y4.6329
X6.1339Y4.0620
X7.0370Y6.0370
X7.3370Y6.0370
X4.2870Y6.8870
T7
X0.5000Y3.7000
X0.6969Y3.7000
X0.1250Y2.9000
X0.1250Y3.0378
X2.7000Y3.7000
X2.8969Y3.7000
X3.3000Y3.7000
X3.4968Y3.7000
X4.4370Y3.7000
X4.6339Y3.7000
X4.0620Y2.9000
X4.0620Y3.0378
X6.6370Y3.7000
X6.8339Y3.7000
X7.2370Y3.7000
X7.4339Y3.7000
X0.5000Y7.6370
X0.6969Y7.6370
X0.1250Y6.8370
X0.1250Y6.9748
X2.7000Y7.6370
X2.8969Y7.6370
X3.3000Y7.6370
X3.4968Y7.6370
X4.4370Y7.6370
X4.6339Y7.6370
X4.0620Y6.8370
X4.0620Y6.9748
X6.6370Y7.6370
X6.8339Y7.6370
X7.2370Y7.6370
X7.4339Y7.6370
T8
X0.2500Y3.2500
X0.2500Y3.3500
X0.2500Y3.4500
X4.1870Y3.2500
X4.1870Y3.3500
X4.1870Y3.4500
X0.2500Y7.1870
X0.2500Y7.2870
X0.2500Y7.3870
X4.1870Y7.1870
X4.1870Y7.2870
X4.1870Y7.3870
T9
X3.1000Y2.2250
X3.1000Y2.9250
X3.4000Y2.2250
X3.4000Y2.6250
X3.4000Y2.9250
X7.0370Y2.2250
X7.0370Y2.9250
X7.3370Y2.2250
X7.3370Y2.6250
X7.3370Y2.9250
X3.1000Y6.1620
X3.1000Y6.8620
X3.4000Y6.1620
X3.4000Y6.5620
X3.4000Y6.8620
X7.0370Y6.1620
X7.0370Y6.8620
X7.3370Y6.1620
X7.3370Y6.5620
X7.3370Y6.8620
T10
X2.7250Y3.1500
X2.7250Y3.3980
X3.0069Y3.1500
X3.0069Y3.3980
X3.2888Y3.1500
X3.2888Y3.3980
X6.6620Y3.1500
X6.6620Y3.3980
X6.9439Y3.1500
X6.9439Y3.3980
X7.2258Y3.1500
X7.2258Y3.3980
X2.7250Y7.0870
X2.7250Y7.3350
X3.0069Y7.0870
X3.0069Y7.3350
X3.2888Y7.0870
X3.2888Y7.3350
X6.6620Y7.0870
X6.6620Y7.3350
X6.9439Y7.0870
X6.9439Y7.3350
X7.2258Y7.0870
X7.2258Y7.3350
T11
X0.5000Y0.9250
X1.1500Y0.1250
X2.9500Y1.0250
X2.9500Y1.8250
X3.0594Y1.4250
X3.6500Y1.4250
X3.7750Y1.0250
X3.7750Y1.8250
X4.4370Y0.9250
X5.0870Y0.1250
X6.8870Y1.0250
X6.8870Y1.8250
X6.9965Y1.4250
X7.5870Y1.4250
X7.7120Y1.0250
X7.7120Y1.8250
X0.5000Y4.8620
X1.1500Y4.0620
X2.9500Y4.9620
X2.9500Y5.7620
X3.0594Y5.3620
X3.6500Y5.3620
X3.7750Y4.9620
X3.7750Y5.7620
X4.4370Y4.8620
X5.0870Y4.0620
X6.8870Y4.9620
X6.8870Y5.7620
X6.9965Y5.3620
X7.5870Y5.3620
X7.7120Y4.9620
X7.7120Y5.7620
T12
X1.2250Y2.8500
X1.2250Y3.4500
X5.1620Y2.8500
X5.1620Y3.4500
X1.2250Y6.7870
X1.2250Y7.3870
X5.1620Y6.7870
X5.1620Y7.3870
T13
X1.8425Y0.4203
X2.3543Y0.4203
X5.7795Y0.4203
X6.2913Y0.4203
X1.8425Y4.3573
X2.3543Y4.3573
X5.7795Y4.3573
X6.2913Y4.3573
T14
X0.5000Y0.2000
X0.2000Y3.7500
X2.3500Y2.6500
X2.3500Y3.7500
X3.7000Y0.2000
X3.7500Y2.6500
X3.7500Y3.7500
X4.4370Y0.2000
X4.1370Y3.7500
X6.2870Y2.6500
X6.2870Y3.7500
X7.6370Y0.2000
X7.6870Y2.6500
X7.6870Y3.7500
X0.5000Y4.1370
X0.2000Y7.6870
X2.3500Y6.5870
X2.3500Y7.6870
X3.7000Y4.1370
X3.7500Y6.5870
X3.7500Y7.6870
X4.4370Y4.1370
X4.1370Y7.6870
X6.2870Y6.5870
X6.2870Y7.6870
X7.6370Y4.1370
X7.6870Y6.5870
X7.6870Y7.6870
T15
X1.5463Y0.1762
X1.5463Y2.5856
X0.2037Y0.1762
X0.2037Y2.5856
X5.4833Y0.1762
X5.4833Y2.5856
X4.1407Y0.1762
X4.1407Y2.5856
X1.5463Y4.1132
X1.5463Y6.5226
X0.2037Y4.1132
X0.2037Y6.5226
X5.4833Y4.1132
X5.4833Y6.5226
X4.1407Y4.1132
X4.1407Y6.5226
T16
X0.9500Y3.3500
X4.8870Y3.3500
X0.9500Y7.2870
X4.8870Y7.2870
T17
X1.5000Y3.7000
X1.9000Y3.7000
X5.4370Y3.7000
X5.8370Y3.7000
X1.5000Y7.6370
X1.9000Y7.6370
X5.4370Y7.6370
X5.8370Y7.6370
T0
M30
