%FSLAX24Y24*%
%MOIN*%
%ADD10C,0.0060*%
%ADD11C,0.0069*%
%ADD12C,0.0099*%
%ADD13C,0.0320*%
%ADD14C,0.0394*%
D10*
G01X32202Y20821D02*
X32202Y21178D01*
X32202Y21178D02*
X32380Y21178D01*
X32380Y21178D02*
X32440Y21119D01*
X32440Y21119D02*
X32440Y20880D01*
X32440Y20880D02*
X32380Y20821D01*
X32380Y20821D02*
X32202Y20821D01*
X32738Y21178D02*
X32619Y21178D01*
X32619Y21178D02*
X32559Y21119D01*
X32559Y21119D02*
X32559Y20880D01*
X32559Y20880D02*
X32619Y20821D01*
X32619Y20821D02*
X32738Y20821D01*
X32738Y20821D02*
X32797Y20880D01*
X32797Y20880D02*
X32797Y20970D01*
X32797Y20970D02*
X32738Y21029D01*
X32738Y21029D02*
X32619Y21029D01*
X32619Y21029D02*
X32559Y20970D01*
X31994Y22056D02*
X31994Y22413D01*
X31994Y22413D02*
X32172Y22413D01*
X32172Y22413D02*
X32232Y22354D01*
X32232Y22354D02*
X32232Y22294D01*
X32232Y22294D02*
X32172Y22235D01*
X32172Y22235D02*
X31994Y22235D01*
X31994Y22235D02*
X32232Y22056D01*
X32351Y22175D02*
X32529Y22175D01*
X32529Y22175D02*
X32529Y22235D01*
X32529Y22235D02*
X32470Y22294D01*
X32470Y22294D02*
X32410Y22294D01*
X32410Y22294D02*
X32351Y22235D01*
X32351Y22235D02*
X32351Y22116D01*
X32351Y22116D02*
X32410Y22056D01*
X32410Y22056D02*
X32529Y22056D01*
X32648Y22056D02*
X32648Y22443D01*
X32886Y22056D02*
X32886Y22413D01*
X32886Y22413D02*
X32767Y22294D01*
X14702Y7821D02*
X14702Y8178D01*
X14702Y8178D02*
X14880Y8178D01*
X14880Y8178D02*
X14940Y8119D01*
X14940Y8119D02*
X14940Y8059D01*
X14940Y8059D02*
X14880Y8000D01*
X14880Y8000D02*
X14702Y8000D01*
X14702Y8000D02*
X14940Y7821D01*
X15059Y8178D02*
X15297Y8178D01*
X15059Y8178D02*
X15059Y8029D01*
X15059Y8029D02*
X15238Y8029D01*
X15238Y8029D02*
X15297Y7970D01*
X15297Y7970D02*
X15297Y7880D01*
X15297Y7880D02*
X15238Y7821D01*
X15238Y7821D02*
X15059Y7821D01*
X3702Y14821D02*
X3702Y15178D01*
X3702Y15178D02*
X3880Y15178D01*
X3880Y15178D02*
X3940Y15119D01*
X3940Y15119D02*
X3940Y15059D01*
X3940Y15059D02*
X3880Y15000D01*
X3880Y15000D02*
X3702Y15000D01*
X3702Y15000D02*
X3940Y14821D01*
X4178Y14821D02*
X4178Y15178D01*
X4178Y15178D02*
X4059Y15059D01*
X702Y28210D02*
X702Y28567D01*
X702Y28329D02*
X940Y28567D01*
X761Y28388D02*
X940Y28210D01*
X1178Y28210D02*
X1178Y28567D01*
X1178Y28567D02*
X1059Y28448D01*
X17369Y29940D02*
X17428Y29880D01*
X17428Y29880D02*
X17428Y29761D01*
X17428Y29761D02*
X17369Y29702D01*
X17369Y29702D02*
X17130Y29702D01*
X17130Y29702D02*
X17071Y29761D01*
X17071Y29761D02*
X17071Y29880D01*
X17071Y29880D02*
X17130Y29940D01*
X17071Y30059D02*
X17071Y30297D01*
X17071Y30297D02*
X17428Y30059D01*
X4690Y30380D02*
X4630Y30321D01*
X4630Y30321D02*
X4511Y30321D01*
X4511Y30321D02*
X4452Y30380D01*
X4452Y30380D02*
X4452Y30619D01*
X4452Y30619D02*
X4511Y30678D01*
X4511Y30678D02*
X4630Y30678D01*
X4630Y30678D02*
X4690Y30619D01*
X4928Y30321D02*
X4928Y30678D01*
X4928Y30678D02*
X4809Y30559D01*
X5702Y24321D02*
X5702Y24678D01*
X5702Y24678D02*
X5880Y24678D01*
X5880Y24678D02*
X5940Y24619D01*
X5940Y24619D02*
X5940Y24559D01*
X5940Y24559D02*
X5880Y24500D01*
X5880Y24500D02*
X5702Y24500D01*
X5702Y24500D02*
X5940Y24321D01*
X6059Y24559D02*
X6059Y24619D01*
X6059Y24619D02*
X6119Y24678D01*
X6119Y24678D02*
X6238Y24678D01*
X6238Y24678D02*
X6297Y24619D01*
X6297Y24619D02*
X6297Y24559D01*
X6297Y24559D02*
X6059Y24321D01*
X6059Y24321D02*
X6297Y24321D01*
X8773Y35019D02*
X8833Y34960D01*
X8833Y34960D02*
X8952Y34960D01*
X8952Y34960D02*
X9011Y35019D01*
X9011Y35019D02*
X9011Y35079D01*
X9011Y35079D02*
X8952Y35138D01*
X8952Y35138D02*
X8833Y35138D01*
X8952Y35317D02*
X9011Y35257D01*
X8833Y35317D02*
X8952Y35317D01*
X8773Y35257D02*
X8833Y35317D01*
X8773Y35198D02*
X8773Y35257D01*
X8833Y35138D02*
X8773Y35198D01*
X9130Y35317D02*
X9190Y34960D01*
X9190Y34960D02*
X9250Y35138D01*
X9250Y35138D02*
X9309Y34960D01*
X9309Y34960D02*
X9369Y35317D01*
X9607Y34960D02*
X9607Y35317D01*
X9607Y35317D02*
X9488Y35198D01*
X26523Y9880D02*
X26583Y9821D01*
X26583Y9821D02*
X26702Y9821D01*
X26702Y9821D02*
X26761Y9880D01*
X26761Y9880D02*
X26761Y9940D01*
X26761Y9940D02*
X26702Y10000D01*
X26702Y10000D02*
X26583Y10000D01*
X26702Y10178D02*
X26761Y10119D01*
X26583Y10178D02*
X26702Y10178D01*
X26523Y10119D02*
X26583Y10178D01*
X26523Y10059D02*
X26523Y10119D01*
X26583Y10000D02*
X26523Y10059D01*
X26880Y9821D02*
X26880Y10178D01*
X26880Y10178D02*
X27059Y10178D01*
X27059Y10178D02*
X27119Y10119D01*
X27119Y10119D02*
X27119Y9880D01*
X27119Y9880D02*
X27059Y9821D01*
X27059Y9821D02*
X26880Y9821D01*
X27357Y9821D02*
X27357Y10178D01*
X27357Y10178D02*
X27238Y10059D01*
X35523Y6821D02*
X35523Y7178D01*
X35523Y7178D02*
X35702Y7178D01*
X35702Y7178D02*
X35761Y7119D01*
X35761Y7119D02*
X35761Y7059D01*
X35761Y7059D02*
X35702Y7000D01*
X35702Y7000D02*
X35523Y7000D01*
X35523Y7000D02*
X35761Y6821D01*
X36000Y6821D02*
X36000Y7178D01*
X36000Y7178D02*
X35880Y7059D01*
X36238Y7178D02*
X36476Y7178D01*
X36476Y7178D02*
X36238Y6821D01*
X27702Y36821D02*
X27702Y37178D01*
X27702Y36940D02*
X27940Y37178D01*
X27761Y37000D02*
X27940Y36821D01*
X28059Y37119D02*
X28119Y37178D01*
X28119Y37178D02*
X28238Y37178D01*
X28238Y37178D02*
X28297Y37119D01*
X28297Y37119D02*
X28297Y37059D01*
X28297Y37059D02*
X28238Y37000D01*
X28238Y37000D02*
X28148Y37000D01*
X28238Y37000D02*
X28297Y36940D01*
X28297Y36940D02*
X28297Y36880D01*
X28297Y36880D02*
X28238Y36821D01*
X28238Y36821D02*
X28119Y36821D01*
X28119Y36821D02*
X28059Y36880D01*
X20523Y11821D02*
X20523Y12178D01*
X20523Y12178D02*
X20702Y12178D01*
X20702Y12178D02*
X20761Y12119D01*
X20761Y12119D02*
X20761Y12059D01*
X20761Y12059D02*
X20702Y12000D01*
X20702Y12000D02*
X20523Y12000D01*
X20523Y12000D02*
X20761Y11821D01*
X21000Y11821D02*
X21000Y12178D01*
X21000Y12178D02*
X20880Y12059D01*
X21357Y11821D02*
X21357Y12178D01*
X21357Y12178D02*
X21238Y12059D01*
X8202Y30321D02*
X8202Y30678D01*
X8202Y30678D02*
X8380Y30678D01*
X8380Y30678D02*
X8440Y30619D01*
X8440Y30619D02*
X8440Y30380D01*
X8440Y30380D02*
X8380Y30321D01*
X8380Y30321D02*
X8202Y30321D01*
X8559Y30619D02*
X8619Y30678D01*
X8619Y30678D02*
X8738Y30678D01*
X8738Y30678D02*
X8797Y30619D01*
X8797Y30619D02*
X8797Y30559D01*
X8797Y30559D02*
X8738Y30500D01*
X8738Y30500D02*
X8648Y30500D01*
X8738Y30500D02*
X8797Y30440D01*
X8797Y30440D02*
X8797Y30380D01*
X8797Y30380D02*
X8738Y30321D01*
X8738Y30321D02*
X8619Y30321D01*
X8619Y30321D02*
X8559Y30380D01*
X11690Y24380D02*
X11630Y24321D01*
X11630Y24321D02*
X11511Y24321D01*
X11511Y24321D02*
X11452Y24380D01*
X11452Y24380D02*
X11452Y24619D01*
X11452Y24619D02*
X11511Y24678D01*
X11511Y24678D02*
X11630Y24678D01*
X11630Y24678D02*
X11690Y24619D01*
X11988Y24321D02*
X11988Y24678D01*
X11988Y24678D02*
X11809Y24440D01*
X11809Y24440D02*
X12047Y24440D01*
X10190Y7880D02*
X10130Y7821D01*
X10130Y7821D02*
X10011Y7821D01*
X10011Y7821D02*
X9952Y7880D01*
X9952Y7880D02*
X9952Y8119D01*
X9952Y8119D02*
X10011Y8178D01*
X10011Y8178D02*
X10130Y8178D01*
X10130Y8178D02*
X10190Y8119D01*
X10309Y8119D02*
X10369Y8178D01*
X10369Y8178D02*
X10488Y8178D01*
X10488Y8178D02*
X10547Y8119D01*
X10547Y8119D02*
X10547Y8059D01*
X10547Y8059D02*
X10488Y8000D01*
X10488Y8000D02*
X10398Y8000D01*
X10488Y8000D02*
X10547Y7940D01*
X10547Y7940D02*
X10547Y7880D01*
X10547Y7880D02*
X10488Y7821D01*
X10488Y7821D02*
X10369Y7821D01*
X10369Y7821D02*
X10309Y7880D01*
X13952Y3821D02*
X13952Y4178D01*
X13952Y4178D02*
X14130Y4178D01*
X14130Y4178D02*
X14190Y4119D01*
X14190Y4119D02*
X14190Y4059D01*
X14190Y4059D02*
X14130Y4000D01*
X14130Y4000D02*
X13952Y4000D01*
X13952Y4000D02*
X14190Y3821D01*
X14488Y3821D02*
X14488Y4178D01*
X14488Y4178D02*
X14309Y3940D01*
X14309Y3940D02*
X14547Y3940D01*
X15702Y9821D02*
X15702Y10178D01*
X15702Y10178D02*
X15880Y10178D01*
X15880Y10178D02*
X15940Y10119D01*
X15940Y10119D02*
X15940Y10059D01*
X15940Y10059D02*
X15880Y10000D01*
X15880Y10000D02*
X15702Y10000D01*
X15702Y10000D02*
X15940Y9821D01*
X16119Y9821D02*
X16059Y9880D01*
X16059Y9880D02*
X16059Y9940D01*
X16059Y9940D02*
X16119Y10000D01*
X16119Y10000D02*
X16238Y10000D01*
X16238Y10000D02*
X16297Y10059D01*
X16297Y10059D02*
X16297Y10119D01*
X16297Y10119D02*
X16238Y10178D01*
X16238Y10178D02*
X16119Y10178D01*
X16119Y10178D02*
X16059Y10119D01*
X16059Y10119D02*
X16059Y10059D01*
X16059Y10059D02*
X16119Y10000D01*
X16238Y10000D02*
X16297Y9940D01*
X16297Y9940D02*
X16297Y9880D01*
X16297Y9880D02*
X16238Y9821D01*
X16238Y9821D02*
X16119Y9821D01*
X8440Y29380D02*
X8380Y29321D01*
X8380Y29321D02*
X8261Y29321D01*
X8261Y29321D02*
X8202Y29380D01*
X8202Y29380D02*
X8202Y29619D01*
X8202Y29619D02*
X8261Y29678D01*
X8261Y29678D02*
X8380Y29678D01*
X8380Y29678D02*
X8440Y29619D01*
X8559Y29559D02*
X8559Y29619D01*
X8559Y29619D02*
X8619Y29678D01*
X8619Y29678D02*
X8738Y29678D01*
X8738Y29678D02*
X8797Y29619D01*
X8797Y29619D02*
X8797Y29559D01*
X8797Y29559D02*
X8559Y29321D01*
X8559Y29321D02*
X8797Y29321D01*
X20523Y4380D02*
X20583Y4321D01*
X20583Y4321D02*
X20702Y4321D01*
X20702Y4321D02*
X20761Y4380D01*
X20761Y4380D02*
X20761Y4440D01*
X20761Y4440D02*
X20702Y4500D01*
X20702Y4500D02*
X20583Y4500D01*
X20702Y4678D02*
X20761Y4619D01*
X20583Y4678D02*
X20702Y4678D01*
X20523Y4619D02*
X20583Y4678D01*
X20523Y4559D02*
X20523Y4619D01*
X20583Y4500D02*
X20523Y4559D01*
X20880Y4678D02*
X20940Y4321D01*
X20940Y4321D02*
X21000Y4500D01*
X21000Y4500D02*
X21059Y4321D01*
X21059Y4321D02*
X21119Y4678D01*
X21238Y4559D02*
X21238Y4619D01*
X21238Y4619D02*
X21297Y4678D01*
X21297Y4678D02*
X21416Y4678D01*
X21416Y4678D02*
X21476Y4619D01*
X21476Y4619D02*
X21476Y4559D01*
X21476Y4559D02*
X21238Y4321D01*
X21238Y4321D02*
X21476Y4321D01*
X1952Y6630D02*
X2011Y6571D01*
X2011Y6571D02*
X2130Y6571D01*
X2130Y6571D02*
X2190Y6630D01*
X2190Y6630D02*
X2190Y6690D01*
X2190Y6690D02*
X2130Y6750D01*
X2130Y6750D02*
X2011Y6750D01*
X2130Y6928D02*
X2190Y6869D01*
X2011Y6928D02*
X2130Y6928D01*
X1952Y6869D02*
X2011Y6928D01*
X1952Y6809D02*
X1952Y6869D01*
X2011Y6750D02*
X1952Y6809D01*
X2428Y6571D02*
X2428Y6928D01*
X2428Y6928D02*
X2309Y6809D01*
X6952Y7821D02*
X6952Y8178D01*
X6952Y8178D02*
X7071Y8000D01*
X7071Y8000D02*
X7190Y8178D01*
X7190Y8178D02*
X7190Y7821D01*
X7428Y7821D02*
X7428Y8178D01*
X7428Y8178D02*
X7309Y8059D01*
X36821Y20960D02*
X36821Y21317D01*
X36702Y21317D02*
X36940Y21317D01*
X37178Y20960D02*
X37178Y21317D01*
X37178Y21317D02*
X37059Y21198D01*
X26702Y3880D02*
X26761Y3821D01*
X26761Y3821D02*
X26880Y3821D01*
X26880Y3821D02*
X26940Y3880D01*
X26940Y3880D02*
X26940Y3940D01*
X26940Y3940D02*
X26880Y4000D01*
X26880Y4000D02*
X26761Y4000D01*
X26880Y4178D02*
X26940Y4119D01*
X26761Y4178D02*
X26880Y4178D01*
X26702Y4119D02*
X26761Y4178D01*
X26702Y4059D02*
X26702Y4119D01*
X26761Y4000D02*
X26702Y4059D01*
X27059Y4059D02*
X27059Y4119D01*
X27059Y4119D02*
X27119Y4178D01*
X27119Y4178D02*
X27238Y4178D01*
X27238Y4178D02*
X27297Y4119D01*
X27297Y4119D02*
X27297Y4059D01*
X27297Y4059D02*
X27059Y3821D01*
X27059Y3821D02*
X27297Y3821D01*
X25119Y15690D02*
X25178Y15630D01*
X25178Y15630D02*
X25178Y15511D01*
X25178Y15511D02*
X25119Y15452D01*
X25119Y15452D02*
X24880Y15452D01*
X24880Y15452D02*
X24821Y15511D01*
X24821Y15511D02*
X24821Y15630D01*
X24821Y15630D02*
X24880Y15690D01*
X25178Y15869D02*
X25178Y15988D01*
X25178Y15988D02*
X25119Y16047D01*
X25119Y16047D02*
X24880Y16047D01*
X24880Y16047D02*
X24821Y15988D01*
X24821Y15988D02*
X24821Y15869D01*
X24821Y15869D02*
X24880Y15809D01*
X24880Y15809D02*
X24970Y15809D01*
X24970Y15809D02*
X25029Y15869D01*
X25029Y15869D02*
X25029Y15988D01*
X25029Y15988D02*
X24970Y16047D01*
X20523Y10821D02*
X20523Y11178D01*
X20523Y11178D02*
X20702Y11178D01*
X20702Y11178D02*
X20761Y11119D01*
X20761Y11119D02*
X20761Y11059D01*
X20761Y11059D02*
X20702Y11000D01*
X20702Y11000D02*
X20523Y11000D01*
X20523Y11000D02*
X20761Y10821D01*
X21000Y10821D02*
X21000Y11178D01*
X21000Y11178D02*
X20880Y11059D01*
X21297Y10821D02*
X21238Y10940D01*
X21238Y10940D02*
X21238Y11059D01*
X21238Y11059D02*
X21297Y11178D01*
X21297Y11178D02*
X21416Y11178D01*
X21416Y11178D02*
X21476Y11059D01*
X21476Y11059D02*
X21476Y10940D01*
X21476Y10940D02*
X21416Y10821D01*
X21416Y10821D02*
X21297Y10821D01*
X33702Y36821D02*
X33702Y37178D01*
X33702Y36940D02*
X33940Y37178D01*
X33761Y37000D02*
X33940Y36821D01*
X34238Y36821D02*
X34238Y37178D01*
X34238Y37178D02*
X34059Y36940D01*
X34059Y36940D02*
X34297Y36940D01*
X26773Y22821D02*
X26773Y23178D01*
X26773Y23178D02*
X26952Y23178D01*
X26952Y23178D02*
X27011Y23119D01*
X27011Y23119D02*
X27011Y23059D01*
X27011Y23059D02*
X26952Y23000D01*
X26952Y23000D02*
X26773Y23000D01*
X26773Y23000D02*
X27011Y22821D01*
X27250Y22821D02*
X27250Y23178D01*
X27250Y23178D02*
X27130Y23059D01*
X27666Y22821D02*
X27666Y23178D01*
X27666Y23178D02*
X27488Y22940D01*
X27488Y22940D02*
X27726Y22940D01*
X26523Y6821D02*
X26523Y7178D01*
X26523Y7178D02*
X26702Y7178D01*
X26702Y7178D02*
X26761Y7119D01*
X26761Y7119D02*
X26761Y7059D01*
X26761Y7059D02*
X26702Y7000D01*
X26702Y7000D02*
X26523Y7000D01*
X26523Y7000D02*
X26761Y6821D01*
X27000Y6821D02*
X27000Y7178D01*
X27000Y7178D02*
X26880Y7059D01*
X27238Y7119D02*
X27297Y7178D01*
X27297Y7178D02*
X27416Y7178D01*
X27416Y7178D02*
X27476Y7119D01*
X27476Y7119D02*
X27476Y7059D01*
X27476Y7059D02*
X27416Y7000D01*
X27416Y7000D02*
X27327Y7000D01*
X27416Y7000D02*
X27476Y6940D01*
X27476Y6940D02*
X27476Y6880D01*
X27476Y6880D02*
X27416Y6821D01*
X27416Y6821D02*
X27297Y6821D01*
X27297Y6821D02*
X27238Y6880D01*
X14702Y6821D02*
X14702Y7178D01*
X14702Y7178D02*
X14880Y7178D01*
X14880Y7178D02*
X14940Y7119D01*
X14940Y7119D02*
X14940Y7059D01*
X14940Y7059D02*
X14880Y7000D01*
X14880Y7000D02*
X14702Y7000D01*
X14702Y7000D02*
X14940Y6821D01*
X15059Y7178D02*
X15297Y7178D01*
X15297Y7178D02*
X15059Y6821D01*
X4702Y29321D02*
X4702Y29678D01*
X4702Y29678D02*
X4880Y29678D01*
X4880Y29678D02*
X4940Y29619D01*
X4940Y29619D02*
X4940Y29380D01*
X4940Y29380D02*
X4880Y29321D01*
X4880Y29321D02*
X4702Y29321D01*
X5059Y29559D02*
X5059Y29619D01*
X5059Y29619D02*
X5119Y29678D01*
X5119Y29678D02*
X5238Y29678D01*
X5238Y29678D02*
X5297Y29619D01*
X5297Y29619D02*
X5297Y29559D01*
X5297Y29559D02*
X5059Y29321D01*
X5059Y29321D02*
X5297Y29321D01*
X8202Y28321D02*
X8202Y28678D01*
X8202Y28678D02*
X8380Y28678D01*
X8380Y28678D02*
X8440Y28619D01*
X8440Y28619D02*
X8440Y28559D01*
X8440Y28559D02*
X8380Y28500D01*
X8380Y28500D02*
X8202Y28500D01*
X8202Y28500D02*
X8440Y28321D01*
X8559Y28619D02*
X8619Y28678D01*
X8619Y28678D02*
X8738Y28678D01*
X8738Y28678D02*
X8797Y28619D01*
X8797Y28619D02*
X8797Y28559D01*
X8797Y28559D02*
X8738Y28500D01*
X8738Y28500D02*
X8648Y28500D01*
X8738Y28500D02*
X8797Y28440D01*
X8797Y28440D02*
X8797Y28380D01*
X8797Y28380D02*
X8738Y28321D01*
X8738Y28321D02*
X8619Y28321D01*
X8619Y28321D02*
X8559Y28380D01*
X15702Y10821D02*
X15702Y11178D01*
X15702Y11178D02*
X15880Y11178D01*
X15880Y11178D02*
X15940Y11119D01*
X15940Y11119D02*
X15940Y11059D01*
X15940Y11059D02*
X15880Y11000D01*
X15880Y11000D02*
X15702Y11000D01*
X15702Y11000D02*
X15940Y10821D01*
X16119Y10821D02*
X16238Y10821D01*
X16238Y10821D02*
X16297Y10880D01*
X16297Y10880D02*
X16297Y11119D01*
X16297Y11119D02*
X16238Y11178D01*
X16238Y11178D02*
X16119Y11178D01*
X16119Y11178D02*
X16059Y11119D01*
X16059Y11119D02*
X16059Y11029D01*
X16059Y11029D02*
X16119Y10970D01*
X16119Y10970D02*
X16238Y10970D01*
X16238Y10970D02*
X16297Y11029D01*
X14702Y5821D02*
X14702Y6178D01*
X14702Y6178D02*
X14880Y6178D01*
X14880Y6178D02*
X14940Y6119D01*
X14940Y6119D02*
X14940Y6059D01*
X14940Y6059D02*
X14880Y6000D01*
X14880Y6000D02*
X14702Y6000D01*
X14702Y6000D02*
X14940Y5821D01*
X15238Y6178D02*
X15119Y6178D01*
X15119Y6178D02*
X15059Y6119D01*
X15059Y6119D02*
X15059Y5880D01*
X15059Y5880D02*
X15119Y5821D01*
X15119Y5821D02*
X15238Y5821D01*
X15238Y5821D02*
X15297Y5880D01*
X15297Y5880D02*
X15297Y5970D01*
X15297Y5970D02*
X15238Y6029D01*
X15238Y6029D02*
X15119Y6029D01*
X15119Y6029D02*
X15059Y5970D01*
X1678Y33702D02*
X1321Y33702D01*
X1321Y33702D02*
X1321Y33880D01*
X1321Y33880D02*
X1380Y33940D01*
X1380Y33940D02*
X1619Y33940D01*
X1619Y33940D02*
X1678Y33880D01*
X1678Y33880D02*
X1678Y33702D01*
X1678Y34178D02*
X1321Y34178D01*
X1321Y34178D02*
X1440Y34059D01*
X31523Y5821D02*
X31523Y6178D01*
X31523Y6178D02*
X31702Y6178D01*
X31702Y6178D02*
X31761Y6119D01*
X31761Y6119D02*
X31761Y6059D01*
X31761Y6059D02*
X31702Y6000D01*
X31702Y6000D02*
X31523Y6000D01*
X31523Y6000D02*
X31761Y5821D01*
X32000Y5821D02*
X32000Y6178D01*
X32000Y6178D02*
X31880Y6059D01*
X32416Y6178D02*
X32297Y6178D01*
X32297Y6178D02*
X32238Y6119D01*
X32238Y6119D02*
X32238Y5880D01*
X32238Y5880D02*
X32297Y5821D01*
X32297Y5821D02*
X32416Y5821D01*
X32416Y5821D02*
X32476Y5880D01*
X32476Y5880D02*
X32476Y5970D01*
X32476Y5970D02*
X32416Y6029D01*
X32416Y6029D02*
X32297Y6029D01*
X32297Y6029D02*
X32238Y5970D01*
X24023Y32380D02*
X24083Y32321D01*
X24083Y32321D02*
X24202Y32321D01*
X24202Y32321D02*
X24261Y32380D01*
X24261Y32380D02*
X24261Y32440D01*
X24261Y32440D02*
X24202Y32500D01*
X24202Y32500D02*
X24083Y32500D01*
X24202Y32678D02*
X24261Y32619D01*
X24083Y32678D02*
X24202Y32678D01*
X24023Y32619D02*
X24083Y32678D01*
X24023Y32559D02*
X24023Y32619D01*
X24083Y32500D02*
X24023Y32559D01*
X24380Y32678D02*
X24440Y32321D01*
X24440Y32321D02*
X24500Y32500D01*
X24500Y32500D02*
X24559Y32321D01*
X24559Y32321D02*
X24619Y32678D01*
X24738Y32619D02*
X24797Y32678D01*
X24797Y32678D02*
X24916Y32678D01*
X24916Y32678D02*
X24976Y32619D01*
X24976Y32619D02*
X24976Y32559D01*
X24976Y32559D02*
X24916Y32500D01*
X24916Y32500D02*
X24827Y32500D01*
X24916Y32500D02*
X24976Y32440D01*
X24976Y32440D02*
X24976Y32380D01*
X24976Y32380D02*
X24916Y32321D01*
X24916Y32321D02*
X24797Y32321D01*
X24797Y32321D02*
X24738Y32380D01*
X14940Y8880D02*
X14880Y8821D01*
X14880Y8821D02*
X14761Y8821D01*
X14761Y8821D02*
X14702Y8880D01*
X14702Y8880D02*
X14702Y9119D01*
X14702Y9119D02*
X14761Y9178D01*
X14761Y9178D02*
X14880Y9178D01*
X14880Y9178D02*
X14940Y9119D01*
X15238Y9178D02*
X15119Y9178D01*
X15119Y9178D02*
X15059Y9119D01*
X15059Y9119D02*
X15059Y8880D01*
X15059Y8880D02*
X15119Y8821D01*
X15119Y8821D02*
X15238Y8821D01*
X15238Y8821D02*
X15297Y8880D01*
X15297Y8880D02*
X15297Y8970D01*
X15297Y8970D02*
X15238Y9029D01*
X15238Y9029D02*
X15119Y9029D01*
X15119Y9029D02*
X15059Y8970D01*
X3142Y35321D02*
X3142Y35678D01*
X3500Y35380D02*
X3440Y35321D01*
X3440Y35321D02*
X3321Y35321D01*
X3321Y35321D02*
X3261Y35380D01*
X3261Y35380D02*
X3261Y35619D01*
X3261Y35619D02*
X3321Y35678D01*
X3321Y35678D02*
X3440Y35678D01*
X3440Y35678D02*
X3500Y35619D01*
X3738Y35321D02*
X3738Y35678D01*
X3738Y35678D02*
X3619Y35559D01*
X20523Y8821D02*
X20523Y9178D01*
X20523Y9178D02*
X20702Y9178D01*
X20702Y9178D02*
X20761Y9119D01*
X20761Y9119D02*
X20761Y9059D01*
X20761Y9059D02*
X20702Y9000D01*
X20702Y9000D02*
X20523Y9000D01*
X20523Y9000D02*
X20761Y8821D01*
X21000Y8821D02*
X21000Y9178D01*
X21000Y9178D02*
X20880Y9059D01*
X21238Y9059D02*
X21238Y9119D01*
X21238Y9119D02*
X21297Y9178D01*
X21297Y9178D02*
X21416Y9178D01*
X21416Y9178D02*
X21476Y9119D01*
X21476Y9119D02*
X21476Y9059D01*
X21476Y9059D02*
X21238Y8821D01*
X21238Y8821D02*
X21476Y8821D01*
X19940Y9880D02*
X19880Y9821D01*
X19880Y9821D02*
X19761Y9821D01*
X19761Y9821D02*
X19702Y9880D01*
X19702Y9880D02*
X19702Y10119D01*
X19702Y10119D02*
X19761Y10178D01*
X19761Y10178D02*
X19880Y10178D01*
X19880Y10178D02*
X19940Y10119D01*
X20119Y9821D02*
X20059Y9880D01*
X20059Y9880D02*
X20059Y9940D01*
X20059Y9940D02*
X20119Y10000D01*
X20119Y10000D02*
X20238Y10000D01*
X20238Y10000D02*
X20297Y10059D01*
X20297Y10059D02*
X20297Y10119D01*
X20297Y10119D02*
X20238Y10178D01*
X20238Y10178D02*
X20119Y10178D01*
X20119Y10178D02*
X20059Y10119D01*
X20059Y10119D02*
X20059Y10059D01*
X20059Y10059D02*
X20119Y10000D01*
X20238Y10000D02*
X20297Y9940D01*
X20297Y9940D02*
X20297Y9880D01*
X20297Y9880D02*
X20238Y9821D01*
X20238Y9821D02*
X20119Y9821D01*
X31523Y4821D02*
X31523Y5178D01*
X31523Y5178D02*
X31702Y5178D01*
X31702Y5178D02*
X31761Y5119D01*
X31761Y5119D02*
X31761Y5059D01*
X31761Y5059D02*
X31702Y5000D01*
X31702Y5000D02*
X31523Y5000D01*
X31523Y5000D02*
X31761Y4821D01*
X32000Y4821D02*
X32000Y5178D01*
X32000Y5178D02*
X31880Y5059D01*
X32238Y5178D02*
X32476Y5178D01*
X32238Y5178D02*
X32238Y5029D01*
X32238Y5029D02*
X32416Y5029D01*
X32416Y5029D02*
X32476Y4970D01*
X32476Y4970D02*
X32476Y4880D01*
X32476Y4880D02*
X32416Y4821D01*
X32416Y4821D02*
X32238Y4821D01*
X5952Y36321D02*
X5952Y36678D01*
X5952Y36440D02*
X6190Y36678D01*
X6011Y36500D02*
X6190Y36321D01*
X6309Y36559D02*
X6309Y36619D01*
X6309Y36619D02*
X6369Y36678D01*
X6369Y36678D02*
X6488Y36678D01*
X6488Y36678D02*
X6547Y36619D01*
X6547Y36619D02*
X6547Y36559D01*
X6547Y36559D02*
X6309Y36321D01*
X6309Y36321D02*
X6547Y36321D01*
X18952Y27460D02*
X18952Y27817D01*
X18952Y27817D02*
X19071Y27638D01*
X19071Y27638D02*
X19190Y27817D01*
X19190Y27817D02*
X19190Y27460D01*
X19309Y27698D02*
X19309Y27757D01*
X19309Y27757D02*
X19369Y27817D01*
X19369Y27817D02*
X19488Y27817D01*
X19488Y27817D02*
X19547Y27757D01*
X19547Y27757D02*
X19547Y27698D01*
X19547Y27698D02*
X19309Y27460D01*
X19309Y27460D02*
X19547Y27460D01*
X13940Y4880D02*
X13880Y4821D01*
X13880Y4821D02*
X13761Y4821D01*
X13761Y4821D02*
X13702Y4880D01*
X13702Y4880D02*
X13702Y5119D01*
X13702Y5119D02*
X13761Y5178D01*
X13761Y5178D02*
X13880Y5178D01*
X13880Y5178D02*
X13940Y5119D01*
X14059Y5178D02*
X14297Y5178D01*
X14059Y5178D02*
X14059Y5029D01*
X14059Y5029D02*
X14238Y5029D01*
X14238Y5029D02*
X14297Y4970D01*
X14297Y4970D02*
X14297Y4880D01*
X14297Y4880D02*
X14238Y4821D01*
X14238Y4821D02*
X14059Y4821D01*
X1773Y4321D02*
X1773Y4678D01*
X1773Y4678D02*
X1952Y4678D01*
X1952Y4678D02*
X2011Y4619D01*
X2011Y4619D02*
X2011Y4559D01*
X2011Y4559D02*
X1952Y4500D01*
X1952Y4500D02*
X1773Y4500D01*
X1773Y4500D02*
X2011Y4321D01*
X2130Y4321D02*
X2130Y4619D01*
X2130Y4619D02*
X2190Y4678D01*
X2190Y4678D02*
X2309Y4678D01*
X2309Y4678D02*
X2369Y4619D01*
X2369Y4619D02*
X2369Y4321D01*
X2130Y4500D02*
X2369Y4500D01*
X2488Y4678D02*
X2726Y4678D01*
X2726Y4678D02*
X2488Y4321D01*
X2488Y4321D02*
X2726Y4321D01*
X12642Y38071D02*
X12642Y38428D01*
X12523Y38428D02*
X12761Y38428D01*
X12880Y38071D02*
X12880Y38428D01*
X13119Y38428D02*
X13119Y38071D01*
X12880Y38250D02*
X13119Y38250D01*
X13238Y38190D02*
X13476Y38190D01*
X13357Y38309D02*
X13357Y38071D01*
X16642Y38071D02*
X16642Y38428D01*
X16523Y38428D02*
X16761Y38428D01*
X16880Y38071D02*
X16880Y38428D01*
X17119Y38428D02*
X17119Y38071D01*
X16880Y38250D02*
X17119Y38250D01*
X17238Y38190D02*
X17476Y38190D01*
X27880Y38500D02*
X27880Y38857D01*
X27880Y38857D02*
X28059Y38857D01*
X28059Y38857D02*
X28119Y38797D01*
X28119Y38797D02*
X28119Y38738D01*
X28119Y38738D02*
X28059Y38678D01*
X28059Y38678D02*
X27880Y38678D01*
X27880Y38678D02*
X28119Y38500D01*
X28238Y38500D02*
X28238Y38857D01*
X28238Y38857D02*
X28476Y38857D01*
X28416Y38678D02*
X28238Y38678D01*
X28238Y38500D02*
X28476Y38500D01*
X28714Y38678D02*
X28833Y38678D01*
X28833Y38678D02*
X28833Y38559D01*
X28833Y38559D02*
X28773Y38500D01*
X28773Y38500D02*
X28654Y38500D01*
X28654Y38500D02*
X28595Y38559D01*
X28595Y38559D02*
X28595Y38797D01*
X28595Y38797D02*
X28654Y38857D01*
X28654Y38857D02*
X28773Y38857D01*
X28773Y38857D02*
X28833Y38797D01*
X28952Y38619D02*
X29190Y38619D01*
X29547Y38559D02*
X29488Y38500D01*
X29488Y38500D02*
X29369Y38500D01*
X29369Y38500D02*
X29309Y38559D01*
X29309Y38559D02*
X29309Y38797D01*
X29309Y38797D02*
X29369Y38857D01*
X29369Y38857D02*
X29488Y38857D01*
X29488Y38857D02*
X29547Y38797D01*
X29785Y38500D02*
X29785Y38857D01*
X29666Y38857D02*
X29904Y38857D01*
X30023Y38500D02*
X30023Y38857D01*
X30023Y38857D02*
X30261Y38500D01*
X30261Y38500D02*
X30261Y38857D01*
X30380Y38738D02*
X30380Y38797D01*
X30380Y38797D02*
X30440Y38857D01*
X30440Y38857D02*
X30559Y38857D01*
X30559Y38857D02*
X30619Y38797D01*
X30619Y38797D02*
X30619Y38738D01*
X30619Y38738D02*
X30380Y38500D01*
X30380Y38500D02*
X30619Y38500D01*
X2809Y38500D02*
X2809Y38857D01*
X2809Y38857D02*
X2988Y38857D01*
X2988Y38857D02*
X3047Y38797D01*
X3047Y38797D02*
X3047Y38738D01*
X3047Y38738D02*
X2988Y38678D01*
X2988Y38678D02*
X2809Y38678D01*
X2809Y38678D02*
X3047Y38500D01*
X3166Y38500D02*
X3166Y38857D01*
X3166Y38857D02*
X3404Y38857D01*
X3345Y38678D02*
X3166Y38678D01*
X3166Y38500D02*
X3404Y38500D01*
X3642Y38678D02*
X3761Y38678D01*
X3761Y38678D02*
X3761Y38559D01*
X3761Y38559D02*
X3702Y38500D01*
X3702Y38500D02*
X3583Y38500D01*
X3583Y38500D02*
X3523Y38559D01*
X3523Y38559D02*
X3523Y38797D01*
X3523Y38797D02*
X3583Y38857D01*
X3583Y38857D02*
X3702Y38857D01*
X3702Y38857D02*
X3761Y38797D01*
X3880Y38619D02*
X4119Y38619D01*
X4357Y38500D02*
X4357Y38857D01*
X4238Y38857D02*
X4476Y38857D01*
X4595Y38500D02*
X4595Y38857D01*
X4833Y38857D02*
X4833Y38500D01*
X4595Y38678D02*
X4833Y38678D01*
X4952Y38619D02*
X5190Y38619D01*
X5071Y38738D02*
X5071Y38500D01*
X35583Y38559D02*
X35523Y38500D01*
X35523Y38500D02*
X35404Y38500D01*
X35404Y38500D02*
X35345Y38559D01*
X35345Y38559D02*
X35345Y38797D01*
X35345Y38797D02*
X35404Y38857D01*
X35404Y38857D02*
X35523Y38857D01*
X35523Y38857D02*
X35583Y38797D01*
X35821Y38500D02*
X35821Y38857D01*
X35702Y38857D02*
X35940Y38857D01*
X36059Y38500D02*
X36059Y38857D01*
X36059Y38857D02*
X36297Y38500D01*
X36297Y38500D02*
X36297Y38857D01*
X36416Y38738D02*
X36416Y38797D01*
X36416Y38797D02*
X36476Y38857D01*
X36476Y38857D02*
X36595Y38857D01*
X36595Y38857D02*
X36654Y38797D01*
X36654Y38797D02*
X36654Y38738D01*
X36654Y38738D02*
X36416Y38500D01*
X36416Y38500D02*
X36654Y38500D01*
X24630Y38500D02*
X24630Y38857D01*
X24630Y38857D02*
X24809Y38857D01*
X24809Y38857D02*
X24869Y38797D01*
X24869Y38797D02*
X24869Y38738D01*
X24869Y38738D02*
X24809Y38678D01*
X24809Y38678D02*
X24630Y38678D01*
X24630Y38678D02*
X24869Y38500D01*
X24988Y38500D02*
X24988Y38857D01*
X24988Y38857D02*
X25226Y38857D01*
X25166Y38678D02*
X24988Y38678D01*
X24988Y38500D02*
X25226Y38500D01*
X25464Y38678D02*
X25583Y38678D01*
X25583Y38678D02*
X25583Y38559D01*
X25583Y38559D02*
X25523Y38500D01*
X25523Y38500D02*
X25404Y38500D01*
X25404Y38500D02*
X25345Y38559D01*
X25345Y38559D02*
X25345Y38797D01*
X25345Y38797D02*
X25404Y38857D01*
X25404Y38857D02*
X25523Y38857D01*
X25523Y38857D02*
X25583Y38797D01*
X25702Y38619D02*
X25940Y38619D01*
X26297Y38559D02*
X26238Y38500D01*
X26238Y38500D02*
X26119Y38500D01*
X26119Y38500D02*
X26059Y38559D01*
X26059Y38559D02*
X26059Y38797D01*
X26059Y38797D02*
X26119Y38857D01*
X26119Y38857D02*
X26238Y38857D01*
X26238Y38857D02*
X26297Y38797D01*
X26416Y38500D02*
X26416Y38857D01*
X26416Y38857D02*
X26654Y38500D01*
X26654Y38500D02*
X26654Y38857D01*
X26892Y38500D02*
X26892Y38857D01*
X26773Y38857D02*
X27011Y38857D01*
X27250Y38500D02*
X27250Y38857D01*
X27250Y38857D02*
X27130Y38738D01*
X31583Y38559D02*
X31523Y38500D01*
X31523Y38500D02*
X31404Y38500D01*
X31404Y38500D02*
X31345Y38559D01*
X31345Y38559D02*
X31345Y38797D01*
X31345Y38797D02*
X31404Y38857D01*
X31404Y38857D02*
X31523Y38857D01*
X31523Y38857D02*
X31583Y38797D01*
X31821Y38500D02*
X31821Y38857D01*
X31702Y38857D02*
X31940Y38857D01*
X32059Y38500D02*
X32059Y38857D01*
X32059Y38857D02*
X32297Y38500D01*
X32297Y38500D02*
X32297Y38857D01*
X32535Y38500D02*
X32535Y38857D01*
X32535Y38857D02*
X32416Y38738D01*
X6809Y38500D02*
X6809Y38857D01*
X6809Y38857D02*
X6988Y38857D01*
X6988Y38857D02*
X7047Y38797D01*
X7047Y38797D02*
X7047Y38738D01*
X7047Y38738D02*
X6988Y38678D01*
X6988Y38678D02*
X6809Y38678D01*
X6809Y38678D02*
X7047Y38500D01*
X7166Y38500D02*
X7166Y38857D01*
X7166Y38857D02*
X7404Y38857D01*
X7345Y38678D02*
X7166Y38678D01*
X7166Y38500D02*
X7404Y38500D01*
X7642Y38678D02*
X7761Y38678D01*
X7761Y38678D02*
X7761Y38559D01*
X7761Y38559D02*
X7702Y38500D01*
X7702Y38500D02*
X7583Y38500D01*
X7583Y38500D02*
X7523Y38559D01*
X7523Y38559D02*
X7523Y38797D01*
X7523Y38797D02*
X7583Y38857D01*
X7583Y38857D02*
X7702Y38857D01*
X7702Y38857D02*
X7761Y38797D01*
X7880Y38619D02*
X8119Y38619D01*
X8357Y38500D02*
X8357Y38857D01*
X8238Y38857D02*
X8476Y38857D01*
X8595Y38500D02*
X8595Y38857D01*
X8833Y38857D02*
X8833Y38500D01*
X8595Y38678D02*
X8833Y38678D01*
X8952Y38619D02*
X9190Y38619D01*
D11*
G01X34000Y21000D02*
X33500Y21000D01*
X33500Y20474D02*
X33500Y21525D01*
X31000Y21000D02*
X31500Y21000D01*
X31500Y20474D02*
X31500Y21500D01*
X33500Y20474D02*
X31500Y20474D01*
X33500Y21525D02*
X31500Y21525D01*
X31749Y20474D02*
X31749Y21525D01*
X34500Y21750D02*
X34500Y29750D01*
X34500Y21750D02*
X30499Y21750D01*
X34500Y29750D02*
X30500Y29750D01*
X30499Y21750D02*
X30500Y29750D01*
X13625Y7500D02*
X16375Y7500D01*
X13000Y8000D02*
X13625Y8000D01*
X13625Y8500D02*
X13625Y7500D01*
X13625Y8500D02*
X16375Y8500D01*
X16375Y8500D02*
X16375Y7500D01*
X17000Y8000D02*
X16375Y8000D01*
X5374Y15500D02*
X2625Y15500D01*
X5999Y15000D02*
X5374Y15000D01*
X5374Y14500D02*
X5374Y15500D01*
X5374Y14500D02*
X2625Y14500D01*
X2625Y14500D02*
X2625Y15500D01*
X2000Y15000D02*
X2625Y15000D01*
X265Y28015D02*
X265Y31362D01*
X2234Y28015D02*
X2234Y31362D01*
X265Y28015D02*
X3021Y28015D01*
X265Y31362D02*
X3021Y31362D01*
X3021Y28015D02*
X3021Y31362D01*
X16750Y28500D02*
X16750Y31500D01*
X16750Y28500D02*
X17750Y28500D01*
X16750Y31500D02*
X17750Y31500D01*
X17750Y28500D02*
X17750Y31500D01*
X3250Y31000D02*
X6250Y31000D01*
X3250Y31000D02*
X3250Y30000D01*
X6250Y31000D02*
X6250Y30000D01*
X3250Y30000D02*
X6250Y30000D01*
X7375Y25000D02*
X4625Y25000D01*
X8000Y24500D02*
X7375Y24500D01*
X7375Y24000D02*
X7375Y25000D01*
X7375Y24000D02*
X4625Y24000D01*
X4625Y24000D02*
X4625Y25000D01*
X4000Y24500D02*
X4625Y24500D01*
X8712Y36171D02*
X12255Y36171D01*
X8712Y37588D02*
X8712Y36171D01*
X8712Y37588D02*
X12255Y37588D01*
X12255Y37588D02*
X12255Y36171D01*
X37750Y9250D02*
X26999Y9250D01*
X26000Y10250D02*
X26000Y18250D01*
X37750Y19250D02*
X27000Y19250D01*
X38750Y10249D02*
X38750Y18249D01*
X27000Y19250D02*
X26798Y19229D01*
X26610Y19171D01*
X26440Y19079D01*
X26292Y18957D01*
X26170Y18809D01*
X26078Y18639D01*
X26020Y18451D01*
X26000Y18250D01*
X38750Y18249D02*
X38729Y18451D01*
X38671Y18639D01*
X38579Y18809D01*
X38457Y18957D01*
X38309Y19079D01*
X38139Y19171D01*
X37951Y19229D01*
X37750Y19250D01*
X26000Y10250D02*
X26020Y10048D01*
X26078Y9860D01*
X26170Y9690D01*
X26292Y9542D01*
X26440Y9420D01*
X26610Y9328D01*
X26798Y9270D01*
X26999Y9250D01*
X37750Y9249D02*
X37951Y9270D01*
X38139Y9328D01*
X38309Y9420D01*
X38457Y9542D01*
X38579Y9690D01*
X38671Y9860D01*
X38729Y10048D01*
X38750Y10249D01*
X34625Y6500D02*
X37374Y6500D01*
X34000Y7000D02*
X34625Y7000D01*
X34625Y7500D02*
X34625Y6500D01*
X34625Y7500D02*
X37374Y7500D01*
X37374Y7500D02*
X37374Y6500D01*
X37999Y7000D02*
X37374Y7000D01*
X26015Y37984D02*
X29952Y37984D01*
X26015Y36015D02*
X29952Y36015D01*
X26015Y37984D02*
X26015Y36015D01*
X29952Y37984D02*
X29952Y36015D01*
X19624Y11500D02*
X22375Y11500D01*
X18999Y12000D02*
X19624Y12000D01*
X19624Y12500D02*
X19624Y11500D01*
X19624Y12500D02*
X22375Y12500D01*
X22375Y12500D02*
X22375Y11500D01*
X23000Y12000D02*
X22375Y12000D01*
X7000Y30500D02*
X7500Y30500D01*
X7500Y31025D02*
X7500Y29975D01*
X10000Y30500D02*
X9500Y30500D01*
X9500Y31025D02*
X9500Y30000D01*
X7500Y31025D02*
X9500Y31025D01*
X7500Y29975D02*
X9500Y29975D01*
X9250Y31025D02*
X9250Y29975D01*
X13249Y24000D02*
X10249Y24000D01*
X13249Y24000D02*
X13249Y25000D01*
X10249Y24000D02*
X10249Y25000D01*
X13249Y25000D02*
X10249Y25000D01*
X11750Y7500D02*
X8749Y7500D01*
X11750Y7500D02*
X11750Y8500D01*
X8749Y7500D02*
X8749Y8500D01*
X11750Y8500D02*
X8749Y8500D01*
X12874Y3500D02*
X15625Y3500D01*
X12249Y4000D02*
X12874Y4000D01*
X12874Y4500D02*
X12874Y3500D01*
X12874Y4500D02*
X15625Y4500D01*
X15625Y4500D02*
X15625Y3500D01*
X16250Y4000D02*
X15625Y4000D01*
X34051Y3505D02*
X33938Y3606D01*
X33811Y3680D01*
X33674Y3727D01*
X33532Y3747D01*
X33388Y3739D01*
X33248Y3704D01*
X33115Y3641D01*
X32994Y3551D01*
X32893Y3438D01*
X32819Y3311D01*
X32772Y3174D01*
X32752Y3032D01*
X32760Y2888D01*
X32795Y2748D01*
X32858Y2615D01*
X32948Y2494D01*
X33061Y2393D01*
X33188Y2319D01*
X33325Y2272D01*
X33467Y2252D01*
X33611Y2260D01*
X33751Y2295D01*
X33884Y2358D01*
X34005Y2448D01*
X34051Y2494D01*
X34051Y3505D02*
X34051Y2494D01*
X17374Y10500D02*
X14624Y10500D01*
X18000Y10000D02*
X17374Y10000D01*
X17374Y9500D02*
X17374Y10500D01*
X17374Y9500D02*
X14624Y9500D01*
X14624Y9500D02*
X14624Y10500D01*
X13999Y10000D02*
X14624Y10000D01*
X10250Y29000D02*
X7249Y29000D01*
X10250Y29000D02*
X10250Y30000D01*
X7249Y29000D02*
X7249Y30000D01*
X10250Y30000D02*
X7249Y30000D01*
X18425Y6564D02*
X18425Y1643D01*
X18425Y6564D02*
X18818Y6958D01*
X18818Y6958D02*
X23149Y6958D01*
X23149Y1249D02*
X23543Y1643D01*
X18818Y1249D02*
X18425Y1643D01*
X18818Y1249D02*
X23149Y1249D01*
X23543Y6564D02*
X23543Y1643D01*
X23543Y6564D02*
X23149Y6958D01*
X3250Y7749D02*
X1250Y7750D01*
X3250Y5749D02*
X1250Y5749D01*
X3250Y7749D02*
X3250Y5749D01*
X1250Y7750D02*
X1250Y5749D01*
X1896Y6396D02*
X2061Y6286D01*
X2250Y6250D01*
X2438Y6286D01*
X2603Y6396D01*
X2713Y6561D01*
X2749Y6749D01*
X2713Y6938D01*
X2603Y7103D01*
X2438Y7213D01*
X2250Y7249D01*
X2061Y7213D01*
X1896Y7103D01*
X1786Y6938D01*
X1750Y6749D01*
X1786Y6561D01*
X1896Y6396D01*
X12500Y9250D02*
X12499Y1250D01*
X11500Y249D02*
X10249Y249D01*
X4000Y9250D02*
X3999Y1250D01*
X11500Y10250D02*
X5000Y10250D01*
X4000Y1250D02*
X4020Y1048D01*
X4078Y860D01*
X4170Y690D01*
X4292Y542D01*
X4440Y420D01*
X4610Y328D01*
X4798Y270D01*
X4999Y250D01*
X5000Y10250D02*
X4798Y10229D01*
X4610Y10171D01*
X4440Y10079D01*
X4292Y9957D01*
X4170Y9809D01*
X4078Y9639D01*
X4020Y9451D01*
X4000Y9250D01*
X11500Y249D02*
X11701Y270D01*
X11889Y328D01*
X12059Y420D01*
X12207Y542D01*
X12329Y690D01*
X12421Y860D01*
X12479Y1048D01*
X12500Y1250D01*
X12500Y9250D02*
X12479Y9451D01*
X12421Y9639D01*
X12329Y9809D01*
X12207Y9957D01*
X12059Y10079D01*
X11889Y10171D01*
X11701Y10229D01*
X11500Y10250D01*
X9250Y1250D02*
X7216Y1235D01*
X6249Y250D02*
X7249Y1250D01*
X9250Y1250D02*
X10249Y249D01*
X6249Y250D02*
X4999Y250D01*
X14000Y23249D02*
X-499Y23250D01*
X11500Y11999D02*
X11500Y10749D01*
X-1499Y22250D02*
X-1500Y11750D01*
X11500Y10749D02*
X-500Y10750D01*
X14000Y18500D02*
X11750Y18500D01*
X14000Y15500D02*
X11750Y15500D01*
X14000Y15500D02*
X14000Y18500D01*
X11750Y15500D02*
X11750Y18500D01*
X749Y13000D02*
X-1500Y13000D01*
X-1499Y21000D02*
X750Y21000D01*
X750Y21000D02*
X749Y13000D01*
X0Y14000D02*
X-1000Y14000D01*
X0Y15500D02*
X-999Y15500D01*
X0Y17000D02*
X-999Y17000D01*
X0Y18500D02*
X-999Y18500D01*
X0Y20000D02*
X-999Y20000D01*
X0Y14000D02*
X0Y15500D01*
X-999Y15500D02*
X-999Y17000D01*
X-999Y18500D02*
X-999Y20000D01*
X0Y17000D02*
X0Y18500D01*
X14000Y11999D02*
X11500Y11999D01*
X14000Y14250D02*
X14000Y11999D01*
X-499Y23250D02*
X-1499Y22250D01*
X-500Y10750D02*
X-1500Y11750D01*
X14000Y14250D02*
X13250Y14999D01*
X14000Y19750D02*
X13250Y18999D01*
X13250Y14999D02*
X13250Y15500D01*
X13250Y18500D02*
X13250Y18999D01*
X14000Y23249D02*
X14000Y19750D01*
X37759Y21599D02*
X37875Y21766D01*
X37953Y21946D01*
X37993Y22135D01*
X37996Y22327D01*
X37963Y22516D01*
X37894Y22697D01*
X37789Y22863D01*
X37650Y23009D01*
X37483Y23125D01*
X37303Y23203D01*
X37114Y23243D01*
X36922Y23246D01*
X36733Y23213D01*
X36552Y23144D01*
X36386Y23039D01*
X36240Y22900D01*
X36135Y22752D01*
X36060Y22591D01*
X36015Y22422D01*
X36000Y22250D01*
X36014Y22077D01*
X36060Y21908D01*
X36135Y21747D01*
X36240Y21600D01*
X37759Y21599D02*
X36240Y21600D01*
X28000Y4999D02*
X26000Y5000D01*
X28000Y2999D02*
X26000Y2999D01*
X28000Y4999D02*
X28000Y2999D01*
X26000Y5000D02*
X26000Y2999D01*
X26646Y3646D02*
X26811Y3536D01*
X26999Y3500D01*
X27188Y3536D01*
X27353Y3646D01*
X27463Y3811D01*
X27500Y4000D01*
X27463Y4188D01*
X27353Y4353D01*
X27188Y4463D01*
X26999Y4499D01*
X26811Y4463D01*
X26646Y4353D01*
X26536Y4188D01*
X26500Y4000D01*
X26536Y3811D01*
X26646Y3646D01*
X24500Y14250D02*
X24500Y17250D01*
X24500Y14250D02*
X25500Y14250D01*
X24500Y17250D02*
X25500Y17250D01*
X25500Y14250D02*
X25500Y17250D01*
X19624Y10500D02*
X22375Y10500D01*
X18999Y11000D02*
X19624Y11000D01*
X19624Y11500D02*
X19624Y10500D01*
X19624Y11500D02*
X22375Y11500D01*
X22375Y11500D02*
X22375Y10500D01*
X23000Y11000D02*
X22375Y11000D01*
X32015Y37984D02*
X35952Y37984D01*
X32015Y36015D02*
X35952Y36015D01*
X32015Y37984D02*
X32015Y36015D01*
X35952Y37984D02*
X35952Y36015D01*
X25874Y22500D02*
X28625Y22500D01*
X25249Y23000D02*
X25874Y23000D01*
X25874Y23500D02*
X25874Y22500D01*
X25874Y23500D02*
X28625Y23500D01*
X28625Y23500D02*
X28625Y22500D01*
X29250Y23000D02*
X28625Y23000D01*
X25625Y6500D02*
X28375Y6500D01*
X25000Y7000D02*
X25625Y7000D01*
X25625Y7500D02*
X25625Y6500D01*
X25625Y7500D02*
X28375Y7500D01*
X28375Y7500D02*
X28375Y6500D01*
X29000Y7000D02*
X28375Y7000D01*
X16375Y7500D02*
X13625Y7500D01*
X17000Y7000D02*
X16375Y7000D01*
X16375Y6500D02*
X16375Y7500D01*
X16375Y6500D02*
X13625Y6500D01*
X13625Y6500D02*
X13625Y7500D01*
X13000Y7000D02*
X13625Y7000D01*
X3500Y29500D02*
X4000Y29500D01*
X4000Y30025D02*
X4000Y28975D01*
X6500Y29500D02*
X6000Y29500D01*
X6000Y30025D02*
X6000Y29000D01*
X4000Y30025D02*
X6000Y30025D01*
X4000Y28975D02*
X6000Y28975D01*
X5750Y30025D02*
X5750Y28975D01*
X36448Y4994D02*
X36561Y4893D01*
X36688Y4819D01*
X36825Y4772D01*
X36967Y4752D01*
X37111Y4760D01*
X37251Y4795D01*
X37384Y4858D01*
X37505Y4948D01*
X37606Y5061D01*
X37680Y5188D01*
X37727Y5325D01*
X37747Y5467D01*
X37739Y5611D01*
X37704Y5751D01*
X37641Y5884D01*
X37551Y6005D01*
X37438Y6106D01*
X37311Y6180D01*
X37174Y6227D01*
X37032Y6247D01*
X36888Y6239D01*
X36748Y6204D01*
X36615Y6141D01*
X36494Y6051D01*
X36448Y6005D01*
X36448Y4994D02*
X36448Y6005D01*
X9875Y28999D02*
X7125Y28999D01*
X10500Y28500D02*
X9875Y28500D01*
X9875Y28000D02*
X9875Y28999D01*
X9875Y28000D02*
X7125Y28000D01*
X7125Y28000D02*
X7125Y28999D01*
X6500Y28500D02*
X7125Y28500D01*
X856Y27037D02*
X856Y580D01*
X856Y27037D02*
X16643Y27037D01*
X16643Y27037D02*
X16643Y580D01*
X856Y580D02*
X16643Y580D01*
X17374Y11500D02*
X14624Y11500D01*
X18000Y11000D02*
X17374Y11000D01*
X17374Y10500D02*
X17374Y11500D01*
X17374Y10500D02*
X14624Y10500D01*
X14624Y10500D02*
X14624Y11500D01*
X13999Y11000D02*
X14624Y11000D01*
X16375Y6500D02*
X13625Y6500D01*
X17000Y6000D02*
X16375Y6000D01*
X16375Y5500D02*
X16375Y6500D01*
X16375Y5500D02*
X13625Y5500D01*
X13625Y5500D02*
X13625Y6500D01*
X13000Y6000D02*
X13625Y6000D01*
X1500Y32500D02*
X1500Y33000D01*
X975Y33000D02*
X2025Y33000D01*
X1500Y35500D02*
X1500Y35000D01*
X975Y35000D02*
X2000Y35000D01*
X975Y33000D02*
X975Y35000D01*
X2025Y33000D02*
X2025Y35000D01*
X975Y34750D02*
X2025Y34750D01*
X33375Y6500D02*
X30624Y6500D01*
X34000Y6000D02*
X33375Y6000D01*
X33375Y5500D02*
X33375Y6500D01*
X33375Y5500D02*
X30624Y5500D01*
X30624Y5500D02*
X30624Y6500D01*
X29999Y6000D02*
X30624Y6000D01*
X23179Y30338D02*
X36958Y30338D01*
X23179Y30338D02*
X23179Y35141D01*
X36958Y30338D02*
X36958Y35141D01*
X23179Y35141D02*
X36958Y35141D01*
X13500Y9500D02*
X16500Y9500D01*
X13500Y9500D02*
X13500Y8500D01*
X16500Y9500D02*
X16500Y8500D01*
X13500Y8500D02*
X16500Y8500D01*
X31051Y3505D02*
X30938Y3606D01*
X30811Y3680D01*
X30674Y3727D01*
X30532Y3747D01*
X30388Y3739D01*
X30248Y3704D01*
X30115Y3641D01*
X29994Y3551D01*
X29893Y3438D01*
X29819Y3311D01*
X29772Y3174D01*
X29752Y3032D01*
X29760Y2888D01*
X29795Y2748D01*
X29858Y2615D01*
X29948Y2494D01*
X30061Y2393D01*
X30188Y2319D01*
X30325Y2272D01*
X30467Y2252D01*
X30611Y2260D01*
X30751Y2295D01*
X30884Y2358D01*
X31005Y2448D01*
X31051Y2494D01*
X31051Y3505D02*
X31051Y2494D01*
X4250Y34500D02*
X2500Y34500D01*
X4250Y33500D02*
X2500Y33500D01*
X4250Y32500D02*
X2500Y32500D01*
X10750Y35500D02*
X4250Y35500D01*
X10750Y31500D02*
X4250Y31500D01*
X10750Y35500D02*
X10750Y31500D01*
X4250Y35500D02*
X4250Y31500D01*
X22375Y9499D02*
X19624Y9500D01*
X23000Y9000D02*
X22375Y9000D01*
X22375Y8500D02*
X22375Y9499D01*
X22375Y8500D02*
X19624Y8500D01*
X19624Y8500D02*
X19624Y9500D01*
X18999Y9000D02*
X19624Y9000D01*
X18500Y10500D02*
X21500Y10500D01*
X18500Y10500D02*
X18500Y9500D01*
X21500Y10500D02*
X21500Y9500D01*
X18500Y9500D02*
X21500Y9500D01*
X33375Y5499D02*
X30624Y5500D01*
X34000Y5000D02*
X33375Y5000D01*
X33375Y4500D02*
X33375Y5499D01*
X33375Y4500D02*
X30624Y4500D01*
X30624Y4500D02*
X30624Y5500D01*
X29999Y5000D02*
X30624Y5000D01*
X4015Y37984D02*
X7952Y37984D01*
X4015Y36015D02*
X7952Y36015D01*
X4015Y37984D02*
X4015Y36015D01*
X7952Y37984D02*
X7952Y36015D01*
X11250Y28500D02*
X11250Y34500D01*
X12250Y35500D02*
X19250Y35500D01*
X20250Y28500D02*
X20250Y34500D01*
X12250Y27500D02*
X19250Y27500D01*
X20250Y34500D02*
X20229Y34701D01*
X20171Y34889D01*
X20079Y35059D01*
X19957Y35207D01*
X19809Y35329D01*
X19639Y35421D01*
X19451Y35479D01*
X19250Y35500D01*
X19250Y27500D02*
X19451Y27520D01*
X19639Y27578D01*
X19809Y27670D01*
X19957Y27792D01*
X20079Y27940D01*
X20171Y28110D01*
X20229Y28298D01*
X20250Y28500D01*
X12250Y35500D02*
X12048Y35479D01*
X11860Y35421D01*
X11690Y35329D01*
X11542Y35207D01*
X11420Y35059D01*
X11328Y34889D01*
X11270Y34701D01*
X11250Y34500D01*
X11250Y28500D02*
X11270Y28298D01*
X11328Y28110D01*
X11420Y27940D01*
X11542Y27792D01*
X11690Y27670D01*
X11860Y27578D01*
X12048Y27520D01*
X12250Y27500D01*
X12500Y5500D02*
X15500Y5500D01*
X12500Y5500D02*
X12500Y4500D01*
X15500Y5500D02*
X15500Y4500D01*
X12500Y4500D02*
X15500Y4500D01*
D12*
G01X33003Y2095D02*
X33003Y1500D01*
X33003Y1500D02*
X33400Y1500D01*
X33599Y1896D02*
X33599Y1996D01*
X33599Y1996D02*
X33698Y2095D01*
X33698Y2095D02*
X33896Y2095D01*
X33896Y2095D02*
X33996Y1996D01*
X33996Y1996D02*
X33996Y1896D01*
X33996Y1896D02*
X33599Y1500D01*
X33599Y1500D02*
X33996Y1500D01*
X26206Y1500D02*
X26503Y1500D01*
X26503Y1500D02*
X26603Y1599D01*
X26603Y1599D02*
X26603Y1698D01*
X26603Y1698D02*
X26503Y1797D01*
X26503Y1797D02*
X26206Y1797D01*
X26206Y1500D02*
X26206Y2095D01*
X26206Y2095D02*
X26503Y2095D01*
X26503Y2095D02*
X26603Y1996D01*
X26603Y1996D02*
X26603Y1896D01*
X26603Y1896D02*
X26503Y1797D01*
X27000Y1500D02*
X27000Y2095D01*
X26801Y2095D02*
X27198Y2095D01*
X27396Y1500D02*
X27396Y2095D01*
X27396Y2095D02*
X27793Y1500D01*
X27793Y1500D02*
X27793Y2095D01*
X29958Y2058D02*
X29958Y1462D01*
X29958Y1462D02*
X30355Y1462D01*
X30752Y1462D02*
X30752Y2058D01*
X30752Y2058D02*
X30553Y1859D01*
X35908Y4000D02*
X35908Y4595D01*
X35908Y4595D02*
X36305Y4595D01*
X36206Y4297D02*
X35908Y4297D01*
X36503Y4099D02*
X36503Y4496D01*
X36503Y4496D02*
X36603Y4595D01*
X36603Y4595D02*
X36801Y4595D01*
X36801Y4595D02*
X36900Y4496D01*
X36900Y4496D02*
X36900Y4099D01*
X36900Y4099D02*
X36801Y4000D01*
X36801Y4000D02*
X36603Y4000D01*
X36603Y4000D02*
X36503Y4099D01*
X37099Y4595D02*
X37099Y4099D01*
X37099Y4099D02*
X37198Y4000D01*
X37198Y4000D02*
X37396Y4000D01*
X37396Y4000D02*
X37496Y4099D01*
X37496Y4099D02*
X37496Y4595D01*
X37694Y4000D02*
X37694Y4595D01*
X37694Y4595D02*
X37992Y4595D01*
X37992Y4595D02*
X38091Y4496D01*
X38091Y4496D02*
X38091Y4396D01*
X38091Y4396D02*
X37992Y4297D01*
X37992Y4297D02*
X37694Y4297D01*
X37694Y4297D02*
X38091Y4000D01*
D13*
G01X21000Y24250D02*
X38750Y24250D01*
X21000Y39250D02*
X21000Y24250D01*
D14*
G01X0Y0D02*
X0Y39370D01*
X39370Y39370D01*
X39370Y0D01*
X0Y0D01*
M02*
