%FSLAX24Y24*%
%MOIN*%
%ADD10C,0.0079*%
%ADD11C,0.0199*%
%ADD12C,0.0500*%
%ADD13C,0.0520*%
%ADD14C,0.0550*%
%ADD15C,0.0591*%
%ADD16C,0.0600*%
%ADD17C,0.0601*%
%ADD18C,0.0700*%
%ADD19C,0.0709*%
%ADD20C,0.0750*%
%ADD21C,0.0787*%
%ADD22C,0.1000*%
%ADD23C,0.1181*%
%ADD24C,0.1500*%
%ADD25C,0.1575*%
%ADD26C,0.2362*%
%ADD27C,0.3150*%
D10*
G01X36499Y5500D02*
X35000Y7000D01*
X35000Y7000D02*
X33999Y7000D01*
X25000Y7000D02*
X26500Y7000D01*
X26500Y7000D02*
X28000Y5499D01*
X2499Y12500D02*
X3283Y13283D01*
X3283Y13283D02*
X3658Y13283D01*
X3658Y13283D02*
X4041Y12900D01*
X4041Y12900D02*
X4041Y12078D01*
X4041Y12078D02*
X4062Y12057D01*
X4062Y12057D02*
X5863Y12057D01*
X5863Y12057D02*
X6041Y11879D01*
X6041Y11879D02*
X6041Y10885D01*
X6041Y10885D02*
X6062Y10864D01*
X6062Y10864D02*
X13267Y10864D01*
X13267Y10864D02*
X13820Y11417D01*
X13820Y11417D02*
X21363Y11417D01*
X21363Y11417D02*
X25000Y7780D01*
X25000Y7780D02*
X25000Y7000D01*
X9500Y12499D02*
X9969Y12969D01*
X9969Y12969D02*
X26780Y12969D01*
X26780Y12969D02*
X27000Y12750D01*
X19250Y32000D02*
X17893Y30643D01*
X17893Y30643D02*
X17893Y28927D01*
X17893Y28927D02*
X16324Y27358D01*
X16324Y27358D02*
X14843Y27358D01*
X14843Y27358D02*
X12675Y25190D01*
X12675Y25190D02*
X12203Y25190D01*
X12203Y25190D02*
X10333Y23320D01*
X10333Y23320D02*
X6242Y23320D01*
X6242Y23320D02*
X6041Y23119D01*
X6041Y23119D02*
X6041Y22041D01*
X6041Y22041D02*
X5500Y21499D01*
X19250Y34000D02*
X20389Y32860D01*
X20389Y32860D02*
X20389Y28870D01*
X20389Y28870D02*
X14460Y22940D01*
X14460Y22940D02*
X7316Y22940D01*
X7316Y22940D02*
X7057Y22682D01*
X7057Y22682D02*
X7057Y22057D01*
X7057Y22057D02*
X6500Y21499D01*
X7500Y11499D02*
X8057Y12057D01*
X8057Y12057D02*
X8937Y12057D01*
X8937Y12057D02*
X8958Y12078D01*
X8958Y12078D02*
X8958Y12837D01*
X8958Y12837D02*
X10272Y14152D01*
X10272Y14152D02*
X26401Y14152D01*
X26401Y14152D02*
X27000Y14750D01*
X20000Y6958D02*
X18959Y8000D01*
X18959Y8000D02*
X17000Y8000D01*
X15000Y37000D02*
X11034Y37000D01*
X11034Y37000D02*
X10484Y37549D01*
X36500Y22250D02*
X33999Y22250D01*
X21968Y1249D02*
X20133Y3085D01*
X20133Y3085D02*
X17165Y3085D01*
X17165Y3085D02*
X16250Y4000D01*
X6750Y26250D02*
X6901Y26401D01*
X6901Y26401D02*
X6901Y28717D01*
X6901Y28717D02*
X6686Y28933D01*
X6686Y28933D02*
X3129Y28933D01*
X3129Y28933D02*
X2522Y29540D01*
X2522Y29540D02*
X736Y29540D01*
X736Y29540D02*
X666Y29471D01*
X666Y29471D02*
X666Y17753D01*
X666Y17753D02*
X4500Y13919D01*
X4500Y13919D02*
X4499Y12500D01*
X19250Y33000D02*
X19795Y32455D01*
X19795Y32455D02*
X19795Y31604D01*
X19795Y31604D02*
X19774Y31583D01*
X19774Y31583D02*
X19090Y31583D01*
X19090Y31583D02*
X18416Y30909D01*
X18416Y30909D02*
X18416Y29178D01*
X18416Y29178D02*
X16416Y27178D01*
X16416Y27178D02*
X14917Y27178D01*
X14917Y27178D02*
X12660Y24921D01*
X12660Y24921D02*
X12440Y24921D01*
X12440Y24921D02*
X10660Y23140D01*
X10660Y23140D02*
X7140Y23140D01*
X7140Y23140D02*
X6500Y22500D01*
X22598Y11598D02*
X12069Y11598D01*
X12069Y11598D02*
X11517Y11045D01*
X11517Y11045D02*
X6954Y11045D01*
X6954Y11045D02*
X6500Y11499D01*
X23000Y12000D02*
X22598Y11598D01*
X23000Y11000D02*
X22598Y11401D01*
X22598Y11401D02*
X22598Y11598D01*
X5750Y26250D02*
X4000Y24500D01*
X19000Y37000D02*
X16870Y34870D01*
X16870Y34870D02*
X13208Y34870D01*
X13208Y34870D02*
X12437Y35641D01*
X12437Y35641D02*
X11093Y35641D01*
X11093Y35641D02*
X10484Y36250D01*
X31000Y3000D02*
X33999Y6000D01*
X9500Y21499D02*
X13847Y17152D01*
X13847Y17152D02*
X25380Y17152D01*
X25380Y17152D02*
X25401Y17131D01*
X25401Y17131D02*
X25401Y15866D01*
X25401Y15866D02*
X24595Y15060D01*
X24595Y15060D02*
X24595Y14370D01*
X24595Y14370D02*
X24616Y14349D01*
X24616Y14349D02*
X25530Y14349D01*
X25530Y14349D02*
X26349Y15167D01*
X26349Y15167D02*
X27535Y15167D01*
X27535Y15167D02*
X27556Y15146D01*
X27556Y15146D02*
X27556Y12307D01*
X27556Y12307D02*
X27000Y11750D01*
X6968Y37000D02*
X8750Y37000D01*
X8750Y37000D02*
X9499Y36250D01*
X25249Y23000D02*
X24250Y22000D01*
X24250Y22000D02*
X7375Y22000D01*
X7375Y22000D02*
X7000Y21624D01*
X7000Y21624D02*
X7000Y21341D01*
X7000Y21341D02*
X6712Y21053D01*
X6712Y21053D02*
X5078Y21053D01*
X5078Y21053D02*
X4968Y21164D01*
X4968Y21164D02*
X4968Y21850D01*
X4968Y21850D02*
X4818Y22000D01*
X4818Y22000D02*
X3000Y22000D01*
X3000Y22000D02*
X2500Y22500D01*
X29250Y23000D02*
X36750Y23000D01*
X36750Y23000D02*
X37000Y22749D01*
X14000Y9000D02*
X13000Y8000D01*
X17565Y10565D02*
X5434Y10565D01*
X5434Y10565D02*
X4499Y11500D01*
X18000Y11000D02*
X17565Y10565D01*
X17565Y10565D02*
X18000Y10131D01*
X18000Y10131D02*
X18000Y10000D01*
X16999Y7000D02*
X16405Y7594D01*
X16405Y7594D02*
X12656Y7594D01*
X12656Y7594D02*
X11541Y8708D01*
X11541Y8708D02*
X10619Y8708D01*
X10619Y8708D02*
X10598Y8729D01*
X10598Y8729D02*
X10598Y9786D01*
X10598Y9786D02*
X10160Y10224D01*
X10160Y10224D02*
X4775Y10224D01*
X4775Y10224D02*
X3499Y11500D01*
X3499Y12500D02*
X3000Y12000D01*
X3000Y12000D02*
X3000Y11059D01*
X3000Y11059D02*
X4047Y10011D01*
X4047Y10011D02*
X9990Y10011D01*
X9990Y10011D02*
X10417Y9585D01*
X10417Y9585D02*
X10417Y8548D01*
X10417Y8548D02*
X10438Y8527D01*
X10438Y8527D02*
X11409Y8527D01*
X11409Y8527D02*
X12523Y7413D01*
X12523Y7413D02*
X14910Y7413D01*
X14910Y7413D02*
X15758Y6565D01*
X15758Y6565D02*
X18673Y6565D01*
X18673Y6565D02*
X22185Y3053D01*
X22185Y3053D02*
X28468Y3053D01*
X28468Y3053D02*
X29447Y2074D01*
X29447Y2074D02*
X32074Y2074D01*
X32074Y2074D02*
X33000Y3000D01*
D11*
G01X8500Y21499D02*
X13249Y16750D01*
X13249Y16750D02*
X25000Y16750D01*
X10500Y28500D02*
X10500Y30000D01*
X10500Y30000D02*
X10000Y30500D01*
X10000Y9250D02*
X10000Y8749D01*
X10000Y8749D02*
X9250Y8000D01*
X17249Y28999D02*
X15892Y29000D01*
X15892Y29000D02*
X13143Y26250D01*
X13143Y26250D02*
X12750Y26250D01*
X7999Y24500D02*
X8751Y25251D01*
X8751Y25251D02*
X11751Y25251D01*
X11751Y25251D02*
X12750Y26250D01*
X29999Y5000D02*
X29775Y4775D01*
X29775Y4775D02*
X26724Y4775D01*
X26724Y4775D02*
X26000Y5499D01*
X1500Y8250D02*
X1499Y11500D01*
X11250Y8000D02*
X10748Y7497D01*
X10748Y7497D02*
X2253Y7497D01*
X2253Y7497D02*
X1500Y8250D01*
X1500Y8250D02*
X1250Y8249D01*
X20500Y9500D02*
X16500Y9500D01*
X16500Y9500D02*
X16000Y9000D01*
X21000Y10000D02*
X20500Y9500D01*
X20500Y9500D02*
X20984Y9015D01*
X20984Y9015D02*
X20984Y6958D01*
X7500Y21499D02*
X6812Y20812D01*
X6812Y20812D02*
X1024Y20812D01*
X1024Y20812D02*
X980Y20856D01*
X980Y20856D02*
X980Y21980D01*
X980Y21980D02*
X1500Y22500D01*
X11544Y26456D02*
X11750Y26250D01*
X7750Y29500D02*
X8501Y29500D01*
X8501Y29500D02*
X11544Y26456D01*
X17249Y31000D02*
X13492Y27241D01*
X13492Y27241D02*
X12329Y27241D01*
X12329Y27241D02*
X11544Y26456D01*
X6500Y29500D02*
X7750Y29500D01*
X3522Y27240D02*
X3010Y27240D01*
X3010Y27240D02*
X1249Y28999D01*
X6500Y28500D02*
X4782Y28500D01*
X4782Y28500D02*
X3522Y27240D01*
X3522Y27240D02*
X3522Y24522D01*
X3522Y24522D02*
X1500Y22500D01*
X16000Y9000D02*
X15500Y9500D01*
X15500Y9500D02*
X11249Y9500D01*
X11249Y9500D02*
X11000Y9250D01*
X30594Y15419D02*
X30263Y15750D01*
X30263Y15750D02*
X27000Y15750D01*
X37500Y22250D02*
X30669Y15419D01*
X30669Y15419D02*
X30594Y15419D01*
X30594Y14250D02*
X30594Y15419D01*
X25000Y14750D02*
X26000Y15750D01*
X26000Y15750D02*
X27000Y15750D01*
X9749Y29500D02*
X8750Y30500D01*
X8750Y30500D02*
X7000Y30500D01*
X2500Y32500D02*
X5000Y32500D01*
X5000Y32500D02*
X7000Y30500D01*
D12*
G01X37500Y22250D03*
X36500Y22250D03*
X37000Y22749D03*
D13*
G01X17000Y8000D03*
X2000Y15000D03*
X17250Y31000D03*
X17250Y28999D03*
X5750Y30500D03*
X3750Y30500D03*
X4000Y24500D03*
X37999Y7000D03*
X23000Y12000D03*
X10749Y24500D03*
X12749Y24500D03*
X9250Y8000D03*
X11250Y8000D03*
X16250Y4000D03*
X34000Y3000D03*
X13999Y10000D03*
X7750Y29500D03*
X9749Y29500D03*
X25000Y16750D03*
X25000Y14750D03*
X23000Y11000D03*
X29250Y23000D03*
X29000Y7000D03*
X13000Y7000D03*
X36499Y5500D03*
X6500Y28500D03*
X13999Y11000D03*
X13000Y6000D03*
X29999Y6000D03*
X16000Y9000D03*
X14000Y9000D03*
X31000Y3000D03*
X18999Y9000D03*
X21000Y10000D03*
X19000Y10000D03*
X29999Y5000D03*
X15000Y5000D03*
X13000Y5000D03*
X27140Y16750D02*
X26860Y16750D01*
X27140Y15750D02*
X26860Y15750D01*
X27140Y11750D02*
X26860Y11750D01*
X27140Y13750D02*
X26860Y13750D01*
X27140Y17750D02*
X26860Y17750D01*
X27140Y14750D02*
X26860Y14750D01*
X27140Y12750D02*
X26860Y12750D01*
X7000Y9390D02*
X7000Y9110D01*
X8000Y9390D02*
X8000Y9110D01*
X10000Y9390D02*
X10000Y9110D01*
X9000Y9390D02*
X9000Y9110D01*
X12890Y30825D02*
X12610Y30825D01*
X19390Y30000D02*
X19110Y30000D01*
X12890Y32175D02*
X12610Y32175D01*
X19390Y33000D02*
X19110Y33000D01*
X19390Y31000D02*
X19110Y31000D01*
X19390Y34000D02*
X19110Y34000D01*
X19390Y32000D02*
X19110Y32000D01*
D14*
G01X10750Y26475D02*
X10750Y26025D01*
X11750Y26475D02*
X11750Y26025D01*
X5750Y26475D02*
X5750Y26025D01*
X9750Y26475D02*
X9750Y26025D01*
X7750Y26475D02*
X7750Y26025D01*
X4750Y26475D02*
X4750Y26025D01*
X8750Y26475D02*
X8750Y26025D01*
X6750Y26475D02*
X6750Y26025D01*
D15*
G01X11468Y36250D03*
X11468Y37549D03*
X10484Y36250D03*
X9499Y36250D03*
X9499Y37549D03*
X10484Y37549D03*
D16*
G01X26041Y32708D02*
X26041Y36041D01*
X4500Y21500D03*
X9500Y21499D03*
X9500Y12499D03*
X7500Y12499D03*
X7500Y11499D03*
X8500Y11499D03*
X5500Y22500D03*
X4499Y11500D03*
X8500Y12499D03*
X1500Y21500D03*
X6500Y11499D03*
X10500Y21499D03*
X8500Y22500D03*
X3500Y21500D03*
X2500Y21500D03*
X10500Y11499D03*
X1499Y12500D03*
X5499Y12500D03*
X8500Y21499D03*
X4499Y12500D03*
X7500Y22500D03*
X7500Y21499D03*
X9500Y11499D03*
X2499Y12500D03*
X9500Y22500D03*
X6500Y21499D03*
X4500Y22500D03*
X6500Y22500D03*
X3500Y22500D03*
X3499Y11500D03*
X1499Y11500D03*
X6500Y12499D03*
X5500Y21499D03*
X3499Y12500D03*
X2500Y22500D03*
X5499Y11500D03*
X2499Y11500D03*
X10500Y12499D03*
X1500Y22500D03*
X3050Y5249D02*
X3450Y5249D01*
X3050Y8249D02*
X3450Y8249D01*
X1050Y5249D02*
X1450Y5249D01*
X1050Y8249D02*
X1450Y8249D01*
X27800Y2499D02*
X28200Y2499D01*
X27800Y5499D02*
X28200Y5499D01*
X25800Y2499D02*
X26199Y2499D01*
X25800Y5499D02*
X26199Y5499D01*
D17*
G01X27250Y33980D02*
X28968Y35698D01*
X28968Y35698D02*
X28968Y37000D01*
X30068Y31500D02*
X28440Y33128D01*
X28440Y33128D02*
X28440Y33993D01*
X28440Y33993D02*
X31447Y37000D01*
X31447Y37000D02*
X33000Y37000D01*
X27250Y31500D02*
X26041Y32708D01*
X26041Y36041D02*
X27000Y37000D01*
X32887Y33980D02*
X34958Y31910D01*
X34958Y31910D02*
X34958Y27208D01*
X34958Y27208D02*
X33999Y26250D01*
X30068Y33980D02*
X31905Y35816D01*
X31905Y35816D02*
X33784Y35816D01*
X33784Y35816D02*
X34968Y37000D01*
X32887Y31500D02*
X34000Y30388D01*
X34000Y30388D02*
X33999Y29250D01*
D18*
G01X20000Y6808D02*
X20000Y7108D01*
X21968Y6808D02*
X21968Y7108D01*
X20000Y1099D02*
X20000Y1399D01*
X21968Y1099D02*
X21968Y1399D01*
X20984Y6808D02*
X20984Y7108D01*
D19*
G01X31000Y21000D03*
X10000Y30500D03*
X6500Y29500D03*
X1500Y35500D03*
D20*
G01X2375Y32500D02*
X2625Y32500D01*
X2375Y33500D02*
X2625Y33500D01*
D21*
G01X1249Y30377D03*
X28968Y37000D03*
X34968Y37000D03*
X6968Y37000D03*
D22*
G01X34000Y22250D03*
X31000Y22250D03*
X31000Y29250D03*
X34000Y29250D03*
X34000Y26250D03*
D23*
G01X36500Y14250D03*
X30594Y14250D03*
X29500Y10250D03*
X37750Y18249D03*
X37750Y10249D03*
X29500Y18250D03*
X11500Y1250D03*
X5000Y9250D03*
X27053Y33980D02*
X27446Y33980D01*
X32690Y31500D02*
X33084Y31500D01*
X29872Y31500D02*
X30265Y31500D01*
X29872Y33980D02*
X30265Y33980D01*
X27053Y31500D02*
X27446Y31500D01*
X32690Y33980D02*
X33084Y33980D01*
D24*
G01X12250Y28500D03*
X12250Y34500D03*
D25*
G01X18425Y4202D03*
X23543Y4202D03*
D26*
G01X23500Y26500D03*
X37500Y26500D03*
X37000Y2000D03*
X23500Y37500D03*
X2037Y25856D03*
X2037Y1761D03*
X15462Y1761D03*
X15462Y25856D03*
X37500Y37500D03*
X5000Y2000D03*
X2000Y37500D03*
D27*
G01X15000Y37000D03*
X19000Y37000D03*
G36*
X33645Y20645D02*G01*
X34354Y20645D01*X34354Y21354D01*X33645Y21354D01*G37*
G36*
X13260Y8260D02*G01*
X12740Y8260D01*X12740Y7740D01*X13260Y7740D01*G37*
G36*
X5739Y14740D02*G01*
X6259Y14740D01*X6259Y15260D01*X5739Y15260D01*G37*
G36*
X856Y29393D02*G01*
X856Y28606D01*X1643Y28606D01*X1643Y29393D01*G37*
G36*
X7740Y24240D02*G01*
X8260Y24240D01*X8260Y24760D01*X7740Y24760D01*G37*
G36*
X26599Y10490D02*G01*
X27399Y10490D01*X27399Y11010D01*X26599Y11010D01*G37*
G36*
X34260Y7260D02*G01*
X33740Y7260D01*X33740Y6740D01*X34260Y6740D01*G37*
G36*
X27393Y37393D02*G01*
X26606Y37393D01*X26606Y36606D01*X27393Y36606D01*G37*
G36*
X19260Y12260D02*G01*
X18740Y12260D01*X18740Y11740D01*X19260Y11740D01*G37*
G36*
X7354Y30854D02*G01*
X6645Y30854D01*X6645Y30145D01*X7354Y30145D01*G37*
G36*
X12510Y4260D02*G01*
X11990Y4260D01*X11990Y3740D01*X12510Y3740D01*G37*
G36*
X33260Y3260D02*G01*
X32740Y3260D01*X32740Y2740D01*X33260Y2740D01*G37*
G36*
X17739Y9740D02*G01*
X18259Y9740D01*X18259Y10260D01*X17739Y10260D01*G37*
G36*
X11260Y8850D02*G01*
X11260Y9650D01*X10740Y9650D01*X10740Y8850D01*G37*
G36*
X10200Y22200D02*G01*
X10800Y22200D01*X10800Y22800D01*X10200Y22800D01*G37*
G36*
X19260Y11260D02*G01*
X18740Y11260D01*X18740Y10740D01*X19260Y10740D01*G37*
G36*
X33393Y37393D02*G01*
X32606Y37393D01*X32606Y36606D01*X33393Y36606D01*G37*
G36*
X25510Y23260D02*G01*
X24990Y23260D01*X24990Y22740D01*X25510Y22740D01*G37*
G36*
X25260Y7260D02*G01*
X24740Y7260D01*X24740Y6740D01*X25260Y6740D01*G37*
G36*
X16740Y6740D02*G01*
X17260Y6740D01*X17260Y7260D01*X16740Y7260D01*G37*
G36*
X3854Y29854D02*G01*
X3145Y29854D01*X3145Y29145D01*X3854Y29145D01*G37*
G36*
X37239Y5240D02*G01*
X37759Y5240D01*X37759Y5760D01*X37240Y5760D01*G37*
G36*
X10240Y28239D02*G01*
X10760Y28239D01*X10760Y28759D01*X10240Y28759D01*G37*
G36*
X13025Y25750D02*G01*
X13025Y26750D01*X12474Y26750D01*X12474Y25750D01*G37*
G36*
X17739Y10740D02*G01*
X18259Y10740D01*X18259Y11260D01*X17739Y11260D01*G37*
G36*
X16740Y5740D02*G01*
X17260Y5740D01*X17260Y6260D01*X16740Y6260D01*G37*
G36*
X1145Y32854D02*G01*
X1145Y32145D01*X1854Y32145D01*X1854Y32854D01*G37*
G36*
X33739Y5740D02*G01*
X34259Y5740D01*X34259Y6260D01*X33739Y6260D01*G37*
G36*
X30260Y3260D02*G01*
X29740Y3260D01*X29740Y2740D01*X30260Y2740D01*G37*
G36*
X10699Y31500D02*G01*
X10700Y35500D01*X8300Y35500D01*X8300Y31500D01*G37*
G36*
X3000Y34125D02*G01*
X3000Y34875D01*X2000Y34875D01*X2000Y34125D01*G37*
G36*
X22739Y8740D02*G01*
X23259Y8740D01*X23259Y9260D01*X22739Y9260D01*G37*
G36*
X33739Y4740D02*G01*
X34259Y4740D01*X34259Y5260D01*X33739Y5260D01*G37*
G36*
X5393Y37393D02*G01*
X4606Y37393D01*X4606Y36606D01*X5393Y36606D01*G37*
G36*
X18850Y29260D02*G01*
X18850Y28740D01*X19650Y28740D01*X19650Y29260D01*G37*
M02*
