M48
INCH
T1C0.0250
T2C0.0320
T3C0.0340
T4C0.0354
T5C0.0400
T6C0.0433
T7C0.0512
T8C0.0550
T9C0.0551
T10C0.0748
T11C0.0787
T12C0.1000
T13C0.1102
T14C0.1181
T15C0.1260
T16C0.1500
T17C0.1575
%
G05
M72
T1
X3.7500Y2.2250
X3.6500Y2.2250
X3.7000Y2.2750
T2
X1.3000Y0.8000
X1.7000Y0.8000
X0.6000Y1.5000
X0.2000Y1.5000
X1.7250Y3.1000
X1.7250Y2.9000
X0.5750Y3.0500
X0.3750Y3.0500
X0.8000Y2.4500
X0.4000Y2.4500
X2.7000Y1.6750
X2.7000Y1.5750
X2.7000Y1.1750
X2.7000Y1.3750
X2.7000Y1.7750
X2.7000Y1.0750
X2.7000Y1.4750
X2.7000Y1.2750
X3.4000Y0.7000
X3.8000Y0.7000
X1.9000Y1.2000
X2.3000Y1.2000
X1.0750Y2.4500
X1.2750Y2.4500
X0.9250Y0.8000
X1.1250Y0.8000
X1.2250Y0.4000
X1.6250Y0.4000
X3.3000Y0.3000
X3.4000Y0.3000
X1.8000Y1.0000
X1.4000Y1.0000
X0.7750Y2.9500
X0.9750Y2.9500
X0.7000Y0.9250
X0.8000Y0.9250
X1.0000Y0.9250
X1.1000Y0.9250
X0.9000Y0.9250
X0.4500Y2.1500
X0.9500Y2.1500
X0.9500Y1.2500
X0.7500Y1.2500
X0.7500Y1.1500
X0.8500Y1.1500
X0.5500Y2.2500
X0.4500Y1.1500
X0.8500Y1.2500
X0.1500Y2.1500
X0.6500Y1.1500
X1.0500Y2.1500
X0.8500Y2.2500
X0.3500Y2.1500
X0.2500Y2.1500
X1.0500Y2.2500
X1.0500Y1.1500
X0.1500Y1.2500
X0.5500Y1.2500
X0.8500Y2.1500
X0.4500Y1.2500
X0.7500Y2.2500
X0.7500Y2.1500
X0.9500Y1.1500
X0.2500Y1.2500
X0.9500Y2.2500
X0.6500Y2.1500
X0.4500Y2.2500
X0.6500Y2.2500
X0.3500Y2.2500
X0.3500Y1.1500
X0.1500Y1.1500
X0.6500Y1.2500
X0.5500Y2.1500
X0.3500Y1.2500
X0.2500Y2.2500
X0.5500Y1.1500
X0.2500Y1.1500
X1.0500Y1.2500
X0.1500Y2.2500
X2.5000Y1.6750
X2.5000Y1.4750
X1.9000Y1.1000
X2.3000Y1.1000
X2.5250Y2.3000
X2.9250Y2.3000
X2.5000Y0.7000
X2.9000Y0.7000
X1.7000Y0.7000
X1.3000Y0.7000
X3.7500Y0.5500
X3.6500Y0.5500
X1.0500Y2.8500
X0.6500Y2.8500
X1.8000Y1.1000
X1.4000Y1.1000
X1.7000Y0.6000
X1.3000Y0.6000
X3.4000Y0.6000
X3.0000Y0.6000
X1.6000Y0.9000
X1.4000Y0.9000
X3.0000Y0.3000
X3.1000Y0.3000
X2.3000Y0.9000
X1.9000Y0.9000
X2.1000Y1.0000
X1.9000Y1.0000
X3.4000Y0.5000
X3.0000Y0.5000
X1.2750Y3.0825
X1.9250Y3.0000
X1.2750Y3.2175
X1.9250Y2.9000
X1.9250Y3.3000
X1.9250Y3.1000
X1.9250Y3.4000
X1.9250Y3.2000
X1.5000Y0.5000
X1.3000Y0.5000
T3
X1.0750Y2.6250
X1.1750Y2.6250
X0.5750Y2.6250
X0.9750Y2.6250
X0.7750Y2.6250
X1.2750Y2.6250
X0.4750Y2.6250
X0.8750Y2.6250
X0.6750Y2.6250
T4
X1.1469Y3.6250
X1.1469Y3.7549
X1.0484Y3.6250
X0.9500Y3.6250
X0.9500Y3.7549
X1.0484Y3.7549
T5
X0.3250Y0.5250
X0.3250Y0.8250
X0.1250Y0.5250
X0.1250Y0.8250
X2.8000Y0.2500
X2.8000Y0.5500
X2.6000Y0.2500
X2.6000Y0.5500
T6
X3.4000Y2.1000
X3.1000Y2.1000
X0.7000Y3.0500
X1.0000Y3.0500
X2.0000Y0.6959
X2.1969Y0.6959
X2.0000Y0.1250
X2.1969Y0.1250
X2.0984Y0.6959
X0.3500Y2.9500
X0.6500Y2.9500
X0.1500Y3.2500
X0.1500Y3.5500
T7
X0.1250Y2.9000
X0.1250Y3.0378
X2.8969Y3.7000
X2.7000Y3.7000
X3.4969Y3.7000
X3.3000Y3.7000
X0.6969Y3.7000
X0.5000Y3.7000
T8
X0.2500Y3.2500
X0.2500Y3.3500
X0.2500Y3.4500
T9
X3.4000Y2.2250
X3.1000Y2.2250
X3.1000Y2.9250
X3.4000Y2.9250
X3.4000Y2.6250
T10
X2.7250Y3.3980
X3.2888Y3.1500
X3.0069Y3.1500
X3.0069Y3.3980
X2.7250Y3.1500
X3.2888Y3.3980
T11
X3.6500Y1.4250
X3.0594Y1.4250
X2.9500Y1.0250
X3.7750Y1.8250
X3.7750Y1.0250
X2.9500Y1.8250
X1.1500Y0.1250
X0.5000Y0.9250
T12
X1.2250Y2.8500
X1.2250Y3.4500
T13
X1.8425Y0.4203
X2.3543Y0.4203
T14
X2.3500Y2.6500
X3.7500Y2.6500
X3.7000Y0.2000
X2.3500Y3.7500
X3.7500Y3.7500
X0.5000Y0.2000
X0.2000Y3.7500
T15
X0.2037Y2.5856
X0.2037Y0.1762
X1.5463Y0.1762
X1.5463Y2.5856
T16
X0.9500Y3.3500
T17
X1.5000Y3.7000
X1.9000Y3.7000
T0
M30
